<svg width="118" height="77" viewBox="0 0 118 77" fill="none" xmlns="http://www.w3.org/2000/svg">
<g opacity="0.37">
<path d="M2.19098 3.05828C5.29417 1.53448 8.73255 0.554037 12.2989 0.176027C15.8653 -0.201982 19.4859 0.0302766 22.9426 0.858783C29.845 2.55581 36.1924 5.55919 41.497 9.63816C51.9948 17.2246 59.0747 29.2473 63.4248 40.3008C48.5325 43.5628 32.3529 37.0575 24.5183 33.3295C12.0008 27.4206 -6.3538 10.3838 2.19098 3.05828Z" fill="#2DA547"/>
<path d="M89.8137 41.6429C86.1139 40.3258 82.8933 38.2122 80.4773 35.5154C78.0612 32.8186 76.5352 29.6342 76.0532 26.2836C75.6554 22.932 76.0528 19.5473 77.2223 16.3255C78.3918 13.1036 80.3104 10.1085 82.8669 7.51326C85.0863 5.09007 88.3267 2.83464 92.0109 2.79736C93.7453 2.87655 95.4235 3.34106 96.8741 4.14342C98.3247 4.94578 99.4956 6.05721 100.267 7.36413C101.743 10.0099 102.37 12.9334 102.087 15.8453C101.643 25.799 99.0243 35.3613 89.8137 41.6429Z" fill="#2DA547"/>
<g opacity="0.4">
<path d="M89.8137 41.6429C86.1139 40.3258 82.8933 38.2122 80.4773 35.5154C78.0612 32.8186 76.5352 29.6342 76.0532 26.2836C75.6554 22.932 76.0528 19.5473 77.2223 16.3255C78.3918 13.1036 80.3104 10.1085 82.8669 7.51326C85.0863 5.09007 88.3267 2.83464 92.0109 2.79736C93.7453 2.87655 95.4235 3.34106 96.8741 4.14342C98.3247 4.94578 99.4956 6.05721 100.267 7.36413C101.743 10.0099 102.37 12.9334 102.087 15.8453C101.643 25.799 99.0243 35.3613 89.8137 41.6429Z" fill="white"/>
</g>
<path d="M116.313 72.0262C115.548 71.5452 114.842 71.002 114.205 70.4045L108.678 65.8191C102.381 60.8844 97.0678 55.1322 92.9425 48.7822C88.911 42.3232 87.0033 35.0781 87.4161 27.7937C87.5819 25.6041 88.0588 23.4389 88.8365 21.3443C89.037 20.7723 89.2816 20.212 89.5689 19.6667C89.7465 19.2815 89.8575 19.0951 89.9019 19.1075C88.957 21.9568 88.362 24.8799 88.1263 27.831C87.9525 34.959 89.9139 42.0094 93.8302 48.3349C97.9329 54.6014 103.107 60.3288 109.189 65.3345C111.408 67.3289 113.272 68.9506 114.493 70.1063C115.165 70.7005 115.774 71.3429 116.313 72.0262Z" fill="#263238"/>
<path d="M17.5267 14.9319C17.9129 15.0656 18.2843 15.2278 18.6365 15.4165L21.677 16.945C24.3182 18.2871 28.1134 20.2816 32.7742 22.7607C42.0957 27.7375 54.8574 34.7647 68.7288 42.7799C82.6002 50.7951 94.9402 58.3069 103.818 63.843C108.257 66.6203 111.83 68.8758 114.271 70.4788L117.046 72.3428C117.391 72.5448 117.711 72.7759 118 73.0325C117.621 72.8804 117.264 72.6928 116.935 72.4733L114.027 70.7584L103.418 64.3463C94.5407 58.9407 82.0231 51.522 68.1517 43.5069C54.2804 35.4917 41.5187 28.3899 32.3747 23.2826L21.4552 17.2432L18.5033 15.5843C18.1593 15.3871 17.8329 15.169 17.5267 14.9319Z" fill="#263238"/>
<path d="M85.4192 59.5372C77.7346 56.5577 69.3152 55.1591 60.8586 55.4574C52.4021 55.7556 44.1519 57.742 36.7917 61.252C33.0853 63.116 29.2235 66.0052 29.8228 69.5841C30.422 73.1629 35.0828 75.176 39.2775 75.9216C48.0683 77.4956 57.2171 76.8485 65.5707 74.0621C73.9243 71.2757 81.1087 66.4746 86.2183 60.2641" fill="#2DA547"/>
<path d="M48.6431 66.1357C49.3331 65.6709 50.0766 65.2651 50.8625 64.9241C51.6171 64.57 52.527 64.1226 53.6589 63.6939C54.9021 63.1734 56.1762 62.7068 57.4763 62.2959C59.0449 61.7723 60.6451 61.3182 62.2703 60.9352C64.1376 60.4629 66.0343 60.0771 67.952 59.7795C72.346 59.1314 76.8129 58.9 81.2685 59.0898C85.7254 59.3365 90.134 60.0119 94.4075 61.1029C96.2593 61.5972 98.0749 62.1822 99.845 62.8551C101.366 63.405 102.848 64.0273 104.284 64.7191C105.66 65.2969 106.792 66.0239 107.835 66.5831C108.723 67.0534 109.576 67.5701 110.387 68.1302C111.117 68.5705 111.801 69.0632 112.429 69.6027C112.296 69.7519 109.344 67.7387 103.951 65.2596C102.474 64.5729 100.955 63.9507 99.4012 63.3956C97.7588 62.7805 95.9389 62.2959 94.008 61.7554C85.583 59.6294 76.6825 59.189 68.0186 60.4692C66.1304 60.72 64.2626 61.0686 62.4256 61.513C60.8034 61.8607 59.2034 62.2775 57.6317 62.7619C52.0387 64.57 48.754 66.2848 48.6431 66.1357Z" fill="#263238"/>
</g>
</svg>
