<svg id="Layer_1" data-name="Layer 1" xmlns="http://www.w3.org/2000/svg" viewBox="0 0 870.2 535.58"><defs><style>.cls-1{fill:#3a7f3d;}.cls-1,.cls-2,.cls-3,.cls-4,.cls-5,.cls-6,.cls-7,.cls-8{stroke:#010101;stroke-miterlimit:10;}.cls-1,.cls-2,.cls-3,.cls-5,.cls-6,.cls-8{stroke-width:2px;}.cls-2{fill:#31ab4a;}.cls-10,.cls-3{fill:#fff;}.cls-4{fill:#010101;}.cls-4,.cls-7{stroke-width:0.25px;}.cls-5,.cls-7{fill:#f68622;}.cls-6{fill:#3baf49;}.cls-8{fill:#f8cc19;}.cls-9{fill:#f68522;}</style></defs><path class="cls-1" d="M907.76,399h0l-23-42.1a90.14,90.14,0,0,1-41.34,10h0a90.57,90.57,0,0,1-90.57-90.57H652.37a90.57,90.57,0,0,1-90.57,90.57h0a90.22,90.22,0,0,1-42-10.33l-48.05,87.7A90.51,90.51,0,0,1,515,521.47h0a90.49,90.49,0,0,1-42.53,76.78L498,644.79S628.05,480.08,907.76,399Z" transform="translate(-63.79 -231.01)"/><path class="cls-2" d="M562.06,674.76h0a90.57,90.57,0,0,1,90.57,90.58h0c0,.08,0,.17,0,.26H752.83A90.57,90.57,0,0,1,843.4,675h0a90.16,90.16,0,0,1,41.8,10.21l47.46-86.72a90.51,90.51,0,0,1-42.93-77h0a90.5,90.5,0,0,1,42.87-77L907.76,399h0C628.05,480.08,498,644.79,498,644.79l22.1,40.29A90.08,90.08,0,0,1,562.06,674.76Z" transform="translate(-63.79 -231.01)"/><circle class="cls-3" cx="638.55" cy="289.93" r="158.53"/><circle class="cls-4" cx="638.55" cy="289.93" r="128.05"/><rect class="cls-5" x="57.9" y="160.06" width="36.96" height="197.28"/><polygon class="cls-6" points="105.27 222.56 105.27 357.34 130.7 357.34 130.7 285.25 206.05 357.34 206.05 222.56 179.74 222.56 179.74 292.98 105.27 222.56"/><polygon class="cls-6" points="217.18 222.56 217.18 357.34 242.61 357.34 242.61 285.25 317.97 357.34 317.97 222.56 291.65 222.56 291.65 292.98 217.18 222.56"/><polygon class="cls-6" points="440.49 216.02 468.27 216.02 499.31 292.02 530.46 216.02 558.11 216.02 499.3 363.68 440.49 216.02"/><path class="cls-7" d="M745.84,500.71a31.2,31.2,0,0,0,16.67-27.61V461.57c0-17.23-16.57-35.88-33.8-35.88H674.53c-17.23,0-33.8,18.65-33.8,35.88V473.1A31.19,31.19,0,0,0,658.06,501a55,55,0,0,0-33,50.4v12.93a55,55,0,0,0,55,55h44.69a55,55,0,0,0,55-55V551.44A55,55,0,0,0,745.84,500.71Z" transform="translate(-63.79 -231.01)"/><path class="cls-8" d="M173.85,285.67a41.44,41.44,0,0,0-33.68-17.82s-20.82-.92-33.84,17.82c0,0-10.93,14.58-7.28,32.79,0,0,1,6.77,7.81,18.74,0,0,5.72,12,8.32,20.82,0,0,2.09,6.77,3.13,10.41a49.33,49.33,0,0,1,.52,7.29s.52,6.25,7.81,6.25h27c7.26,0,7.78-6.25,7.78-6.25a50.27,50.27,0,0,1,.51-7.29C163,364.79,165,358,165,358c2.59-8.85,8.29-20.82,8.29-20.82,6.74-12,7.78-18.74,7.78-18.74C184.74,300.25,173.85,285.67,173.85,285.67Z" transform="translate(-63.79 -231.01)"/><polygon class="cls-9" points="74.82 0 78.58 0 78.46 27.59 74.82 27.59 74.82 0"/><polygon class="cls-9" points="125.63 10.99 128.82 12.99 114.08 36.31 110.99 34.38 125.63 10.99"/><polygon class="cls-9" points="154.03 46.4 155.6 49.82 130.49 61.24 128.97 57.93 154.03 46.4"/><polygon class="cls-9" points="155.64 94.08 154.82 97.75 127.92 91.63 128.71 88.08 155.64 94.08"/><polygon class="cls-9" points="30.17 10.99 26.96 12.99 41.78 36.31 44.89 34.38 30.17 10.99"/><polygon class="cls-9" points="1.62 46.4 0.04 49.82 25.28 61.24 26.81 57.93 1.62 46.4"/><polygon class="cls-9" points="0 94.08 0.82 97.75 27.87 91.63 27.07 88.08 0 94.08"/><rect class="cls-4" x="607.06" y="218.62" width="63.46" height="38.52" rx="19.26"/><rect class="cls-4" x="587.02" y="293.58" width="103.06" height="61.94" rx="30.97"/><path class="cls-6" d="M485.84,471.21a49.6,49.6,0,0,0-37.55-16.61s-21.78-3.33-39.4,19.93a79.76,79.76,0,0,0-15.76,46.93s1.86,32,17.62,49.42c0,0,14.83,17.44,37.54,17.44,0,0,19.93,1.66,37.55-18.27,0,0,17.61-16.74,17.61-48.66C503.45,521.39,506.23,497,485.84,471.21Zm-6.55,50.18c0,17.92-9.89,27.32-9.89,27.32-9.89,11.2-21.08,10.26-21.08,10.26-12.75,0-21.08-9.79-21.08-9.79-8.85-9.79-9.89-27.75-9.89-27.75a44.8,44.8,0,0,1,8.85-26.35c9.89-13.06,22.12-11.19,22.12-11.19a27.86,27.86,0,0,1,21.08,9.32C480.85,507.67,479.29,521.39,479.29,521.39Z" transform="translate(-63.79 -231.01)"/><path class="cls-10" d="M116.22,284.63s6.25-4.69,9.89-1c0,0,4.69,4.68,0,8.66,0,0-6.76,4.87-9.36,8.52,0,0-5.11,5.1-6.56,17.94a.63.63,0,0,1-1.21.16,36.69,36.69,0,0,1-2-16.95,26.75,26.75,0,0,1,1.46-6.56A21.87,21.87,0,0,1,116.22,284.63Z" transform="translate(-63.79 -231.01)"/></svg>