<svg width="96" height="94" viewBox="0 0 96 94" fill="none" xmlns="http://www.w3.org/2000/svg">
<path d="M42.2572 77.5445C42.4229 75.1585 41.6632 73.1074 39.4947 71.954C37.0258 70.6384 34.2219 70.1067 31.7737 68.7496C29.3911 67.4271 27.4195 65.117 25.7447 62.9969C24.0769 60.8841 22.6576 58.5865 21.5148 56.1495C19.2806 51.3808 17.6439 45.5901 18.1584 40.2897C18.7385 34.347 21.8946 28.9499 25.7551 24.5334C33.8525 15.3035 48.8698 11.8193 59.992 17.3442C62.6785 18.6771 65.0645 20.4519 67.3815 22.3269C68.3517 23.0826 69.2498 23.9265 70.0645 24.8477C70.5767 25.4853 71.0385 26.1619 71.4457 26.8711C71.8774 27.5617 72.4299 28.1557 72.8546 28.8705C74.5811 31.7641 75.1888 34.82 75.6585 38.1177C75.8887 39.7544 76.0602 41.3981 76.173 43.0486C76.2938 44.7924 76.5183 46.6709 76.3076 48.4078C75.9623 51.329 74.4982 54.4368 73.1792 57.0404C71.8567 59.6233 70.264 62.0586 68.4278 64.3056C66.4665 66.7093 64.2557 68.8981 61.8325 70.8353C59.6605 72.5618 57.3435 73.646 57.7613 76.8401C57.7924 77.0956 58.5728 76.923 58.5348 76.6329C58.2827 74.6474 59.1322 73.4458 60.6826 72.3166C61.7991 71.5063 62.8764 70.6476 63.9147 69.7406C65.9663 67.9533 67.8471 65.9788 69.5328 63.8429C72.8037 59.7058 75.2395 54.9726 76.7047 49.9064C77.5991 46.7986 77.0328 43.1729 76.6805 39.9858C76.3111 36.6122 75.9105 33.0797 74.3497 30.0134C73.6591 28.6495 72.7855 27.51 71.9775 26.2358C71.2525 25.0739 70.3718 24.0166 69.3601 23.0935C67.2265 21.1386 64.8946 19.4119 62.4022 17.9416C52.5783 12.2164 39.3497 13.5562 30.1301 19.9478C25.4201 23.2144 21.6011 28.1073 19.2944 33.3352C16.8497 38.8774 16.9775 44.5093 18.5279 50.2724C20.0781 56.0943 23.06 61.4359 27.2019 65.8111C28.2081 66.9422 29.3505 67.9443 30.6032 68.7945C31.9844 69.6647 33.5486 70.2137 35.0921 70.7628C36.57 71.2876 38.1343 71.7987 39.4671 72.655C41.1522 73.7358 41.6184 75.7627 41.4871 77.6412C41.4664 77.9554 42.2434 77.8035 42.2606 77.5445H42.2572Z" fill="#326E35" fill-opacity="0.41"/>
<path d="M41.5251 77.6518C42.3055 78.6877 44.1563 78.7361 45.3235 78.85C47.0845 79.0192 48.7593 79.1643 50.503 78.7741C52.378 78.3528 54.2841 78.2388 56.1557 77.8003C57.012 77.6 58.0514 77.3997 58.4036 76.5089C58.5037 76.2602 57.7337 76.35 57.6301 76.6055C57.2848 77.4446 55.4064 77.5172 54.664 77.7002C53.4209 78.0075 52.1191 77.9902 50.8656 78.2768C49.3596 78.5872 47.8131 78.6502 46.2869 78.4633C45.1198 78.3666 43.0445 78.4011 42.2503 77.3514C42.0949 77.1408 41.3456 77.4067 41.532 77.6518H41.5251Z" fill="#326E35" fill-opacity="0.41"/>
<path d="M41.4457 77.2578C40.5341 78.3662 40.9346 80.8317 41.0624 82.13C41.2247 83.7323 41.2523 85.9802 42.0983 87.4028C42.9443 88.8255 44.55 89.3262 46.0417 89.706C47.8373 90.1653 49.8228 90.6314 51.6909 90.5451C53.3138 90.4755 54.8971 90.0223 56.311 89.2226C57.023 88.8382 57.6377 88.2962 58.1081 87.6379C58.5785 86.9795 58.8922 86.2224 59.0251 85.4242C59.3538 83.7393 59.4388 82.0159 59.2772 80.3068C59.1874 79.1501 59.1563 77.4684 58.4623 76.5085C58.3173 76.3082 57.7717 76.5085 57.7164 76.7088L57.6854 76.8262L58.0307 76.5845H57.965C57.5023 76.7053 57.6025 77.0955 58.0686 76.9747C58.3069 76.9125 58.4347 76.8365 58.5003 76.5983L57.7544 76.7985C58.3103 77.5686 58.4036 79.0189 58.4795 79.9339C58.5659 81.342 58.552 82.7544 58.4381 84.1604C58.3311 85.8524 57.896 87.4995 56.4733 88.5423C54.6848 89.7735 52.5046 90.301 50.3511 90.0237C48.8936 89.8496 47.4517 89.5633 46.0382 89.1673C44.5707 88.7357 43.079 88.0762 42.5472 86.5085C42.0983 85.1825 42.0051 83.5734 41.8566 82.1957C41.7219 80.9042 41.2351 78.4146 42.1605 77.2923C42.3746 77.0299 41.6011 77.0782 41.4388 77.2751L41.4457 77.2578Z" fill="#326E35" fill-opacity="0.41"/>
<path d="M43.0723 88.6425C42.7961 89.4402 43.0378 90.7904 43.2484 91.5949C43.3144 91.9555 43.478 92.2911 43.7216 92.5651C43.9651 92.8391 44.2792 93.041 44.6296 93.1488C45.6414 93.4665 46.7912 93.4492 47.8341 93.5251C49.0595 93.6465 50.2924 93.673 51.5219 93.6046C52.5578 93.5182 53.5454 93.1868 54.5537 92.9968C55.227 92.8656 56.0558 92.7689 56.6669 92.4202C58.3417 91.4637 58.1587 89.4229 58.1587 87.7793C58.1587 87.5445 57.3852 87.6861 57.3852 87.9899C57.3852 89.8926 57.5302 91.9195 55.1925 92.4443C53.6731 92.7896 52.0848 93.204 50.5205 93.1868C48.9563 93.1695 47.2954 93.1868 45.7933 92.8415C44.6296 92.579 44.1255 92.1059 43.9528 90.9354C43.8458 90.2206 43.6075 89.233 43.8423 88.5355C43.9321 88.2765 43.1517 88.3732 43.0689 88.6357L43.0723 88.6425Z" fill="#326E35" fill-opacity="0.41"/>
<path d="M46.6499 91.0357L46.6084 91.0046L45.942 91.3499C46.4137 91.6309 46.9636 91.752 47.5097 91.6952C47.6651 91.6745 47.893 91.5985 47.9482 91.4328L47.9897 91.3085C47.9946 91.2903 47.9946 91.2711 47.9897 91.2529C47.9849 91.2348 47.9753 91.2182 47.962 91.2049C47.5649 90.8043 46.902 90.642 46.4185 90.3554C45.9471 90.0116 45.4559 89.6957 44.9475 89.4093L44.3294 89.7857C45.02 90.0619 45.7106 90.5799 46.4807 90.4038C46.6084 90.3727 46.826 90.2691 46.826 90.1068C46.7707 89.6786 45.7901 89.1986 45.4897 89.0294C45.1892 88.8602 44.8336 88.6531 44.4537 88.8464C43.3591 89.4265 45.0235 90.7698 45.5656 91.1116C45.7348 91.2187 46.4116 91.0357 46.232 90.7663C45.7521 90.129 45.1499 89.5937 44.4606 89.1917C44.2914 89.0812 43.9772 89.1917 43.8425 89.316C43.0622 89.9445 44.7645 91.9991 45.4793 92.1096C45.6105 92.1303 46.1975 92.0439 46.1008 91.7953C45.8039 91.0253 45.3308 90.1517 44.4848 89.9134C44.3671 89.886 44.2438 89.8963 44.1323 89.9428C44.0208 89.9892 43.9267 90.0696 43.8633 90.1724C43.3522 91.2946 44.9993 92.7484 46.0663 92.7795C47.0711 92.8071 46.9227 92.0888 46.4392 91.5122C45.9558 90.9355 45.134 90.6144 44.6851 91.5122C44.288 92.2822 44.7921 92.7656 45.5587 92.4963C45.62 92.4819 45.6754 92.449 45.7174 92.4021C45.7594 92.3551 45.786 92.2964 45.7935 92.2339C45.7935 91.785 45.1029 91.4673 44.837 91.1047C44.4572 90.5591 44.4261 89.872 44.0739 89.3782C43.9427 89.1883 43.2245 89.4024 43.328 89.6337C43.8253 90.7283 46.7811 94.6855 47.962 92.1786C48.8356 90.3381 45.4551 90.6696 44.6022 91.3015C44.5744 91.318 44.5528 91.343 44.5405 91.3729C44.5282 91.4028 44.526 91.4358 44.5342 91.467C44.5424 91.4983 44.5606 91.526 44.5859 91.546C44.6113 91.5659 44.6424 91.5771 44.6747 91.5778C45.3653 91.671 46.0559 91.8506 46.7465 91.9231C47.3789 91.9519 48.0088 92.0223 48.6319 92.1337L49.0187 91.7021C48.0173 91.6192 46.7914 90.8078 45.9109 90.3209C45.7383 90.2208 45.0684 90.3865 45.2445 90.6662C45.5898 91.2187 46.6464 91.4051 47.2231 91.4777C47.6996 91.5364 48.9116 91.3292 49.2431 91.6123L49.5504 91.267C48.953 91.4086 46.6775 90.5315 46.0974 90.0585L45.5863 90.4314C46.2977 90.3968 47.0642 90.6731 47.7617 90.8043C48.2521 90.8975 48.9634 90.8665 49.4054 91.1185L49.6609 90.7352C48.6492 91.0011 47.3577 90.2104 46.3598 90.0757C46.2079 90.055 45.4586 90.3313 45.8142 90.4728C47.2403 91.046 48.922 90.7111 50.3343 91.2463L50.7452 91.3257C50.9834 91.671 50.9282 91.8299 50.5829 91.7988C50.3136 92.0094 49.4676 91.9576 49.1568 91.9818C48.139 92.0307 47.1188 91.9914 46.1077 91.8644L45.8315 92.2753C47.3198 92.3927 48.8805 92.3513 50.3515 92.5239L50.538 92.1199C48.8874 92.6379 47.085 92.0888 45.3964 92.2511C45.2652 92.2511 44.8301 92.4134 44.9855 92.6172C45.355 93.1144 46.4289 93.0453 46.9745 93.0626C47.6651 93.0833 48.3557 93.0419 49.0463 93.0004C49.2984 93.0004 50.0166 92.7933 50.2583 92.9072L50.4137 92.5619C49.3018 92.9797 47.9206 92.8623 46.895 93.515C46.6084 93.698 46.8294 93.8602 47.0815 93.843C48.6216 93.7152 50.0684 92.883 51.5118 92.3962C52.2611 92.1441 53.5836 92.0129 54.0912 91.3602C54.2051 91.2083 53.9945 91.1393 53.884 91.1323C51.9952 90.9839 50.0857 91.7677 48.2107 91.9231V92.3305C50.3792 91.8091 52.5995 91.5053 54.7714 90.9908C55.241 90.8803 55.1167 90.5004 54.6678 90.604C53.4696 90.8734 52.299 91.0633 51.0836 91.2187C50.7383 91.2636 49.0118 91.6814 48.7424 91.4466L48.4351 91.7919C49.9643 91.5262 51.5236 91.4809 53.0656 91.6572C53.3626 91.6814 53.8875 91.2601 53.366 91.2187C51.6876 91.0406 49.9922 91.1033 48.3315 91.4051C48.2486 91.4051 47.8619 91.602 48.0242 91.7504C48.4662 92.1579 49.8405 91.785 50.3481 91.7263C51.8342 91.5571 53.3106 91.3117 54.7714 90.9908L54.6678 90.604C52.4993 91.1185 50.279 91.4189 48.107 91.9438C47.7617 92.0301 47.6443 92.3892 48.107 92.3513C49.913 92.2028 51.7707 91.4259 53.5836 91.5709L53.3764 91.343C53.4489 91.2428 53.587 91.343 53.4144 91.3153C53.2417 91.2877 53.0311 91.4466 52.9171 91.4846C52.2645 91.7194 51.6084 91.9369 50.9558 92.1752C49.7403 92.6068 48.4938 93.3181 47.192 93.4286L47.3785 93.7739C48.3142 93.18 49.6782 93.3043 50.7245 92.9107C50.8315 92.8692 51.0939 92.6655 50.8764 92.5654C50.5311 92.3962 50.1133 92.5308 49.7334 92.5654C48.9841 92.6413 46.2459 93.0695 45.7037 92.3444L45.2894 92.7104C47.047 92.5412 48.9116 93.0799 50.6416 92.5377C50.7832 92.4928 51.201 92.1924 50.828 92.1337C49.2949 91.9542 47.6823 91.9922 46.1319 91.8678C45.8384 91.8471 45.3101 92.2615 45.8315 92.3064C47.3841 92.4884 48.9541 92.4628 50.5 92.2304C51.125 92.1199 51.8432 92.0474 52.1091 91.3913C52.114 91.3732 52.1141 91.354 52.1092 91.3358C52.1044 91.3176 52.0948 91.3011 52.0815 91.2877C51.6671 90.7663 50.6036 90.787 50.0097 90.7007C48.8598 90.535 47.5477 90.5384 46.46 90.1033L45.9144 90.5004C47.1989 90.6731 48.4834 91.4707 49.7956 91.1254C49.9234 91.0944 50.3032 90.8872 50.0511 90.7456C49.5504 90.459 48.8253 90.4935 48.2659 90.4003C47.4924 90.2553 46.7086 89.9687 45.9213 90.0067C45.8246 90.0067 45.1789 90.1897 45.4102 90.3761C46.0352 90.8803 47.0228 91.1323 47.7652 91.4466C48.3583 91.7469 49.0393 91.8253 49.6851 91.6676C49.7611 91.6503 50.1651 91.4673 49.9924 91.3223C49.0014 90.4763 46.864 91.7297 45.9938 90.3727L45.3239 90.718C46.3598 91.3119 47.52 92.0716 48.732 92.1717C48.9358 92.1924 49.5504 91.8575 49.1188 91.7435C48.2797 91.5225 47.3923 91.564 46.5428 91.4155C46.2088 91.3068 45.8539 91.2784 45.5069 91.3326C45.0926 91.4604 45.8522 91.3741 45.9075 91.381C46.2528 91.4362 47.1368 91.4017 47.3474 91.8195C47.0504 92.4387 46.7431 92.5723 46.4254 92.2201C46.2777 92.1225 46.1431 92.0065 46.0249 91.8748C45.2445 91.1814 44.5954 90.3533 44.1084 89.43L43.3626 89.6821C43.6319 90.0757 43.6872 90.6869 43.9392 91.122C44.1533 91.488 45.02 92.0888 45.0269 92.4618L45.2583 92.1993C45.7866 92.0129 45.058 91.3603 45.7279 91.854C45.9316 92.006 46.163 92.3616 46.0732 92.6206L46.5117 92.3582C45.6347 92.4721 44.2604 90.9977 44.6609 90.1172L44.0359 90.3761C44.6989 90.5626 45.1305 91.4777 45.3515 92.044L45.9765 91.7297C45.5518 91.6641 44.0739 89.8167 44.4883 89.4818L43.8702 89.6061C44.5166 89.9961 45.0827 90.5059 45.538 91.1082C45.7624 90.9977 45.9834 90.8837 46.2044 90.7629C45.9524 90.604 44.7783 89.5405 45.0097 89.4887C45.3815 89.7392 45.7284 90.0248 46.0456 90.3416L46.3909 90.0446C46.0456 90.1171 45.279 89.5647 44.9613 89.4369C44.7369 89.3506 44.0187 89.6717 44.3432 89.8133C44.6678 89.9549 47.192 91.5398 47.1885 91.5398L47.6305 91.2774C47.2557 91.297 46.8843 91.1966 46.5705 90.9908C46.3944 90.8941 45.6761 91.1531 45.904 91.3361L45.9455 91.3672C46.163 91.5329 46.8743 91.229 46.6637 91.0633L46.6499 91.0357Z" fill="#326E35" fill-opacity="0.41"/>
<path d="M53.7043 91.7813C52.8068 92.0404 51.8882 92.2195 50.9591 92.3165C50.4557 92.3194 49.9538 92.3715 49.4605 92.4719C49.312 92.5168 48.908 92.8172 49.2775 92.8759C51.2319 93.1659 53.5454 92.8448 55.4757 92.4857C55.6241 92.4581 56.1904 92.1404 55.7657 92.061C54.8051 91.9038 53.8302 91.8517 52.8583 91.9056C52.2712 91.9056 51.7395 91.9332 51.2768 92.3165C51.2422 92.3476 51.1766 92.4304 51.2008 92.4822C51.8914 94.0188 56.8534 92.8275 56.2595 91.7606C55.9142 91.1148 53.6041 91.3842 53.1518 91.4152C52.0779 91.5257 50.2098 91.8158 49.4846 92.7481C49.4018 92.8552 49.5054 92.9484 49.6055 92.9657C50.8486 93.2039 52.14 92.6204 53.283 92.1853C54.2498 91.8192 55.7485 91.4498 56.4529 90.6211C56.5427 90.5175 56.4287 90.4173 56.332 90.4001C55.1373 90.2136 53.8355 90.6383 52.6476 90.8144C51.919 90.9215 50.9591 90.8144 50.3065 91.2081C50.0164 91.3842 50.2374 91.5534 50.4929 91.5361C51.6773 91.4118 52.8859 91.2081 54.0634 90.9974C54.495 90.9215 55.2339 90.8455 55.4446 90.3931C55.4826 90.3172 55.486 90.2343 55.3928 90.1963C53.9736 89.63 52.1228 90.1963 50.6621 90.255C50.631 90.3932 50.5965 90.5313 50.5654 90.6659C52.1573 90.3149 53.7732 90.0841 55.3997 89.9753L55.2132 89.6473C54.2567 90.293 52.4853 90.4587 51.888 91.5534C51.774 91.7605 52.0572 91.7882 52.1953 91.7744C53.1824 91.6186 54.1246 91.2524 54.9577 90.7005C55.3203 90.4864 56.294 90.0616 56.3389 89.5541C56.3389 89.3365 56.0281 89.378 55.9004 89.409C54.7263 89.668 53.7906 90.6176 52.6304 90.8938C52.6994 91.0112 52.7685 91.1286 52.8341 91.2391C54.0496 90.6383 56.2319 90.3483 57.0917 89.1949C57.1711 89.0914 57.0917 88.9912 56.9708 88.9774C56.7302 88.9454 56.4856 88.9929 56.2743 89.1125C56.0631 89.2322 55.8966 89.4175 55.8003 89.6404C55.6932 89.851 55.966 89.8683 56.1076 89.8614C56.6877 89.8303 56.9846 89.4125 57.2333 88.9187C57.4059 88.5734 56.6462 88.7219 56.5116 88.9014C55.9936 89.592 55.6621 90.4208 55.1511 91.1321H55.8728C56.1387 90.6176 56.8465 89.2709 57.3852 89.0016L56.8465 88.9463C57.033 89.9822 55.9694 91.0768 55.3583 91.8158L56.1041 91.7778C56.2975 91.0458 56.8707 89.706 57.5337 89.226L56.9363 89.264C57.3058 89.8407 56.6117 91.3703 56.2457 91.8331H56.9674C57.0813 91.6121 57.1918 91.3876 57.3127 91.1632C57.4543 90.8697 56.9398 90.9353 56.7982 90.9974C55.707 91.4705 54.7264 92.1853 53.5351 92.4339L53.9736 92.5237C53.7699 92.0368 57.292 90.3897 57.3576 90.3655L56.8949 90.1411C56.4128 90.5467 55.8897 90.9008 55.3341 91.1977C55.1888 91.3579 55.0035 91.4766 54.7971 91.5415C54.5908 91.6064 54.3709 91.6153 54.1601 91.5672C54.437 91.2465 54.7736 90.9826 55.1511 90.7902C55.6103 90.5244 54.9163 90.4449 54.6711 90.5623C53.9574 90.9414 53.2049 91.2424 52.4266 91.4601C51.6704 91.657 51.2215 91.7157 52.1297 91.5603C53.4315 91.3324 54.678 90.8075 56.0005 90.7074V90.2999C54.6256 90.7101 53.2237 91.024 51.8051 91.2391C51.3044 91.2875 50.1338 91.4636 51.1386 91.1286C51.484 91.0147 51.8293 90.9387 52.1746 90.8559C53.359 90.5831 54.5641 90.4311 55.745 90.1652C55.6483 90.0617 55.5516 89.9581 55.4515 89.8579C54.6595 90.2269 53.8084 90.4525 52.9377 90.5244C52.3507 90.6072 51.2768 90.918 50.7208 90.6245L50.5654 90.9698C51.3044 90.6797 52.2574 90.7868 53.0413 90.6763C53.9701 90.5451 54.8852 90.331 55.8279 90.4001L55.6207 90.1721C55.0786 91.1908 52.582 91.7571 51.5841 92.0644C51.1386 92.1991 50.6897 92.2578 50.3755 92.6204C50.2857 92.7205 50.3997 92.8241 50.4964 92.8379C51.7844 93.052 53.0067 92.6135 54.2774 92.4512C54.2429 92.3268 54.2084 92.2025 54.1773 92.0782C52.7961 92.6031 51.1283 92.724 49.6884 92.7136C49.4984 92.7136 48.8596 93.0831 49.3016 93.1452C50.2088 93.273 51.1293 93.273 52.0364 93.1452L51.85 92.7999C51.2587 92.9946 50.6388 93.088 50.0164 93.0762C49.823 93.0762 49.1877 93.4491 49.6262 93.5043C51.173 93.6872 52.7403 93.4411 54.1566 92.793C54.9853 92.4477 56.7533 91.7122 56.9363 90.6832C57.0019 90.3379 56.2871 90.6141 56.1904 90.7212L56.0074 90.9318C55.7864 91.177 56.5599 91.1355 56.7257 90.9318L56.9121 90.7246L56.1628 90.7661C56.0178 91.5741 54.4777 92.1887 53.8493 92.4615C52.6797 93.0036 51.3837 93.2138 50.1027 93.0692L49.7125 93.5009C50.6109 93.5424 51.5067 93.3758 52.3299 93.014C52.6338 92.8586 52.3886 92.6514 52.1435 92.6687C51.3575 92.7757 50.5607 92.7757 49.7747 92.6687C49.6469 92.8137 49.5157 92.9553 49.388 93.0969C51.073 93.0969 52.91 92.9484 54.495 92.3407C54.8403 92.2094 54.7471 91.9228 54.3949 91.9677C53.611 92.0679 52.841 92.2578 52.0571 92.3821C50.6759 92.5996 51.4874 92.4926 51.7775 92.3821C52.1228 92.2336 52.5129 92.1369 52.8755 92.0092C53.9321 91.6362 55.7795 91.2253 56.3527 90.1411C56.4391 89.9822 56.2837 89.9235 56.1456 89.9132C55.0613 89.8372 54.0185 90.0858 52.9515 90.2274C52.0606 90.3448 51.1145 90.2757 50.2754 90.6038C50.1545 90.6521 49.9094 90.842 50.12 90.9491C50.8866 91.3496 52.0503 91.0147 52.8479 90.9007C53.9273 90.7999 54.9798 90.5063 55.9556 90.034C56.3458 89.8268 55.8935 89.6887 55.6656 89.7267C54.8645 89.9063 49.7125 90.3483 49.8507 91.5016C49.8507 91.5637 49.9543 91.6017 50.0026 91.6086C52.0123 91.9954 54.1911 91.1735 56.1214 90.7074C56.4667 90.6211 56.5841 90.2688 56.1214 90.2999C54.8956 90.3932 53.6801 90.7799 52.4957 91.0769C51.9052 91.2253 51.0972 91.3324 50.7277 91.8676C50.6552 91.9712 50.7277 92.0713 50.852 92.0851C52.2747 92.2509 53.9598 91.4498 55.1649 90.811L54.6849 90.5831C54.2326 90.8455 52.658 91.8192 53.5523 92.2889C53.9563 92.4995 55.0406 91.8814 55.3479 91.7191C56.1318 91.3349 56.8649 90.8547 57.5302 90.2896C57.8479 89.9995 57.2125 90.0133 57.0675 90.0686C56.5979 90.2412 52.8617 91.909 53.2139 92.7516C53.2795 92.9104 53.5247 92.869 53.6524 92.8414C54.9128 92.5755 55.9522 91.8434 57.1055 91.3358L56.591 91.1666C56.4874 91.3945 56.3769 91.6155 56.2457 91.8365C56.0696 92.1818 56.8327 92.0299 56.9674 91.8365C57.4474 91.1977 58.1345 89.7232 57.6373 88.9463C57.5371 88.7875 57.1435 88.9083 57.0364 88.9809C56.1732 89.5851 55.5793 90.8558 55.3099 91.8607C55.2201 92.206 55.9625 91.9332 56.0558 91.8192C56.7464 90.994 57.8065 89.8821 57.5993 88.7115C57.5648 88.5181 57.1538 88.6114 57.0606 88.6563C56.2112 89.0844 55.5482 90.2827 55.1304 91.0941C54.9543 91.4394 55.7208 91.2944 55.852 91.0941C56.3631 90.4035 56.6911 89.5679 57.2125 88.8669L56.4909 88.8496C56.413 89.0379 56.3134 89.2164 56.1939 89.3814C56.294 89.4574 56.3976 89.5299 56.5012 89.6024C56.7982 89.0223 54.9266 89.9028 54.792 89.9477C54.0323 90.2654 53.2484 90.4933 52.5095 90.8593C52.102 91.0596 52.3472 91.3013 52.7132 91.2046C53.8769 90.9249 54.8161 89.9788 55.9833 89.7198L55.5447 89.5748C55.4998 90.3068 52.6891 91.2322 52.3092 91.2702L52.6165 91.4947C53.1483 90.514 54.83 90.3897 55.7001 89.7992C55.9798 89.6093 55.7726 89.4539 55.5136 89.4539C53.8161 89.5701 52.1298 89.8136 50.4688 90.1825C50.227 90.2412 49.9404 90.6176 50.3686 90.5969C51.0316 90.5658 51.6842 90.4657 52.3438 90.4035C52.8923 90.3348 53.4459 90.3163 53.9978 90.3482C54.2187 90.3759 54.6159 90.2723 54.2429 90.4553C53.8719 90.5651 53.4869 90.621 53.1 90.6211C52.2678 90.7385 51.4356 90.9215 50.6 91.0112L50.7864 91.3566C51.0868 91.1735 52.216 91.2081 52.544 91.1632C53.2761 91.0561 54.0288 90.8835 54.7678 90.8351C55.1131 90.8144 55.4066 90.6141 55.0371 90.9215C54.7592 91.0922 54.4596 91.2245 54.1463 91.3151C53.2149 91.7613 52.2392 92.1086 51.2353 92.351C50.4826 92.4995 50.5792 92.3924 51.2353 92.1576C51.7476 91.9702 52.2792 91.8404 52.8203 91.7709C52.9722 91.7536 55.2823 91.5188 55.4342 91.8676C55.5862 92.2164 54.4467 92.5306 54.2533 92.5582C53.7637 92.6643 53.2579 92.6726 52.765 92.5824C52.765 92.4615 52.765 92.3441 52.765 92.2371C53.2208 92.0437 54.8369 92.2854 55.2892 92.3786L55.5793 91.9574C53.763 92.3027 51.5772 92.6273 49.7471 92.3545L49.5606 92.7585C50.1373 92.5824 50.8866 92.6514 51.4874 92.5686C52.271 92.4588 53.0454 92.2915 53.8044 92.0679C54.2636 91.9367 54.1497 91.5465 53.7008 91.6811L53.7043 91.7813Z" fill="#326E35" fill-opacity="0.41"/>
<path d="M40.8624 79.7581C41.4839 79.8721 42.1297 80.4694 42.7581 80.649C43.5786 80.8596 44.4165 80.9948 45.2616 81.053C47.0054 81.2187 48.7802 81.0047 50.5309 81.0737C52.0123 81.129 53.5558 81.3707 55.0199 81.0737C56.1007 80.8596 57.7029 80.8873 58.6421 80.2588C59.091 79.9584 58.4004 79.9135 58.1621 80.0309L57.9619 80.1345C57.4992 80.3693 58.1863 80.4798 58.4418 80.3624L58.6421 80.2588L58.1621 80.0309C57.7719 80.2899 57.1642 80.2243 56.7291 80.2968C55.9039 80.4314 55.1027 80.6939 54.2637 80.756C52.8099 80.8596 51.3389 80.6214 49.8852 80.6179C48.283 80.6179 46.6635 80.7353 45.0717 80.5419C44.2606 80.4909 43.462 80.3174 42.7029 80.0274C42.1677 79.7857 41.9087 79.437 41.3217 79.3368C41.0765 79.2919 40.4135 79.6821 40.8486 79.7581H40.8624Z" fill="#326E35" fill-opacity="0.41"/>
<path d="M41.7359 82.8001C44.5847 84.2815 48.3658 83.8982 51.4735 84.0812C52.9597 84.1372 54.4478 84.04 55.9141 83.7911C56.9224 83.653 57.986 83.6979 58.9148 83.2387C59.236 83.0833 59.1807 82.8346 58.8147 82.8657L58.5177 82.8934C58.3796 82.8934 58.1068 82.9935 58.0757 83.1558V83.2525C58.017 83.546 58.7974 83.4217 58.8492 83.1558V83.0591L58.4107 83.3215L58.7111 83.2939C58.6766 83.1696 58.642 83.0453 58.611 82.921C57.8824 83.2663 56.8188 83.2421 56.0212 83.363C54.6205 83.6061 53.1979 83.6998 51.7774 83.6427C48.7698 83.4666 45.0957 83.8533 42.3506 82.4272C42.1261 82.3098 41.4183 82.6378 41.7359 82.8001Z" fill="#326E35" fill-opacity="0.41"/>
<path d="M41.6186 85.9871C42.9474 86.7968 44.4597 87.2565 46.0143 87.3235C47.6545 87.4132 49.3189 87.4996 50.966 87.5652C52.5254 87.6408 54.0885 87.5691 55.6345 87.3511C56.6013 87.2061 57.8237 87.1992 58.649 86.6605C58.8044 86.5569 58.87 86.3946 58.649 86.3152L58.5661 86.2945C58.321 86.2289 57.658 86.5983 58.0931 86.7157L58.1759 86.7365V86.405C57.5475 86.8262 56.2319 86.8746 55.4722 86.9644C53.8681 87.1582 52.2487 87.1917 50.6379 87.0645C47.7788 86.8262 44.7678 87.1646 42.2401 85.6039C42.026 85.4692 41.3113 85.7834 41.6255 85.9768L41.6186 85.9871Z" fill="#326E35" fill-opacity="0.41"/>
<path d="M73.6278 18.8426C73.7003 18.9013 77.7024 15.5069 78.0822 15.1858C78.5657 14.7784 79.0284 14.3467 79.498 13.9255C79.7363 13.7114 80.1886 13.114 80.4476 13.0553C80.931 12.9517 80.8481 13.2038 81.1382 13.663C81.4283 14.1223 81.6665 14.4607 81.9428 14.8543C82.1707 15.1824 82.9096 16.0111 82.7819 16.3909L82.9407 16.4842C82.6478 16.5042 82.3568 16.5469 82.0705 16.6119C81.1796 16.8018 80.306 17.1092 79.4359 17.3716C77.4331 17.9724 75.3405 18.9151 73.2446 19.036C72.9718 19.0532 72.5539 19.471 73.0408 19.471H73.3861C73.6762 19.471 74.2079 19.0325 73.6865 19.0325H73.3412C73.2722 19.1775 73.2066 19.3226 73.1375 19.4641C75.7756 19.3122 78.4137 18.0829 80.931 17.3474C81.6216 17.1402 82.4918 17.1195 83.1513 16.8536C83.2791 16.7984 83.4276 16.788 83.4966 16.6568C83.8696 16.0905 82.9545 14.9924 82.6472 14.5539C82.2639 14.0014 81.7321 12.5132 81.076 12.3198C80.4821 12.1437 79.94 12.8343 79.5912 13.1623C77.4538 15.1824 74.9987 16.8329 72.8923 18.8806C72.844 18.9255 72.7646 19.0325 72.8405 19.0947L72.9061 19.1465C73.1168 19.3191 73.835 19.0152 73.6244 18.8426H73.6278Z" fill="#326E35" fill-opacity="0.41"/>
<path d="M16.6008 24.7269C16.6181 24.979 16.6008 24.9272 16.7769 25.1067L17.4434 24.7614C16.4385 24.1157 15.3715 23.6081 14.3909 22.9037C13.5518 22.3029 12.7196 21.6882 11.8598 21.1116C11 20.5349 10.1126 20.0515 9.22167 19.5577C8.83148 19.3402 8.25137 19.3091 8.46545 18.6944C8.53452 18.4907 9.308 18.1005 9.47375 17.9831C10.4146 17.2656 11.4484 16.6789 12.547 16.2393C13.2376 16.0045 13.2824 16.3291 13.6761 16.9299C14.0043 17.4496 14.2929 17.9933 14.5394 18.5563C15.4751 20.5902 15.9206 22.7794 16.8633 24.8098C16.9841 25.0688 17.6609 24.8857 17.6367 24.5991V24.5163C17.616 24.2642 16.8391 24.4299 16.8598 24.7234V24.8098L17.6333 24.5991C17.0083 23.2421 16.6354 21.8367 16.1416 20.4555C15.6144 19.0219 14.9663 17.6357 14.2044 16.3118C13.9005 15.7628 13.7452 15.3864 13.0615 15.5211C12.4917 15.6316 11.8632 16.1323 11.3556 16.3913C10.7341 16.7124 10.1091 17.0301 9.51864 17.4065C8.99032 17.7518 7.59874 18.3422 7.52968 19.0259C7.46408 19.6337 8.79695 20.0618 9.16988 20.2828C10.6512 21.1382 12.0851 22.073 13.4655 23.0833C14.5463 23.8636 15.7134 24.4472 16.8253 25.1551C16.991 25.2656 17.7023 25.0342 17.4917 24.8098C17.4503 24.7165 17.4123 24.6233 17.3709 24.5266C17.3709 24.278 16.5801 24.4368 16.5974 24.7338L16.6008 24.7269Z" fill="#326E35" fill-opacity="0.41"/>
<path d="M12.7166 51.5469C9.41546 52.6726 6.0004 52.3273 2.61988 52.9764C2.05358 53.0869 0.485898 53.1215 0.106063 53.667C-0.118384 53.9916 0.0611768 54.0952 0.206205 54.3784C0.551509 55.069 1.02457 55.6698 1.29045 56.4502C1.55634 57.2306 1.58742 58.2665 2.5888 58.1767C3.52458 58.0973 4.60883 57.0994 5.35123 56.5814C6.75317 55.5835 8.24143 54.734 9.65718 53.7603C10.3797 53.2392 11.1579 52.8003 11.9776 52.4516C12.3735 52.3253 12.7491 52.1427 13.093 51.9095C13.4383 51.6436 12.6682 51.6298 12.4714 51.7817C11.7808 52.3066 10.6758 52.5586 9.92306 53.0351C8.90441 53.6774 7.85123 54.3093 6.86711 54.9861C5.883 55.6629 4.9714 56.3397 3.99073 56.9405C3.47623 57.2582 2.86504 57.79 2.32982 57.1201C2.0156 56.7264 1.89819 55.7389 1.70482 55.252C1.54899 54.8985 1.35566 54.5628 1.12816 54.2506C0.717249 53.6325 0.941699 53.7396 1.58396 53.5945C2.91185 53.298 4.25995 53.1006 5.61711 53.0041C8.11021 52.8245 10.4514 52.7244 12.834 51.9095C13.2829 51.7575 13.1793 51.3673 12.7304 51.5227L12.7166 51.5469Z" fill="#326E35" fill-opacity="0.41"/>
<path d="M85.7002 48.9636H84.9647L84.6643 49.4021C87.2264 49.3642 89.7782 49.1604 92.3335 48.9394C92.9758 48.8842 93.6215 48.8359 94.2603 48.7392C94.7714 48.6632 94.982 48.4353 95.0372 48.9084C95.0752 49.226 94.7852 49.927 94.6919 50.2481C94.4532 50.966 94.1647 51.6663 93.8287 52.3441C93.5895 52.8925 93.2808 53.4078 92.9102 53.8773C92.5648 54.3124 92.5821 54.3538 92.1712 54.0189C91.3632 53.3628 90.5586 52.6929 89.6954 52.099C88.9329 51.5085 88.1246 50.9797 87.2782 50.5175C86.5876 50.1929 85.2064 49.8269 84.7817 49.0983L84.243 49.4194L84.6229 49.4021C84.9095 49.4021 85.4412 48.936 84.9267 48.9636L84.5434 48.9809C84.4537 48.9809 83.8908 49.0983 84.0082 49.3055C84.6678 50.476 86.7258 50.8524 87.7548 51.5879C88.511 52.1301 89.2914 52.6446 90.0476 53.2039C90.5079 53.5207 90.9473 53.8667 91.3632 54.2399C91.5531 54.4229 91.6774 54.7095 91.9191 54.8372C92.7237 55.2689 93.3003 54.3642 93.6871 53.8013C94.8439 52.1887 95.4136 50.2516 95.9972 48.3766C96.0014 48.3584 96.0011 48.3394 95.9963 48.3213C95.9915 48.3033 95.9823 48.2867 95.9696 48.273C95.7071 48.0278 95.5379 48.0624 95.1857 48.1107C94.1878 48.2488 93.2071 48.456 92.1919 48.532C89.7748 48.7392 87.3784 48.9291 84.9405 48.9636C84.6574 48.9636 84.1187 49.4021 84.6401 49.4021H85.3756C85.6657 49.4021 86.1975 48.9636 85.676 48.9636H85.7002Z" fill="#326E35" fill-opacity="0.41"/>
<path d="M18.1966 74.1882L18.2588 74.1226L17.6407 73.9983C15.798 75.8661 14.128 77.8967 12.651 80.0653C12.361 80.49 11.698 81.1012 12.1365 81.557C12.4818 81.9023 13.352 81.8712 13.8009 81.9023C14.7505 81.9921 15.7104 82.327 16.6497 82.3754C16.8141 82.4135 16.9863 82.4009 17.1435 82.3393C17.3007 82.2776 17.4355 82.1698 17.5302 82.0301C17.7546 81.6848 17.6994 80.9527 17.7305 80.5694C17.7892 79.9237 17.7961 79.2745 17.8444 78.6288C17.8997 77.9037 17.9618 77.182 18.0447 76.4603C18.1276 75.7386 18.0654 75.0135 18.39 74.423L17.6441 74.461V74.5473C17.62 74.8581 18.3969 74.7096 18.4176 74.4506V74.3643C18.4418 74.0432 17.7615 74.2331 17.6683 74.4057C17.3023 75.0964 17.3472 75.787 17.2816 76.557C17.1987 77.4997 17.0779 78.4389 17.0261 79.385C17.0261 79.7649 17.1227 81.6537 16.8534 81.8574C16.5841 82.0611 15.0129 81.5432 14.7401 81.5121C14.3292 81.4638 13.7767 81.5501 13.4004 81.3878C12.7097 81.0874 12.8893 80.7973 13.2484 80.2656C13.5316 79.8443 13.8251 79.4311 14.1289 79.0259C15.3914 77.2914 16.7761 75.6493 18.2726 74.1122C18.5903 73.7946 17.834 73.8049 17.6545 73.9879L17.5889 74.0501C17.2677 74.3678 18.0274 74.3574 18.2104 74.1778L18.1966 74.1882Z" fill="#326E35" fill-opacity="0.41"/>
<path d="M78.383 66.8088C79.0564 68.0899 80.3996 68.8806 81.7049 69.4089C82.4335 69.7059 83.1931 69.9234 83.9424 70.1582C84.5812 70.362 85.8105 70.5588 86.3043 71.0802L86.4252 70.8143C86.2387 70.9386 85.8727 70.8834 85.6448 70.987C85.2926 71.1876 84.9838 71.4564 84.7366 71.7777C84.2325 72.3198 81.6289 74.9821 81.0108 74.3606C80.7484 74.0947 80.814 72.9621 80.6655 72.5719C80.3685 71.8191 80.0232 71.1113 79.7711 70.3378C79.4962 69.6251 79.2915 68.8872 79.1599 68.1347C79.1012 67.6444 79.1945 67.2266 78.8803 66.8088C78.7214 66.6016 77.9756 66.864 78.162 67.1126C78.4245 67.458 78.3554 67.824 78.3865 68.2211C78.4407 68.7237 78.5566 69.2178 78.7318 69.6921C78.9813 70.5335 79.2753 71.361 79.6123 72.1714C79.8229 72.5728 79.9907 72.9952 80.113 73.4317C80.1924 73.8115 80.037 74.3295 80.1855 74.6713C80.334 75.0132 80.3513 75.0581 80.7484 75.0685C81.7566 75.0926 83.2277 73.8771 83.9701 73.3108C84.5847 72.8378 84.9852 72.1714 85.5792 71.6914C86.0142 71.3461 86.477 71.3461 86.9189 71.0457C86.9949 70.9939 87.1296 70.8765 87.0364 70.7763C86.3699 70.0857 84.8955 69.8889 83.9908 69.6023C82.2401 69.0463 80.0854 68.3454 79.1565 66.6016C79.0184 66.3392 78.2691 66.6016 78.383 66.8088Z" fill="#326E35" fill-opacity="0.41"/>
<path d="M25.0439 39.3918C25.6068 42.1542 26.2214 44.8856 26.9293 47.6066C27.2746 48.9015 27.6406 50.186 27.9859 51.4809C28.2173 52.3442 28.4072 53.5148 29.0219 54.2088C29.1427 54.3504 29.6123 54.2088 29.5916 54.0154C29.5546 53.6928 29.4357 53.3849 29.2463 53.1211C29.1358 52.9553 28.5557 53.1487 28.6938 53.3525C28.8713 53.5928 28.9799 53.8769 29.008 54.1743L29.5778 53.9775C28.9217 53.2247 28.7594 51.9056 28.5074 50.9871C28.1621 49.6819 27.7753 48.3801 27.4369 47.0679C26.7739 44.4712 26.1869 41.8573 25.6482 39.233C25.6068 39.0292 25.0129 39.1743 25.0577 39.3918H25.0439Z" fill="#326E35" fill-opacity="0.41"/>
<path d="M24.7608 35.9073C24.6087 35.942 24.4749 36.0318 24.385 36.1593C24.2951 36.2868 24.2555 36.443 24.2739 36.5979C24.273 36.7683 24.3218 36.9352 24.4144 37.0781C24.5071 37.2211 24.6395 37.3338 24.7954 37.4025C24.8847 37.4326 24.9808 37.4355 25.0718 37.4109C25.1628 37.3864 25.2444 37.3353 25.3064 37.2644C25.5308 36.9674 25.7933 36.4253 25.6517 36.0489C25.4652 35.5206 24.6158 35.8037 24.6745 36.3148C24.6745 36.5082 25.2857 36.3839 25.2684 36.156C25.265 36.1215 25.265 36.0868 25.2684 36.0524L24.9231 36.0731C25.3375 36.2354 24.9231 37.0261 24.7505 37.2506L25.2615 37.1159C25.1633 37.0738 25.0771 37.0079 25.0107 36.9241C24.9444 36.8403 24.9001 36.7412 24.8817 36.6359C24.8679 36.5467 24.8679 36.4558 24.8817 36.3666C24.8817 36.3286 24.8817 36.2906 24.8817 36.2561C24.8817 36.149 24.9853 36.1629 24.8299 36.2043C24.9162 36.1801 25.1199 36.1007 25.0854 35.9764C25.0509 35.8521 24.8299 35.8866 24.7401 35.9073H24.7608Z" fill="#326E35" fill-opacity="0.41"/>
<path d="M31.9191 38.0829C31.6256 38.7182 31.8501 38.9634 32.0573 39.5815C32.299 40.2997 32.4026 41.1112 32.5683 41.8501C32.9328 43.3939 33.2164 44.9556 33.4178 46.529C33.6077 48.0103 33.7631 49.4883 33.9323 50.9731C34.0462 52.0919 34.1912 53.4282 34.7955 54.4054C34.8922 54.5608 35.3377 54.4054 35.3687 54.25C35.4195 53.9489 35.4322 53.6426 35.4067 53.3384C35.4067 53.1485 34.8024 53.2693 34.8128 53.4972C34.8364 53.774 34.8236 54.0526 34.7748 54.326L35.348 54.174C34.7299 53.1796 34.6194 51.7569 34.5055 50.6312C34.3674 49.2051 34.1947 47.7894 34.0117 46.3667C33.8465 44.985 33.6068 43.6133 33.2935 42.2576C33.1277 41.567 32.9689 40.8764 32.8169 40.1858C32.6512 39.4434 32.1678 38.7666 32.5131 38.0138C32.5925 37.8377 32.0055 37.8964 31.9191 38.0898V38.0829Z" fill="#326E35" fill-opacity="0.41"/>
<path d="M32.0986 37.8517C33.2899 37.8517 34.4743 37.7653 35.6138 38.197C36.5122 38.521 37.3408 39.0132 38.0551 39.6472C39.3223 40.7971 40.0509 43.0554 40.2098 44.7336C40.361 46.8779 39.7182 49.0029 38.4038 50.7039C37.8548 51.4497 37.3127 52.4028 36.5979 53.0036C36.004 53.5043 35.2443 53.525 34.6676 54.0395H35.1994L35.2236 53.9187C35.2685 53.6942 34.6711 53.7909 34.6297 53.9946L34.6089 54.1155C34.5606 54.3572 35.0647 54.1949 35.1407 54.1155C35.5689 53.7322 36.0834 53.7357 36.5496 53.4801C36.8426 53.2984 37.1069 53.0737 37.3334 52.8137C38.0474 52.0156 38.6942 51.1597 39.2671 50.255C40.4898 48.4781 41.0204 46.3153 40.7588 44.1742C40.486 42.2888 39.6642 40.1445 38.1034 38.9946C36.3113 37.6618 34.4915 37.496 32.3299 37.5167C32.1089 37.5167 31.7015 37.862 32.0986 37.862V37.8517Z" fill="#326E35" fill-opacity="0.41"/>
<path d="M48.6076 38.7805C47.2264 38.6631 45.8866 38.6631 44.5123 38.5871C44.0461 38.5629 43.2243 38.3868 42.8721 38.8599C42.6822 39.1189 42.7616 39.4607 42.7685 39.7577C42.7892 40.545 42.7374 41.3357 42.7685 42.123C42.8583 43.632 42.9377 45.1203 42.9584 46.6327C42.9791 48.1451 42.7582 49.7232 42.7512 51.277C42.7512 51.9435 42.5302 53.1313 42.9826 53.7252C43.5385 54.4538 44.8887 54.1292 45.6483 54.1292C46.3389 54.1292 47.0503 54.1707 47.7478 54.1603C48.2657 54.1603 48.7492 53.9635 49.2637 53.9462C49.4847 53.9462 49.8921 53.6009 49.495 53.6009C49.1124 53.6316 48.7319 53.6846 48.3555 53.7598C47.7927 53.8064 47.2273 53.8133 46.6635 53.7805C45.8072 53.7805 43.6697 54.1258 43.3831 53.1348C43.1518 52.344 43.3383 51.0629 43.3521 50.2791C43.3762 49.2087 43.5454 48.1486 43.5558 47.0781C43.5765 44.7162 43.3452 42.382 43.3452 40.0236C43.3452 39.5609 43.2277 38.9877 43.8355 38.8737C44.2414 38.8584 44.6478 38.8758 45.051 38.9255C46.1697 38.9255 47.2471 39.0118 48.359 39.1085C48.5869 39.1258 48.9874 38.8046 48.5903 38.7632L48.6076 38.7805Z" fill="#326E35" fill-opacity="0.41"/>
<path d="M42.7684 46.3494C43.5557 46.4185 44.3395 46.6429 45.1372 46.6947C45.9348 46.7465 46.8153 46.6947 47.651 46.6947C47.8754 46.6947 48.2829 46.3494 47.8823 46.3494C47.0009 46.3874 46.118 46.3805 45.2373 46.3287C44.4811 46.2596 43.749 46.0559 42.9997 45.9834C42.7718 45.9627 42.3713 46.2838 42.7684 46.3287V46.3494Z" fill="#326E35" fill-opacity="0.41"/>
<path d="M52.5543 51.4222C52.464 51.5308 52.3917 51.6532 52.3402 51.7847L52.9341 51.7122C53.1102 49.1259 52.9341 46.4843 52.9341 43.8945C52.9341 42.3717 52.8754 40.8455 52.9341 39.3227C52.9548 38.6894 53.0101 38.0577 53.0999 37.4304C53.1184 37.1411 53.1705 36.8548 53.2553 36.5775C53.4037 36.3289 53.1724 36.3911 53.4106 36.5775C53.8216 36.878 54.1496 37.648 54.4189 38.0762C54.8264 38.7357 55.2131 39.409 55.5895 40.0893C56.2042 41.2081 56.7774 42.3476 57.3609 43.4871C57.9445 44.6266 58.5591 45.8282 59.1116 47.023C59.5881 48.0589 59.9749 49.1259 60.6137 50.0582L61.1662 49.8269L61.0522 49.6991C60.9141 49.5472 60.3616 49.7578 60.4997 49.9304L60.6137 50.0582C60.7449 50.2032 61.3043 50.0306 61.1662 49.8269C60.3029 48.5665 59.8022 47.0333 59.1323 45.6625C58.4624 44.2916 57.7511 42.9 57.0363 41.543C56.4148 40.3413 55.7725 39.1501 55.0646 38.0002C54.7193 37.4477 54.0874 35.8766 53.276 35.9698C52.5854 36.0458 52.5854 37.0057 52.5094 37.5168C52.3357 38.9185 52.2756 40.3319 52.3298 41.7433C52.3471 43.3041 52.3298 44.851 52.3298 46.4256C52.3298 48.2074 52.4369 50.0202 52.3298 51.7985C52.3298 52.0679 52.8512 51.878 52.9238 51.726L53.0964 51.4498C53.2587 51.2391 52.6648 51.284 52.5439 51.4498L52.5543 51.4222Z" fill="#326E35" fill-opacity="0.41"/>
<path d="M52.3539 45.6279C53.4623 45.6097 54.5669 45.4942 55.6551 45.2826C56.0625 45.2066 56.4665 45.1237 56.8705 45.0339C57.3332 44.9269 58.0549 44.554 58.5038 44.5367C58.7214 44.5367 59.1323 44.1914 58.7352 44.1914C57.9548 44.2225 57.2434 44.6334 56.4803 44.7922C55.2009 45.0805 53.8963 45.2424 52.5853 45.2757C52.3643 45.2757 51.9568 45.621 52.3539 45.621V45.6279Z" fill="#326E35" fill-opacity="0.41"/>
<path d="M69.36 37.9693C68.2274 36.1634 66.4283 35.1482 64.4843 35.3312C62.889 35.4831 61.0589 36.5916 61.0312 38.6668C60.9898 41.5329 63.6556 42.7104 65.5202 43.6703C67.1811 44.5267 68.8317 45.6662 69.032 47.9659C69.2944 50.9459 66.9256 53.2594 64.3703 52.2338C64.1355 52.1372 63.5969 52.3961 64.025 52.5792C67.409 53.9397 71.3593 50.162 69.177 46.084C67.9788 43.8361 65.5064 43.4389 63.7005 42.1302C62.188 41.0322 60.9726 38.8775 62.3192 37.0059C64.0941 34.5301 67.3158 35.8768 68.7005 38.0867C68.8351 38.3008 69.4981 38.1972 69.3669 37.9831L69.36 37.9693Z" fill="#326E35" fill-opacity="0.41"/>
<path d="M44.1601 9.21573C43.6007 8.84626 43.3417 7.48921 43.0758 6.89529C42.6856 6.03893 42.2333 5.21711 41.7671 4.40219C41.3355 3.64943 40.8866 2.90702 40.4722 2.14735C39.9922 1.27028 40.7139 1.45675 41.37 1.28755C41.8534 1.16324 43.1483 0.386306 43.5005 0.541693C43.9322 0.735063 43.8769 2.07829 43.8907 2.43741C43.9736 4.77167 43.6421 7.08175 43.5903 9.4091L44.3638 9.25717V9.17084C44.3638 8.93258 43.5903 9.07761 43.5903 9.37803V9.46435C43.5903 9.69916 44.3603 9.55758 44.3638 9.31242C44.426 6.57761 45.0061 3.72886 44.5641 1.00095C44.4881 0.52098 44.4536 0.106606 43.9563 0.00992126C43.6801 -0.0453274 43.4349 0.144599 43.1967 0.224019C42.4032 0.548585 41.5844 0.807283 40.7485 0.997497C40.3479 1.07001 39.5951 1.04929 39.4294 1.55343C39.2636 2.05758 40.0751 3.02443 40.2823 3.387C41.1489 4.77445 41.914 6.22276 42.5717 7.72057C42.8341 8.37665 42.917 9.1743 43.542 9.58867C43.7526 9.73024 44.4674 9.41946 44.1601 9.21573Z" fill="#326E35" fill-opacity="0.41"/>
</svg>
