<svg xmlns="http://www.w3.org/2000/svg" viewBox="0 0 35 36.95"><defs><style>.cls-1{fill:#3a7f3d;}.cls-1,.cls-2,.cls-3,.cls-4,.cls-5{stroke:#010101;stroke-miterlimit:10;}.cls-1,.cls-2,.cls-3{stroke-width:0.5px;}.cls-2{fill:#31ab4a;}.cls-3{fill:#fff;}.cls-4{fill:#010101;}.cls-4,.cls-5{stroke-width:0.25px;}.cls-5{fill:#f68622;}</style></defs><g id="Layer_2" data-name="Layer 2"><g id="Layer_1-2" data-name="Layer 1"><path class="cls-1" d="M32.81,9.39h0L31.1,6.25A6.73,6.73,0,0,1,28,7h0A6.75,6.75,0,0,1,21.27.25H13.79A6.75,6.75,0,0,1,7,7H7a6.8,6.8,0,0,1-3.13-.77L.33,12.76a6.73,6.73,0,0,1,3.23,5.75h0A6.74,6.74,0,0,1,.39,24.23l1.9,3.47S12,15.43,32.81,9.39Z"/><path class="cls-2" d="M7.06,29.93h0a6.75,6.75,0,0,1,6.75,6.75h0v0h7.46A6.75,6.75,0,0,1,28,30h0a6.75,6.75,0,0,1,3.12.76l3.53-6.46a6.76,6.76,0,0,1-3.19-5.74h0a6.71,6.71,0,0,1,3.19-5.73L32.81,9.39h0C12,15.43,2.29,27.7,2.29,27.7l1.64,3A6.71,6.71,0,0,1,7.06,29.93Z"/><circle class="cls-3" cx="17.51" cy="18.47" r="11.81"/><circle class="cls-4" cx="17.51" cy="18.47" r="9.54"/><path class="cls-5" d="M20.75,17A2.32,2.32,0,0,0,22,14.91v-.86a2.81,2.81,0,0,0-2.52-2.67h-4a2.81,2.81,0,0,0-2.52,2.67v.86A2.33,2.33,0,0,0,14.21,17a4.09,4.09,0,0,0-2.46,3.75v1a4.1,4.1,0,0,0,4.1,4.1h3.33a4.1,4.1,0,0,0,4.1-4.1h0v-1A4.11,4.11,0,0,0,20.75,17Z"/><path class="cls-4" d="M16.6,13.16h1.86a1.43,1.43,0,0,1,1.43,1.43h0A1.43,1.43,0,0,1,18.46,16H16.6a1.43,1.43,0,0,1-1.44-1.44h0a1.43,1.43,0,0,1,1.44-1.43Z"/><path class="cls-4" d="M16,18.74H19a2.31,2.31,0,0,1,2.31,2.31h0A2.3,2.3,0,0,1,19,23.36H16a2.3,2.3,0,0,1-2.31-2.31h0A2.31,2.31,0,0,1,16,18.74Z"/></g></g></svg>