<svg width="55" height="26" viewBox="0 0 55 26" fill="none" xmlns="http://www.w3.org/2000/svg">
<path d="M0.0217483 5.98063C2.07989 9.67904 5.54648 12.6822 8.94861 15.1379C11.7546 17.222 15.2128 18.2494 18.7086 18.0375C25.0963 17.6972 33.7306 15.0787 36.5624 8.66815C39.2107 2.657 30.0656 -2.25942 25.3046 1.08394C23.0878 2.63727 23.8614 6.23703 24.6004 8.36239C26.0287 12.4602 29.4605 15.4288 32.7684 18.0522C36.4536 21.0735 40.722 23.3123 45.3107 24.6305C46.864 25.0578 48.4781 25.2244 50.0866 25.1236C51.0784 25.0891 53.9102 24.734 54.4012 25.9274C54.5153 26.2085 55.0955 25.6019 54.9864 25.3258C54.426 23.9648 51.614 24.3395 50.4833 24.3888C47.7994 24.4421 45.1349 23.9261 42.6673 22.875C39.3723 21.5689 36.293 19.7786 33.5322 17.564C30.6409 15.2858 27.6702 12.8202 25.9444 9.50643C25.1391 7.9764 24.6596 6.29773 24.5359 4.57522C24.4714 3.65308 24.5756 3.66296 25.0914 2.64713C25.7014 1.43898 25.5873 1.42419 26.8172 1.11353C27.6255 0.901999 28.4627 0.82043 29.2969 0.871904C32.1783 1.07901 36.1805 3.14518 36.4483 6.3406C36.7508 9.95025 32.8081 12.8991 30.0011 14.4426C26.6053 16.205 22.8545 17.1858 19.026 17.3125C15.4998 17.5057 12.0219 16.4271 9.23129 14.2749C5.95811 11.8389 2.60558 8.97388 0.606957 5.39875C0.448258 5.11767 -0.117114 5.74392 0.0217483 5.99541V5.98063Z" fill="black" fill-opacity="0.25"/>
</svg>
