<svg width="96" height="243" viewBox="0 0 96 243" fill="none" xmlns="http://www.w3.org/2000/svg">
<path d="M61.7469 25.0702C61.9954 19.0656 61.1122 13.1337 58.4397 7.54593C56.1457 2.73459 50.4452 0.00384262 45.2531 1.8033e-05C28.7669 -0.0229295 26.6717 21.8614 16.1767 30.3022C12.9689 32.88 9.38266 34.9797 6.35076 37.764C-4.8554 48.033 0.191406 67.0451 10.48 76.052C17.6219 82.2975 28.8319 85.8506 37.6256 80.9627C42.2136 78.4156 45.7042 74.1779 48.1894 69.531C51.7145 62.9413 53.9894 55.338 56.4937 48.3122C59.1815 40.8351 61.4143 33.0521 61.7469 25.0702Z" fill="#13375B"/>
<path d="M64.4381 54.1486C59.2881 38.5213 52.4902 38.7661 52.4902 38.7661L57.9844 72.04C61.1616 71.1718 65.3022 69.2366 68.4794 68.3378C67.428 63.3964 65.7151 57.9961 64.4381 54.1486Z" fill="#F7CC7F"/>
<path d="M90.4635 107.452L71.6375 93.0866C71.6375 93.0866 69.7258 79.6814 67.2062 67.7908C64.029 68.6857 61.1616 71.1794 57.9844 72.0475L62.7712 98.6819L87.4469 111.418L94.413 120.375L95.9997 111.196L90.4635 107.452Z" fill="#F48C7F"/>
<path d="M10.2124 218.4C10.2124 218.4 9.06542 226.477 7.05053 229.082C6.38145 229.958 5.13887 231.063 4.35127 232.646C3.09722 235.105 3.78924 238.766 4.71449 240.789C5.18858 241.825 4.68007 241.821 5.76207 242.158C7.31702 242.615 8.98537 242.485 10.4515 241.795C11.9176 241.104 13.0799 239.9 13.7184 238.41C14.6631 236.233 15.1922 233.898 15.2783 231.526C15.6186 224.19 17.8935 220.461 17.8935 220.461L10.2124 218.4Z" fill="#F7A491"/>
<path d="M45.1692 222.094C45.1692 222.094 45.8879 231.2 45.303 234.161C44.9933 235.748 43.2575 239.01 44.0528 240.502C44.848 241.993 45.7579 242.364 45.7579 242.364L66.4039 242.701C67.5279 242.701 66.7862 241.993 65.8763 241.324C64.3928 240.23 63.2 239.507 58.459 237.209C58.1493 237.06 57.0253 236.341 56.62 236.092C55.5184 235.363 54.5237 234.484 53.6646 233.48C52.1849 231.824 52.055 223.804 52.055 223.804L45.1692 222.094Z" fill="#F7A491"/>
<path d="M61.2994 101.022C61.2994 101.022 63.8954 115.808 62.1902 125.5C60.485 135.191 52.2954 225.065 52.2954 225.065L43.1959 225.578C43.1959 225.578 41.2843 188.04 41.6284 182.819C41.9725 177.598 44.687 168.863 44.687 168.863L43.7847 138.553L55.2547 98.7354L61.2994 101.022Z" fill="#355389"/>
<path d="M34.551 97.9094C34.551 97.9094 27.3861 108.725 25.6771 117.675C23.968 126.624 26.9311 154.127 23.6469 165.865C21.8728 172.21 15.1361 182.016 14.1153 190.22C13.0945 198.423 9.07617 219.895 9.07617 219.895L18.1719 221.704L39.311 168.037L55.8928 119.53L60.1443 94.5476L34.551 97.9094Z" fill="#466EB6"/>
<path d="M40.3511 36.3836C40.3511 36.3836 30.8654 35.7793 27.1109 39.8793C23.3564 43.9792 35.4381 76.4309 36.1187 81.6515C36.7992 86.872 32.6395 100.751 32.6395 100.751C32.6395 100.751 54.9294 105.249 61.3144 101.023C61.3144 101.023 61.9949 63.4808 61.3144 59.7519C60.6338 56.0229 54.9447 40.8584 53.576 39.3668C52.2072 37.8752 40.3511 36.3836 40.3511 36.3836Z" fill="#F7CC7F"/>
<path d="M43.5096 23.6932C43.5096 23.6932 43.4599 23.9724 43.372 24.4582C42.9514 26.7529 41.3227 34.3333 40.2216 36.4177C38.8911 38.9419 44.7751 46.9774 50.4375 45.9791C52.1197 45.6846 49.0114 38.5938 49.1605 37.8404C49.4473 36.4024 49.8334 34.4403 50.231 32.4286C50.4566 31.2812 50.6822 30.1339 50.8963 29.0592L51.9936 23.4714L43.5096 23.6932Z" fill="#F7A491"/>
<path d="M43.3717 24.4276C43.4596 23.9534 43.5093 23.6627 43.5093 23.6627L51.9932 23.4485L50.896 29.0477C50.6818 30.1224 50.4563 31.2698 50.2345 32.398C48.7156 32.1263 47.3087 31.4179 46.1856 30.3595C44.7829 29.1231 43.7284 27.5408 43.127 25.77C43.2187 25.2461 43.3067 24.7833 43.3717 24.4276Z" fill="#F47458"/>
<path d="M49.2217 4.33718C49.2217 4.33718 45.2225 3.87442 42.7221 7.12532C40.2216 10.3762 37.5147 20.4272 43.7429 25.8926C49.9711 31.3579 56.1228 25.1697 57.0328 18.6258C57.9427 12.082 58.2945 4.10005 49.2217 4.33718Z" fill="#F7A491"/>
<path d="M58.8676 18.5152C58.1259 19.9647 56.8756 20.7679 56.0804 20.3089C55.2851 19.85 55.2431 18.301 55.9848 16.8668C56.7265 15.4326 57.9768 14.6179 58.772 15.0769C59.5673 15.5358 59.5979 17.0657 58.8676 18.5152Z" fill="#F7A491"/>
<path d="M49.6574 3.26221C49.6574 3.26221 44.3047 12.8237 40.4814 13.2635C36.6581 13.7034 36.1572 18.7824 36.1572 18.7824C36.1572 18.7824 37.5221 7.07919 41.3072 4.82268C45.0923 2.56617 49.6574 3.26221 49.6574 3.26221Z" fill="#13375B"/>
<path d="M14.3376 236.796C9.36727 237.702 6.07921 234.795 4.36636 232.619C3.10466 235.082 2.48911 238.761 3.41817 240.788C4.23254 242.575 6.61831 242.521 8.49556 242.594C10.4837 242.666 12.0207 241.561 13.0033 239.825C13.5495 238.863 13.9966 237.848 14.3376 236.796Z" fill="#F47458"/>
<path d="M56.6085 236.092C51.1488 237.496 47.1152 236.54 44.8594 235.629C44.2782 237.282 43.5059 239.358 43.915 240.552C44.4159 242.016 45.1308 242.349 45.7579 242.364C50.7282 242.498 64.0181 242.674 67.8223 242.724C67.9407 242.724 68.0568 242.691 68.157 242.628C68.2571 242.564 68.3372 242.474 68.3878 242.367C68.4383 242.259 68.4573 242.14 68.4425 242.023C68.4276 241.905 68.3796 241.794 68.304 241.703C67.3597 240.575 57.0137 236.341 56.6085 236.092Z" fill="#F47458"/>
<path d="M41.5061 15.6618C41.8158 17.3599 41.1926 18.9165 40.1106 19.1383C39.0286 19.3602 37.8969 18.1669 37.5872 16.4611C37.2775 14.7554 37.9008 13.2064 38.9828 12.9846C40.0648 12.7628 41.1965 13.9675 41.5061 15.6618Z" fill="#F7A491"/>
<path d="M47.7459 21.5439L52.571 21.7619C52.571 21.7619 52.376 23.5901 50.254 23.5557C47.6618 23.5136 47.7459 21.5439 47.7459 21.5439Z" fill="white"/>
<path d="M74.3676 61.557C74.7079 60.5779 69.9555 59.7901 69.7031 58.8033C69.4508 57.8166 75.7019 57.7362 75.9237 56.868C76.3366 55.2694 69.0723 56.5315 69.2176 55.7819C69.3628 55.0323 76.7877 53.3647 75.9849 52.0796C75.182 50.7946 68.4644 54.6153 68.2617 53.7472C68.0591 52.879 74.8264 50.7564 74.704 48.8441C74.639 47.8229 63.5935 53.9346 62.3126 53.38C61.0318 52.8255 63.6929 48.0256 62.672 47.3142C61.6512 46.6028 58.7225 57.0669 58.0191 57.415C57.3156 57.763 42.3931 66.2842 37.0825 67.6381C36.4364 65.8597 35.0447 63.4616 34.475 61.7788C31.4966 63.8976 29.2829 64.9647 26.209 66.8961C28.438 72.48 31.6075 78.5956 33.1598 79.2993C37.8854 81.4334 56.1609 66.2689 59.8084 63.6758C63.4558 61.0828 65.5434 61.9203 68.0209 61.0981C70.4984 60.2758 74.0235 62.5437 74.3676 61.557Z" fill="#F7A491"/>
<path d="M25.5703 69.5886C25.5703 69.5886 21.4793 51.5174 22.1904 46.2586C22.9016 40.9998 29.126 36.131 33.4425 37.9401C37.759 39.7491 39.7166 64.9991 39.7166 64.9991L25.5703 69.5886Z" fill="#F7CC7F"/>
</svg>
