<svg xmlns="http://www.w3.org/2000/svg" viewBox="0 0 775.1 426.48"><defs><style>.cls-1,.cls-8{fill:#010101;}.cls-1,.cls-4{stroke:#fff;}.cls-1,.cls-2,.cls-3,.cls-4,.cls-5,.cls-6,.cls-8{stroke-miterlimit:10;}.cls-1{stroke-width:17px;}.cls-2,.cls-5{fill:#f68622;}.cls-2,.cls-3,.cls-5,.cls-6,.cls-8{stroke:#010101;}.cls-2,.cls-3,.cls-6{stroke-width:2px;}.cls-3,.cls-4{fill:#3baf49;}.cls-4{stroke-width:9px;}.cls-5,.cls-8{stroke-width:0.25px;}.cls-6{fill:#f8cc19;}.cls-7{fill:#f68522;}.cls-9{fill:#fff;}</style></defs><g id="Layer_2" data-name="Layer 2"><g id="Layer_1-2" data-name="Layer 1"><circle class="cls-1" cx="638.55" cy="289.93" r="128.05"/><rect class="cls-2" x="57.9" y="160.06" width="36.96" height="197.28"/><polygon class="cls-3" points="105.27 222.56 105.27 357.34 130.7 357.34 130.7 285.25 206.05 357.34 206.05 222.56 179.74 222.56 179.74 292.98 105.27 222.56"/><polygon class="cls-3" points="217.18 222.56 217.18 357.34 242.61 357.34 242.61 285.25 317.97 357.34 317.97 222.56 291.65 222.56 291.65 292.98 217.18 222.56"/><polygon class="cls-4" points="440.49 216.02 468.27 216.02 499.31 292.02 530.46 216.02 558.11 216.02 499.3 363.68 440.49 216.02"/><path class="cls-5" d="M682.05,269.7a31.2,31.2,0,0,0,16.67-27.61V230.56c0-17.23-16.57-35.88-33.8-35.88H610.74c-17.23,0-33.8,18.65-33.8,35.88v11.53A31.21,31.21,0,0,0,594.27,270a55,55,0,0,0-33,50.4v12.93a55,55,0,0,0,55,55H661a55,55,0,0,0,55-55h0V320.43A55,55,0,0,0,682.05,269.7Z"/><path class="cls-6" d="M110.06,54.66A41.43,41.43,0,0,0,76.38,36.84s-20.82-.92-33.84,17.82c0,0-10.93,14.58-7.28,32.79,0,0,1,6.77,7.81,18.74,0,0,5.72,12,8.32,20.82,0,0,2.09,6.77,3.13,10.41a49.36,49.36,0,0,1,.52,7.29s.52,6.25,7.81,6.25h27c7.26,0,7.78-6.25,7.78-6.25a49.35,49.35,0,0,1,.51-7.29L101.21,127c2.59-8.85,8.29-20.82,8.29-20.82,6.74-12,7.78-18.74,7.78-18.74C121,69.24,110.06,54.66,110.06,54.66Z"/><polygon class="cls-7" points="74.82 0 78.58 0 78.46 27.59 74.82 27.59 74.82 0"/><polygon class="cls-7" points="125.63 10.99 128.82 12.99 114.08 36.31 110.99 34.38 125.63 10.99"/><polygon class="cls-7" points="154.03 46.4 155.6 49.82 130.49 61.24 128.97 57.93 154.03 46.4"/><polygon class="cls-7" points="155.64 94.08 154.82 97.75 127.92 91.63 128.71 88.08 155.64 94.08"/><polygon class="cls-7" points="30.17 10.99 26.96 12.99 41.78 36.31 44.89 34.38 30.17 10.99"/><polygon class="cls-7" points="1.62 46.4 0.04 49.82 25.28 61.24 26.81 57.93 1.62 46.4"/><polygon class="cls-7" points="0 94.08 0.82 97.75 27.87 91.63 27.07 88.08 0 94.08"/><path class="cls-8" d="M626.32,218.62h24.94a19.26,19.26,0,0,1,19.26,19.26h0a19.26,19.26,0,0,1-19.26,19.26H626.32a19.26,19.26,0,0,1-19.26-19.26h0A19.26,19.26,0,0,1,626.32,218.62Z"/><path class="cls-8" d="M618,293.58h41.12a31,31,0,0,1,31,31h0a31,31,0,0,1-31,31H618a31,31,0,0,1-31-31h0A31,31,0,0,1,618,293.58Z"/><path class="cls-3" d="M422.05,240.2a49.59,49.59,0,0,0-37.55-16.61s-21.78-3.33-39.4,19.93a79.74,79.74,0,0,0-15.76,46.93s1.86,32,17.62,49.42c0,0,14.83,17.44,37.54,17.44,0,0,19.93,1.66,37.55-18.27,0,0,17.61-16.74,17.61-48.66C439.66,290.38,442.44,266,422.05,240.2Zm-6.55,50.18c0,17.92-9.89,27.32-9.89,27.32C395.72,328.9,384.53,328,384.53,328c-12.75,0-21.08-9.79-21.08-9.79-8.85-9.79-9.89-27.75-9.89-27.75a44.78,44.78,0,0,1,8.85-26.35c9.89-13.06,22.12-11.19,22.12-11.19a27.88,27.88,0,0,1,21.08,9.32C417.06,276.66,415.5,290.38,415.5,290.38Z"/><path class="cls-9" d="M52.43,53.62s6.25-4.69,9.89-1c0,0,4.69,4.68,0,8.66,0,0-6.76,4.87-9.36,8.52,0,0-5.11,5.1-6.56,17.94a.63.63,0,0,1-.7.55.65.65,0,0,1-.51-.39,36.61,36.61,0,0,1-2-17,26.85,26.85,0,0,1,1.46-6.56A21.85,21.85,0,0,1,52.43,53.62Z"/></g></g></svg>