<svg width="1440" height="43" viewBox="0 0 1440 43" fill="none" xmlns="http://www.w3.org/2000/svg">
<path d="M892.433 26.8923L892.432 26.8922C844.128 24.5773 796.595 21.3453 749.122 18.0649C746.395 17.8764 743.669 17.6879 740.943 17.4993C696.193 14.4042 651.459 11.3102 606.106 8.94077C469.04 1.77496 326.304 1.34248 189.468 8.77325L189.333 6.27693L189.468 8.77327C122.989 12.3746 55.2722 18.5677 -12.2932 24.981C-19.3542 25.6512 -26.4137 26.3238 -33.4698 26.9962C-93.9172 32.7557 -154.127 38.4926 -213.036 42.4946C-328.766 50.3598 -455.115 53.6425 -567.5 44.0004V49.1777L1505.5 70.8547V36.4021C1357.7 50.4434 1140.35 39.4031 968.951 30.6969C942.177 29.3369 916.524 28.0339 892.433 26.8923Z" fill="white" fill-opacity="0.31" stroke="#FEFAC6" stroke-width="5"/>
<path d="M-226.205 51.7383C-94.7172 42.8058 43.2628 25.2236 176.333 18.015C313.264 10.579 456.089 11.0121 593.237 18.1822C689.518 23.2124 783.003 31.506 879.551 36.1331C1058.96 44.6345 1324.43 62.0496 1495 45.3877V85.119L-583 63.3897V53.012C-470.122 62.9266 -342.812 59.6632 -226.205 51.7383Z" fill="#FEFAC6"/>
</svg>
