<svg width="1440" height="68" viewBox="0 0 1440 68" fill="none" xmlns="http://www.w3.org/2000/svg">
<path d="M1523.21 72.6556C1391.72 59.7187 1253.74 34.255 1120.67 23.8148C983.736 13.0455 840.911 13.6728 703.763 24.057C607.482 31.3422 513.997 43.3536 417.449 50.0549C238.041 62.3673 -27.4337 87.5892 -198 63.4581V121L1880 89.53V74.5001C1767.12 88.8592 1639.81 84.1329 1523.21 72.6556Z" fill="white"/>
<path d="M1686.21 56.6556C1554.72 43.7187 1416.74 18.255 1283.67 7.81482C1146.74 -2.95449 1003.91 -2.32721 866.763 8.05704C770.482 15.3422 676.997 27.3536 580.449 34.0549C401.041 46.3673 135.566 71.5892 -35 47.4581V105L2043 73.53V58.5001C1930.12 72.8592 1802.81 68.1329 1686.21 56.6556Z" fill="white" fill-opacity="0.31"/>
</svg>
