<svg width="1440" height="73" viewBox="0 0 1440 73" fill="none" xmlns="http://www.w3.org/2000/svg">
<path d="M1628.21 56.6556C1496.72 43.7187 1358.74 18.255 1225.67 7.81482C1088.74 -2.95449 945.911 -2.32721 808.763 8.05704C712.482 15.3422 618.997 27.3536 522.449 34.0549C343.041 46.3673 77.5663 71.5892 -93 47.4581V105L1985 73.53V58.5001C1872.12 72.8592 1744.81 68.1329 1628.21 56.6556Z" fill="white" fill-opacity="0.31"/>
<path d="M808.952 10.5499L808.763 8.05704L808.952 10.5499C945.982 0.174581 1088.68 -0.451337 1225.47 10.3071L1225.67 7.81482L1225.47 10.3072C1291.93 15.5209 1359.62 24.4874 1427.19 33.7756C1434.25 34.7463 1441.31 35.7206 1448.37 36.6944C1508.81 45.0354 1569.04 53.3461 1627.96 59.1436C1743.68 70.5338 1870.06 75.2941 1982.5 61.334V71.0675L-90.5 102.462V50.3309C57.3907 70.6568 274.776 54.6638 446.121 42.0581C472.891 40.0886 498.538 38.2018 522.62 36.5491L522.622 36.5489C570.938 33.1953 618.482 28.5134 665.955 23.7625C668.681 23.4897 671.406 23.2167 674.132 22.9436C718.884 18.4609 763.609 13.9808 808.952 10.5499Z" stroke="#326E35" stroke-opacity="0.6" stroke-width="5"/>
<path d="M1641.21 73.6556C1509.72 60.7187 1371.74 35.255 1238.67 24.8148C1101.74 14.0455 958.911 14.6728 821.763 25.057C725.482 32.3422 631.997 44.3536 535.449 51.0549C356.041 63.3673 90.5663 88.5892 -80 64.4581V122L1998 90.53V75.5001C1885.12 89.8592 1757.81 85.1329 1641.21 73.6556Z" fill="#326E35" fill-opacity="0.72"/>
</svg>
