<svg width="318" height="281" viewBox="0 0 318 281" fill="none" xmlns="http://www.w3.org/2000/svg">
<path d="M163.499 16.4999C143.408 -10.0001 50.5499 -7.74795 45.1114 58.3935C42.863 85.8633 47.0726 107.024 25.299 127.532C19.9068 132.624 15.0259 138.253 9.90182 143.631C0.431018 153.58 -2.90547 173.989 6.62283 190.644C20.4002 214.794 39.2314 235.904 59.1677 255.298C85.2356 280.675 118.818 292.256 143.408 263.956C157.742 247.474 162.506 229.156 184.664 226.686C197.613 225.254 206.554 224.001 216.937 214.36C235.483 197.124 233.205 204.213 247.697 198.835C282.517 185.904 343.5 151.5 306 64.5006C281.5 21 240.965 18.1289 228 16.4999C181.093 10.5339 184.664 44.4179 163.499 16.4999Z" fill="url(#paint0_linear_818_21)"/>
<defs>
<linearGradient id="paint0_linear_818_21" x1="323.551" y1="172.852" x2="58.305" y2="130.411" gradientUnits="userSpaceOnUse">
<stop stop-color="#3C7540"/>
<stop offset="1" stop-color="#2DA547"/>
</linearGradient>
</defs>
</svg>
