<svg width="436" height="359" viewBox="0 0 436 359" fill="none" xmlns="http://www.w3.org/2000/svg">
<path d="M63.8149 173.381C-21.2716 215.641 -21.2716 284.15 63.8149 326.402C148.901 368.655 286.867 368.655 371.953 326.402C457.04 284.15 457.04 215.641 371.953 173.381C286.867 131.12 148.901 131.128 63.8149 173.381Z" fill="#EFEFEF"/>
<path d="M181.233 273.965C160.325 263.591 160.325 246.769 181.233 236.363C202.141 225.957 236.022 225.982 256.911 236.363C277.8 246.744 277.819 263.559 256.911 273.965C236.003 284.37 202.131 284.346 181.233 273.965Z" fill="#E0E0E0"/>
<path d="M150.811 281.746C157.787 285.212 161.265 289.749 161.265 294.286C161.265 298.822 157.777 303.359 150.811 306.825C136.869 313.749 114.26 313.749 100.309 306.825C93.3423 303.359 89.8545 298.822 89.8545 294.286C89.8545 289.749 93.3423 285.212 100.309 281.746C114.298 274.823 136.869 274.823 150.811 281.746Z" fill="#E0E0E0"/>
<path d="M136.67 197.192L180.986 219.197L136.67 241.202L92.3447 219.197L136.67 197.192Z" fill="#E0E0E0"/>
<path d="M12.2764 264.662L49.5023 283.144L111.961 252.172L74.7251 233.69L12.2764 264.662Z" fill="#E0E0E0"/>
<path d="M388.394 228.622L417.409 243.025L388.394 257.428L359.389 243.025L388.394 228.622Z" fill="#E0E0E0"/>
<path d="M323.626 311.664C322.633 311.654 321.673 311.351 320.908 310.807C320.142 310.263 319.615 309.509 319.416 308.672L318.465 304.242C316.218 303.889 313.996 303.422 311.813 302.844C311.813 302.844 311.87 302.844 311.813 302.844H311.699L302.67 306.482C302.005 306.741 301.282 306.872 300.551 306.866C299.651 306.87 298.764 306.676 297.976 306.302L288.938 301.814C288.393 301.563 287.934 301.195 287.604 300.746C287.274 300.297 287.085 299.782 287.054 299.252C287.023 298.721 287.153 298.193 287.43 297.718C287.706 297.243 288.121 296.838 288.633 296.542L294.108 293.158C293.609 292.592 293.152 291.999 292.739 291.384L281.211 290.754C280.166 290.694 279.187 290.296 278.471 289.639C277.755 288.982 277.355 288.116 277.353 287.215V281.436C277.353 280.533 277.753 279.665 278.472 279.007C279.19 278.35 280.173 277.953 281.221 277.896L292.739 277.267C293.152 276.652 293.609 276.059 294.108 275.493L288.633 272.101C288.121 271.806 287.706 271.401 287.429 270.927C287.152 270.453 287.022 269.925 287.053 269.395C287.084 268.865 287.273 268.35 287.604 267.902C287.934 267.454 288.393 267.087 288.938 266.837L297.976 262.349C298.762 261.971 299.65 261.776 300.551 261.785C301.282 261.779 302.005 261.91 302.67 262.169L311.737 265.782H311.908C314.053 265.208 316.236 264.746 318.446 264.401L319.397 259.97C319.591 259.133 320.115 258.378 320.88 257.833C321.645 257.288 322.604 256.986 323.598 256.979H336.903C337.897 256.988 338.857 257.29 339.623 257.834C340.389 258.379 340.915 259.133 341.113 259.97L342.063 264.401C344.311 264.754 346.532 265.221 348.716 265.799C348.716 265.799 348.649 265.799 348.716 265.799H348.83L357.906 262.186C358.571 261.926 359.295 261.795 360.025 261.801C360.926 261.794 361.814 261.988 362.601 262.365L371.639 266.853C372.183 267.103 372.642 267.47 372.973 267.919C373.303 268.367 373.493 268.881 373.523 269.411C373.554 269.941 373.424 270.469 373.147 270.943C372.87 271.417 372.455 271.822 371.943 272.117L366.469 275.51C366.973 276.072 367.43 276.665 367.837 277.283L379.365 277.913C380.411 277.971 381.391 278.369 382.108 279.026C382.825 279.684 383.223 280.551 383.224 281.452V287.231C383.221 288.132 382.822 288.998 382.105 289.655C381.389 290.312 380.41 290.711 379.365 290.771L367.837 291.4C367.425 292.016 366.968 292.608 366.469 293.174L371.943 296.558C372.455 296.855 372.87 297.26 373.147 297.735C373.423 298.209 373.553 298.738 373.522 299.268C373.492 299.799 373.302 300.313 372.972 300.762C372.642 301.211 372.183 301.579 371.639 301.831L362.601 306.318C361.812 306.693 360.926 306.887 360.025 306.882C359.295 306.889 358.571 306.758 357.906 306.498L348.839 302.885H348.668C346.525 303.455 344.345 303.916 342.139 304.267L341.189 308.697C340.991 309.535 340.465 310.289 339.699 310.833C338.933 311.378 337.973 311.68 336.979 311.689L323.626 311.664ZM316.46 283.291C313.372 284.828 311.594 286.798 311.594 288.703C311.594 290.607 313.362 292.577 316.46 294.114C320.749 295.958 325.479 296.918 330.274 296.918C335.069 296.918 339.798 295.958 344.087 294.114C347.186 292.577 348.953 290.607 348.953 288.703C348.953 286.798 347.186 284.828 344.087 283.291C339.798 281.447 335.069 280.487 330.274 280.487C325.479 280.487 320.749 281.447 316.46 283.291Z" fill="#E0E0E0"/>
<path d="M320.728 241.905L317.06 238.587C316.11 238.628 315.216 238.652 314.304 238.652C313.392 238.652 312.451 238.652 311.595 238.587L307.689 242.118C307.302 242.444 306.843 242.7 306.338 242.87C305.834 243.04 305.294 243.12 304.753 243.107C304.388 243.109 304.024 243.074 303.669 243.001L294.688 241.088C294.16 240.984 293.666 240.779 293.241 240.489C292.817 240.199 292.474 239.831 292.236 239.412C292.032 239.046 291.926 238.645 291.926 238.239C291.926 237.833 292.032 237.432 292.236 237.066L293.757 234.491C292.923 234.101 292.114 233.672 291.333 233.208L282.78 234.442C282.578 234.455 282.374 234.455 282.172 234.442C281.502 234.43 280.845 234.285 280.252 234.019C279.658 233.752 279.145 233.371 278.751 232.906L275.339 228.818C274.92 228.296 274.692 227.679 274.683 227.045C274.681 226.456 274.899 225.883 275.304 225.409C275.71 224.935 276.282 224.586 276.935 224.413L283.588 222.598V222.058L277.163 220.301C276.48 220.146 275.869 219.813 275.415 219.348C274.961 218.882 274.685 218.307 274.626 217.702V217.546C274.626 216.992 274.829 216.451 275.206 216.001L278.922 211.546C279.306 211.122 279.802 210.781 280.368 210.552C280.935 210.324 281.556 210.213 282.181 210.23C282.423 210.23 282.665 210.247 282.904 210.279L291.305 211.497C291.923 211.129 292.588 210.77 293.291 210.426L293.728 210.214L292.331 207.827C292.084 207.411 291.947 206.953 291.932 206.486V206.159V206.045C292.018 205.472 292.305 204.936 292.755 204.508C293.205 204.08 293.797 203.78 294.451 203.65L303.736 201.745C304.018 201.683 304.309 201.653 304.601 201.655C305.204 201.665 305.799 201.777 306.351 201.985C306.904 202.192 307.404 202.491 307.822 202.865L311.5 206.192C312.451 206.143 313.401 206.127 314.351 206.127C315.302 206.127 316.157 206.127 317.003 206.184L320.89 202.669C321.279 202.339 321.741 202.08 322.249 201.907C322.756 201.734 323.3 201.652 323.846 201.664C324.204 201.665 324.561 201.7 324.91 201.77L333.872 203.617C334.627 203.746 335.31 204.09 335.811 204.592C336.312 205.094 336.603 205.727 336.638 206.388C336.644 206.819 336.53 207.245 336.305 207.631L334.794 210.214L335.279 210.451C335.972 210.786 336.619 211.146 337.179 211.481L345.733 210.247C345.928 210.22 346.125 210.207 346.322 210.206C346.992 210.22 347.65 210.365 348.245 210.632C348.839 210.898 349.355 211.278 349.753 211.742L353.126 215.781C353.574 216.301 353.818 216.931 353.82 217.579V217.955L353.763 218.102C353.656 218.593 353.397 219.05 353.012 219.424C352.627 219.799 352.131 220.076 351.577 220.227L344.925 222.042C344.925 222.222 344.925 222.402 344.925 222.582L351.387 224.339C352.216 224.559 352.929 225.022 353.402 225.647C353.633 225.945 353.785 226.284 353.847 226.638C353.91 226.993 353.881 227.355 353.763 227.699C353.473 228.383 353.053 229.021 352.518 229.587L350.56 232.096L349.61 233.192C349.228 233.615 348.736 233.954 348.173 234.183C347.61 234.411 346.992 234.523 346.369 234.508C346.124 234.506 345.879 234.487 345.638 234.451L337.246 233.241C336.459 233.706 335.644 234.134 334.803 234.524L336.219 236.935C336.463 237.335 336.596 237.777 336.609 238.228C336.623 238.678 336.515 239.126 336.295 239.535C336.085 239.922 335.775 240.263 335.387 240.531C335 240.798 334.547 240.986 334.062 241.08L324.739 243.001C324.471 243.057 324.197 243.084 323.922 243.083C322.719 243.064 321.573 242.642 320.728 241.905ZM326.621 221.2C324.744 219.747 322.445 218.759 319.968 218.339C318.121 217.966 316.23 217.779 314.332 217.783C308.63 217.783 303.413 219.418 301.398 221.87C301.036 222.239 300.796 222.685 300.704 223.161C300.612 223.638 300.671 224.126 300.875 224.576L300.961 224.772L301.198 225.116C301.704 225.761 302.349 226.316 303.099 226.75C303.446 226.977 303.811 227.182 304.192 227.363C305.614 228.041 307.14 228.542 308.725 228.851C310.572 229.224 312.464 229.41 314.361 229.407C317.902 229.465 321.403 228.763 324.549 227.363C324.942 227.173 325.32 226.96 325.68 226.726C326.303 226.345 326.851 225.881 327.305 225.353C327.729 224.923 327.985 224.389 328.036 223.827C328.087 223.265 327.931 222.703 327.59 222.222L327.419 221.977C327.342 221.875 327.26 221.777 327.172 221.682C327.105 221.601 327.029 221.527 326.953 221.445L326.621 221.2Z" fill="#E0E0E0"/>
<path d="M404.209 163.433L402.032 160.547C399.969 161.141 397.819 161.485 395.646 161.569L394.809 164.92C394.739 165.225 394.544 165.498 394.26 165.69C393.976 165.882 393.621 165.98 393.26 165.967C390.063 165.846 386.912 165.266 383.937 164.25C383.596 164.141 383.312 163.93 383.137 163.655C382.962 163.38 382.909 163.06 382.987 162.754L383.814 159.403C381.87 158.564 380.07 157.499 378.463 156.239L375.118 158.111C374.815 158.282 374.452 158.354 374.093 158.315C373.735 158.276 373.404 158.128 373.16 157.899C372.087 156.876 371.108 155.783 370.233 154.629C369.363 153.481 368.607 152.272 367.971 151.016C367.823 150.73 367.799 150.407 367.903 150.107C368.008 149.807 368.234 149.55 368.541 149.381L371.896 147.517C371.209 145.739 370.813 143.888 370.718 142.016L366.802 141.305C366.449 141.24 366.135 141.069 365.914 140.824C365.693 140.579 365.58 140.274 365.595 139.964C365.734 137.218 366.405 134.51 367.581 131.954C367.71 131.661 367.956 131.418 368.275 131.268C368.594 131.118 368.965 131.071 369.32 131.136L373.227 131.847C374.198 130.172 375.439 128.622 376.914 127.245L374.738 124.36C374.538 124.1 374.452 123.789 374.496 123.48C374.54 123.172 374.709 122.886 374.975 122.676C377.337 120.824 380.038 119.319 382.968 118.221C383.299 118.088 383.676 118.064 384.027 118.155C384.377 118.245 384.677 118.443 384.869 118.711L387.054 121.662C389.117 121.066 391.267 120.719 393.441 120.632L394.277 117.281C394.351 116.976 394.548 116.704 394.834 116.512C395.119 116.32 395.474 116.222 395.836 116.234C399.028 116.358 402.174 116.933 405.149 117.935C405.487 118.051 405.766 118.265 405.94 118.539C406.114 118.814 406.17 119.132 406.1 119.439L405.263 122.798C407.207 123.637 409.007 124.702 410.614 125.962L413.959 124.098C414.26 123.925 414.623 123.85 414.982 123.888C415.342 123.925 415.673 124.072 415.917 124.302C417 125.318 417.979 126.412 418.844 127.572C419.718 128.728 420.478 129.945 421.116 131.21C421.263 131.497 421.286 131.82 421.179 132.12C421.073 132.42 420.844 132.677 420.536 132.845L417.181 134.716C417.867 136.489 418.264 138.335 418.36 140.201L422.275 140.921C422.628 140.987 422.942 141.158 423.164 141.402C423.386 141.647 423.502 141.951 423.492 142.261C423.346 145.008 422.671 147.715 421.496 150.272C421.366 150.564 421.119 150.806 420.801 150.956C420.482 151.105 420.112 151.153 419.757 151.089L415.851 150.37C414.877 152.044 413.636 153.594 412.163 154.972L414.349 157.858C414.547 158.118 414.631 158.43 414.586 158.739C414.541 159.047 414.369 159.332 414.102 159.542C412.92 160.47 411.648 161.309 410.3 162.051C408.965 162.8 407.56 163.454 406.1 164.005H406.043C405.708 164.11 405.34 164.11 405.005 164.005C404.67 163.9 404.388 163.698 404.209 163.433ZM415.613 148.98L420.156 149.757C421.295 147.314 421.913 144.713 421.98 142.081L417.514 141.264C417.353 141.236 417.209 141.161 417.106 141.053C417.002 140.944 416.945 140.808 416.943 140.667C416.888 138.601 416.448 136.557 415.641 134.61C415.587 134.478 415.585 134.333 415.637 134.2C415.688 134.067 415.79 133.952 415.927 133.874L419.795 131.659C419.187 130.463 418.466 129.312 417.637 128.218C416.819 127.1 415.863 126.061 414.786 125.12L410.985 127.253C410.849 127.331 410.687 127.366 410.525 127.354C410.363 127.342 410.21 127.284 410.091 127.188C408.352 125.757 406.356 124.575 404.18 123.689C404.033 123.628 403.914 123.527 403.841 123.401C403.769 123.275 403.748 123.132 403.781 122.995L404.731 119.079C401.887 118.111 398.865 117.585 395.807 117.526L394.857 121.352C394.824 121.49 394.738 121.615 394.612 121.706C394.486 121.796 394.327 121.847 394.163 121.85C391.76 121.891 389.38 122.272 387.121 122.978C386.967 123.027 386.799 123.029 386.643 122.984C386.488 122.94 386.355 122.851 386.266 122.733L383.681 119.398C382.295 119.924 380.96 120.545 379.689 121.253C378.392 121.957 377.188 122.779 376.097 123.706L378.577 126.975C378.668 127.094 378.709 127.235 378.694 127.377C378.678 127.518 378.607 127.65 378.492 127.752C376.823 129.239 375.449 130.951 374.424 132.82C374.356 132.949 374.239 133.054 374.092 133.118C373.945 133.182 373.777 133.201 373.616 133.171L369.073 132.354C367.934 134.797 367.316 137.398 367.249 140.03L371.706 140.847C371.866 140.878 372.009 140.953 372.114 141.061C372.219 141.169 372.279 141.303 372.286 141.444C372.339 143.515 372.779 145.566 373.588 147.517C373.642 147.648 373.643 147.792 373.591 147.923C373.54 148.055 373.438 148.169 373.303 148.245L369.444 150.46C370.049 151.653 370.768 152.801 371.592 153.893C372.42 154.99 373.351 156.026 374.376 156.991C374.39 157.001 374.407 157.006 374.424 157.006C374.441 157.006 374.458 157.001 374.471 156.991L378.273 154.858C378.41 154.782 378.572 154.747 378.735 154.761C378.897 154.774 379.049 154.834 379.166 154.931C380.904 156.36 382.9 157.536 385.078 158.414C385.225 158.474 385.344 158.576 385.416 158.702C385.489 158.828 385.51 158.971 385.477 159.108L384.526 163.024C387.368 164.001 390.391 164.532 393.45 164.593L394.401 160.76C394.437 160.623 394.524 160.501 394.65 160.412C394.775 160.323 394.932 160.273 395.094 160.269C397.501 160.22 399.882 159.836 402.146 159.133C402.3 159.087 402.467 159.087 402.62 159.133C402.774 159.179 402.905 159.268 402.992 159.386L405.577 162.713C406.965 162.19 408.3 161.569 409.569 160.858C410.867 160.152 412.074 159.33 413.171 158.405L410.681 155.136C410.59 155.019 410.549 154.878 410.565 154.738C410.581 154.599 410.652 154.468 410.766 154.367C412.432 152.875 413.805 151.161 414.834 149.291C414.913 149.149 415.052 149.038 415.223 148.98C415.337 148.962 415.455 148.967 415.565 148.997L415.613 148.98ZM397.261 152.912C395.41 153.261 393.493 153.266 391.639 152.926C389.786 152.587 388.038 151.91 386.513 150.942C384.287 149.574 382.574 147.677 381.584 145.483C380.594 143.29 380.37 140.895 380.941 138.594C381.511 136.292 382.85 134.184 384.794 132.528C386.738 130.872 389.201 129.741 391.882 129.272C393.733 128.918 395.65 128.91 397.505 129.248C399.359 129.586 401.107 130.264 402.631 131.234C404.845 132.612 406.549 134.511 407.539 136.702C408.528 138.893 408.761 141.283 408.21 143.585C407.72 145.551 406.666 147.38 405.144 148.905C403.622 150.43 401.679 151.602 399.495 152.316C398.76 152.569 398.004 152.774 397.233 152.929L397.261 152.912ZM382.303 138.91C381.808 140.98 382.02 143.128 382.914 145.097C383.807 147.065 385.345 148.769 387.339 150.002C388.692 150.867 390.245 151.471 391.893 151.773C393.542 152.074 395.246 152.067 396.891 151.752C399.305 151.338 401.526 150.326 403.278 148.839C405.03 147.352 406.237 145.455 406.75 143.385C407.263 141.314 407.058 139.159 406.162 137.187C405.266 135.215 403.718 133.512 401.709 132.289C400.354 131.428 398.801 130.827 397.153 130.525C395.506 130.224 393.803 130.228 392.158 130.539C391.468 130.675 390.791 130.855 390.134 131.079C388.172 131.717 386.427 132.769 385.059 134.137C383.691 135.505 382.743 137.146 382.303 138.91Z" fill="#F0F0F0"/>
<path d="M323.018 111.028C322.625 112.675 322.792 114.385 323.5 115.952C324.208 117.519 325.426 118.878 327.01 119.864C328.101 120.557 329.351 121.04 330.677 121.283C332.003 121.525 333.374 121.521 334.698 121.27C335.242 121.163 335.776 121.021 336.295 120.845C336.714 120.708 337.121 120.544 337.511 120.355C338.777 119.767 339.88 118.952 340.746 117.965C341.612 116.977 342.22 115.841 342.529 114.633C342.927 112.985 342.761 111.275 342.053 109.707C341.345 108.139 340.124 106.781 338.538 105.796C337.447 105.104 336.196 104.62 334.87 104.377C333.544 104.135 332.173 104.139 330.849 104.39C328.94 104.732 327.186 105.54 325.797 106.717C324.408 107.894 323.443 109.391 323.018 111.028ZM324.225 111.248C324.495 110.184 325.029 109.183 325.79 108.313C326.551 107.442 327.521 106.723 328.635 106.205C328.983 106.043 329.341 105.898 329.709 105.772C330.171 105.619 330.644 105.494 331.125 105.396C332.271 105.182 333.458 105.182 334.605 105.393C335.752 105.604 336.833 106.023 337.777 106.622C339.184 107.477 340.268 108.668 340.895 110.048C341.523 111.427 341.666 112.935 341.308 114.384C340.95 115.833 340.107 117.16 338.881 118.201C337.656 119.241 336.102 119.951 334.413 120.24C333.267 120.454 332.08 120.456 330.933 120.244C329.786 120.033 328.704 119.613 327.761 119.014C326.363 118.151 325.285 116.959 324.658 115.581C324.031 114.203 323.88 112.698 324.225 111.248ZM315.51 122.455C316.129 123.272 316.822 124.046 317.582 124.769C317.771 124.947 318.027 125.062 318.306 125.094C318.584 125.125 318.866 125.071 319.103 124.94L321.412 123.649C322.518 124.515 323.755 125.249 325.09 125.831L324.52 128.136C324.459 128.371 324.498 128.617 324.628 128.829C324.759 129.042 324.973 129.208 325.233 129.297C327.354 130.024 329.603 130.436 331.885 130.515C332.167 130.526 332.443 130.449 332.665 130.299C332.886 130.149 333.038 129.936 333.092 129.698L333.662 127.384C335.155 127.317 336.632 127.08 338.053 126.681L339.545 128.668C339.694 128.864 339.917 129.011 340.176 129.084C340.435 129.157 340.716 129.151 340.971 129.068C341.531 128.856 342.092 128.619 342.643 128.365C343.195 128.112 343.537 127.916 343.974 127.67C344.928 127.143 345.827 126.547 346.663 125.888C346.869 125.726 347 125.507 347.035 125.269C347.07 125.031 347.006 124.79 346.853 124.589L345.352 122.602C346.357 121.649 347.21 120.585 347.889 119.439L350.569 119.929C350.842 119.975 351.124 119.936 351.366 119.82C351.608 119.703 351.794 119.516 351.89 119.292C352.729 117.465 353.207 115.532 353.306 113.57C353.319 113.328 353.229 113.09 353.055 112.899C352.881 112.709 352.633 112.578 352.356 112.532L349.667 112.033C349.594 110.752 349.322 109.484 348.859 108.265L351.159 106.973C351.396 106.846 351.573 106.65 351.656 106.421C351.74 106.191 351.725 105.944 351.615 105.723C350.706 103.923 349.456 102.266 347.918 100.818C347.728 100.641 347.471 100.527 347.192 100.497C346.914 100.467 346.632 100.523 346.397 100.655L344.097 101.938C342.986 101.079 341.75 100.348 340.419 99.7636L340.99 97.4585C341.048 97.2217 341.008 96.9747 340.876 96.761C340.744 96.5472 340.528 96.3803 340.267 96.2896C338.143 95.572 335.895 95.1632 333.615 95.0798C333.334 95.071 333.058 95.1484 332.837 95.2981C332.616 95.4478 332.464 95.6601 332.408 95.8972L331.838 98.2105C330.344 98.2684 328.867 98.5022 327.447 98.9053L325.945 96.9271C325.797 96.7212 325.567 96.5686 325.298 96.4979C325.028 96.4272 324.738 96.4432 324.482 96.543C323.443 96.929 322.444 97.3912 321.498 97.9244C320.544 98.4552 319.645 99.054 318.808 99.7146C318.599 99.875 318.465 100.095 318.43 100.334C318.395 100.573 318.462 100.814 318.618 101.014L320.11 103.001C319.135 103.973 318.317 105.053 317.677 106.213L314.988 105.723C314.714 105.673 314.428 105.708 314.181 105.821C313.934 105.935 313.742 106.12 313.638 106.344C312.799 108.17 312.32 110.104 312.222 112.066C312.216 112.307 312.307 112.542 312.48 112.732C312.654 112.921 312.898 113.053 313.172 113.104L315.862 113.594C315.937 114.879 316.212 116.149 316.679 117.371L314.37 118.654C314.136 118.786 313.964 118.984 313.882 119.214C313.801 119.444 313.815 119.691 313.923 119.913C314.374 120.795 314.904 121.645 315.51 122.455ZM315.064 119.529L317.725 118C317.84 117.935 317.927 117.839 317.97 117.726C318.013 117.613 318.011 117.49 317.962 117.379C317.379 116.01 317.058 114.569 317.012 113.112C317.007 112.992 316.955 112.878 316.866 112.786C316.776 112.694 316.654 112.631 316.518 112.605L313.448 112.049C313.507 110.248 313.932 108.469 314.702 106.793L317.829 107.325C317.964 107.353 318.106 107.339 318.231 107.287C318.356 107.235 318.456 107.147 318.513 107.039C319.234 105.724 320.197 104.517 321.365 103.467C321.461 103.381 321.52 103.269 321.534 103.151C321.548 103.032 321.515 102.913 321.441 102.813L319.72 100.54C320.474 99.9065 321.302 99.3421 322.191 98.8563C323.063 98.3696 323.978 97.9432 324.928 97.5811L326.706 99.878C326.78 99.9788 326.892 100.054 327.024 100.091C327.156 100.129 327.299 100.126 327.428 100.082C329.016 99.5814 330.688 99.3054 332.379 99.265C332.518 99.2637 332.652 99.2217 332.759 99.1459C332.867 99.07 332.94 98.965 332.969 98.8481L333.624 96.2078C335.718 96.2606 337.785 96.6229 339.735 97.2786L339.108 99.9761C339.081 100.093 339.101 100.214 339.163 100.32C339.224 100.427 339.326 100.513 339.45 100.565C340.979 101.184 342.382 102.012 343.603 103.017C343.697 103.096 343.818 103.146 343.949 103.161C344.079 103.176 344.211 103.154 344.325 103.099L346.967 101.627C347.747 102.271 348.442 102.987 349.039 103.761C349.607 104.512 350.103 105.302 350.522 106.123L347.861 107.652C347.745 107.717 347.657 107.813 347.612 107.926C347.568 108.038 347.568 108.161 347.614 108.273C348.201 109.638 348.522 111.077 348.564 112.532C348.569 112.651 348.621 112.766 348.71 112.858C348.8 112.95 348.922 113.013 349.058 113.039L352.138 113.603C352.074 115.404 351.649 117.182 350.883 118.859L347.756 118.319C347.638 118.29 347.513 118.29 347.395 118.319C347.252 118.367 347.136 118.461 347.072 118.581C346.349 119.894 345.386 121.1 344.221 122.153C344.125 122.239 344.065 122.35 344.051 122.469C344.037 122.587 344.07 122.706 344.145 122.807L345.856 125.079C345.1 125.711 344.272 126.275 343.385 126.763C342.515 127.248 341.603 127.675 340.657 128.038L338.88 125.741C338.803 125.643 338.691 125.568 338.561 125.53C338.43 125.491 338.288 125.491 338.158 125.529C336.566 126.03 334.891 126.306 333.197 126.346C333.058 126.347 332.924 126.39 332.817 126.465C332.709 126.541 332.636 126.646 332.607 126.763L331.961 129.403C329.864 129.351 327.793 128.986 325.841 128.324L326.468 125.627C326.497 125.511 326.479 125.39 326.417 125.284C326.355 125.179 326.252 125.095 326.126 125.047C324.598 124.426 323.195 123.598 321.973 122.594C321.875 122.509 321.745 122.456 321.606 122.444C321.468 122.432 321.328 122.462 321.212 122.529L318.542 124.025C317.143 122.684 315.995 121.165 315.14 119.521L315.064 119.529Z" fill="#F0F0F0"/>
<path d="M26.2269 148.882C25.8304 150.528 25.9962 152.238 26.7045 153.804C27.4128 155.371 28.6333 156.727 30.2185 157.71C31.3093 158.403 32.5597 158.887 33.8858 159.129C35.2119 159.372 36.583 159.367 37.907 159.116C38.4506 159.012 38.9843 158.873 39.5036 158.7C39.9187 158.554 40.3247 158.391 40.7201 158.209C42.216 157.514 43.4811 156.502 44.3958 155.269C45.3104 154.036 45.8444 152.623 45.9471 151.163C46.0499 149.703 45.718 148.245 44.983 146.926C44.248 145.607 43.134 144.472 41.7465 143.626C40.6574 142.931 39.407 142.445 38.0803 142.203C36.7536 141.96 35.3817 141.966 34.058 142.22C32.1447 142.563 30.3873 143.374 28.9979 144.556C27.6084 145.738 26.6461 147.24 26.2269 148.882ZM27.4339 149.103C27.7026 148.039 28.2359 147.037 28.997 146.166C29.7582 145.296 30.7292 144.577 31.8436 144.059C32.1862 143.894 32.5419 143.749 32.908 143.626C33.3716 143.47 33.8481 143.345 34.3336 143.25C35.4799 143.033 36.667 143.03 37.8147 143.242C38.9623 143.453 40.0439 143.874 40.9862 144.476C42.3934 145.331 43.4782 146.522 44.1059 147.902C44.7337 149.281 44.8768 150.789 44.5176 152.238C44.1584 153.687 43.3126 155.014 42.0851 156.054C40.8577 157.093 39.3025 157.8 37.6123 158.086C36.466 158.303 35.2789 158.306 34.1313 158.095C32.9836 157.883 31.9021 157.462 30.9598 156.86C29.5637 155.998 28.4877 154.807 27.862 153.43C27.2363 152.054 27.0876 150.551 27.4339 149.103ZM18.719 160.302C19.3374 161.119 20.0302 161.892 20.7908 162.615C20.981 162.792 21.2381 162.906 21.5164 162.936C21.7947 162.966 22.0763 162.91 22.3114 162.778L24.6113 161.495C25.7256 162.354 26.9652 163.085 28.2987 163.669L27.719 165.975C27.661 166.21 27.7017 166.456 27.8338 166.668C27.966 166.881 28.1811 167.046 28.4413 167.135C30.5654 167.855 32.8133 168.266 35.0939 168.353C35.3759 168.365 35.6535 168.289 35.8754 168.139C36.0973 167.989 36.2484 167.775 36.3008 167.536L36.8711 165.231C38.3673 165.164 39.8468 164.927 41.2713 164.528L42.7633 166.514C42.9126 166.71 43.1357 166.856 43.3952 166.928C43.6548 166.999 43.935 166.992 44.1889 166.906C44.7496 166.694 45.3103 166.465 45.852 166.203C46.3938 165.942 46.8024 165.762 47.1921 165.517C48.1418 164.985 49.0411 164.389 49.8816 163.735C50.0877 163.571 50.2198 163.35 50.2546 163.111C50.2894 162.871 50.2246 162.629 50.0717 162.427L48.5701 160.441C49.5759 159.488 50.4293 158.424 51.1076 157.277L53.7876 157.768C54.0606 157.82 54.3461 157.787 54.5934 157.674C54.8406 157.562 55.0333 157.378 55.1371 157.155C55.9745 155.328 56.453 153.394 56.5532 151.433C56.5618 151.19 56.4715 150.953 56.2979 150.762C56.1243 150.571 55.8784 150.438 55.6028 150.386L52.9133 149.896C52.8404 148.612 52.5687 147.342 52.1055 146.119L54.4244 144.869C54.6608 144.739 54.8357 144.541 54.9176 144.31C54.9994 144.079 54.9829 143.831 54.871 143.61C54.4229 142.711 53.8856 141.847 53.2649 141.027C52.6421 140.21 51.9462 139.437 51.1836 138.713C50.9922 138.538 50.7345 138.425 50.4563 138.397C50.178 138.369 49.8971 138.426 49.663 138.558L47.3631 139.842C46.2529 138.978 45.0126 138.247 43.6757 137.667L44.2554 135.354C44.3134 135.118 44.2728 134.873 44.1406 134.66C44.0084 134.448 43.7933 134.282 43.5331 134.193C41.4103 133.472 39.1613 133.063 36.8806 132.983C36.599 132.973 36.3224 133.05 36.1009 133.2C35.8795 133.35 35.7279 133.563 35.6736 133.801L35.1034 136.106C33.6099 136.171 32.1332 136.407 30.7127 136.809L29.2301 134.823C29.0792 134.619 28.8489 134.469 28.5807 134.398C28.3124 134.328 28.0237 134.342 27.7665 134.438C26.7292 134.83 25.7311 135.295 24.7824 135.828C23.8381 136.356 22.945 136.95 22.1118 137.602C21.9072 137.766 21.7769 137.988 21.7438 138.227C21.7108 138.467 21.7772 138.708 21.9313 138.91L23.4233 140.896C22.4194 141.85 21.5662 142.914 20.8858 144.059L18.2058 143.569C17.9329 143.517 17.6473 143.55 17.4001 143.662C17.1529 143.775 16.9601 143.959 16.8563 144.182C16.018 146.008 15.5394 147.942 15.4402 149.904C15.4301 150.146 15.52 150.383 15.6941 150.573C15.8681 150.763 16.1149 150.894 16.3906 150.942L19.0801 151.433C19.1568 152.719 19.4284 153.991 19.888 155.217L17.5881 156.501C17.3531 156.632 17.1794 156.83 17.0977 157.06C17.016 157.29 17.0314 157.538 17.1414 157.759C17.5865 158.642 18.1141 159.492 18.719 160.302ZM18.3103 157.375L20.9619 155.855C21.0637 155.786 21.1377 155.691 21.1735 155.584C21.2094 155.477 21.2051 155.363 21.1615 155.258C20.5788 153.889 20.2579 152.448 20.2111 150.991C20.2092 150.871 20.159 150.754 20.0689 150.662C19.9789 150.57 19.8545 150.507 19.7169 150.484L16.6472 149.929C16.7183 148.112 17.1557 146.32 17.9397 144.632L21.0759 145.171C21.2118 145.195 21.3532 145.179 21.4774 145.126C21.6015 145.073 21.7011 144.985 21.7602 144.877C22.4753 143.562 23.4387 142.357 24.6113 141.313C24.7074 141.227 24.7672 141.116 24.781 140.997C24.7947 140.879 24.7618 140.76 24.6873 140.659L22.9672 138.387C23.718 137.75 24.5465 137.186 25.4381 136.703C26.3077 136.213 27.2232 135.786 28.1752 135.427L29.9524 137.716C30.0265 137.817 30.1385 137.893 30.2699 137.932C30.4013 137.971 30.5441 137.97 30.6746 137.929C32.2616 137.424 33.9346 137.148 35.6261 137.111C35.7657 137.108 35.9 137.064 36.007 136.987C36.114 136.91 36.1874 136.804 36.2153 136.686L36.8711 134.054C38.9793 134.108 41.0604 134.478 43.0199 135.15L42.3927 137.847C42.3628 137.964 42.3805 138.086 42.4427 138.193C42.505 138.3 42.6081 138.386 42.7348 138.436C44.2636 139.055 45.6661 139.883 46.8879 140.888C46.9842 140.963 47.105 141.012 47.2342 141.026C47.3633 141.041 47.4946 141.021 47.6102 140.97L50.2427 139.498C50.982 140.146 51.6413 140.859 52.21 141.624C52.7761 142.373 53.2719 143.16 53.6926 143.978L51.0316 145.506C50.9154 145.571 50.8279 145.668 50.7831 145.78C50.7383 145.893 50.7388 146.015 50.7845 146.128C51.3654 147.494 51.6863 148.932 51.7348 150.386C51.738 150.505 51.7874 150.62 51.8753 150.712C51.9632 150.804 52.0844 150.868 52.2195 150.893L55.2987 151.457C55.2384 153.26 54.8172 155.041 54.0537 156.721L50.9175 156.182C50.8033 156.149 50.6801 156.149 50.5659 156.182C50.4195 156.233 50.3007 156.329 50.2332 156.452C49.5142 157.765 48.5512 158.969 47.3821 160.016C47.2859 160.102 47.2269 160.214 47.2148 160.332C47.2027 160.451 47.2383 160.57 47.3156 160.67L49.0263 162.942C48.273 163.576 47.4448 164.14 46.5553 164.626C45.6752 165.11 44.7503 165.531 43.7897 165.885L42.0126 163.596C41.9385 163.495 41.8264 163.419 41.695 163.38C41.5636 163.341 41.4208 163.343 41.2903 163.383C39.6989 163.885 38.0235 164.161 36.3293 164.201C36.191 164.203 36.0578 164.246 35.951 164.322C35.8441 164.397 35.7699 164.501 35.7401 164.618L35.0844 167.258C32.9907 167.208 30.9232 166.845 28.9735 166.187L29.6007 163.49C29.6289 163.373 29.6104 163.251 29.5483 163.144C29.4863 163.038 29.3842 162.952 29.2586 162.901C27.7303 162.281 26.328 161.453 25.1055 160.449C25.0045 160.367 24.8747 160.318 24.7368 160.307C24.599 160.297 24.4611 160.327 24.3452 160.392L21.6747 161.879C20.9793 161.205 20.3439 160.486 19.7739 159.729C19.2127 158.98 18.7232 158.193 18.3103 157.375Z" fill="#F0F0F0"/>
<path d="M372.181 80.4885C371.731 82.3462 371.917 84.2763 372.716 86.045C373.516 87.8136 374.895 89.3448 376.686 90.4529C377.917 91.2366 379.33 91.7843 380.828 92.0592C382.326 92.3342 383.876 92.33 385.372 92.0469C385.983 91.9233 386.584 91.7622 387.168 91.5646C388.926 90.9811 390.488 90.0322 391.715 88.8027C392.943 87.5731 393.797 86.1011 394.201 84.5184C394.651 82.6607 394.465 80.7305 393.666 78.9619C392.866 77.1933 391.487 75.6621 389.696 74.554C388.47 73.763 387.061 73.2077 385.564 72.9256C384.067 72.6436 382.517 72.6414 381.019 72.9191C378.851 73.3063 376.86 74.2283 375.29 75.5725C373.721 76.9167 372.64 78.6249 372.181 80.4885ZM373.54 80.7337C373.9 79.3452 374.653 78.0546 375.732 76.9765C376.812 75.8985 378.184 75.0663 379.727 74.554C380.245 74.3755 380.779 74.2334 381.323 74.1289C382.623 73.881 383.969 73.8761 385.271 74.1144C386.573 74.3528 387.8 74.8288 388.869 75.5104C390.453 76.4777 391.672 77.8224 392.377 79.3787C393.083 80.9349 393.243 82.6347 392.839 84.2685C392.435 85.9023 391.484 87.3986 390.103 88.573C388.722 89.7475 386.972 90.5487 385.068 90.878C383.77 91.1257 382.425 91.1305 381.125 90.8922C379.825 90.6539 378.599 90.1779 377.531 89.4965C375.954 88.5226 374.738 87.1772 374.03 85.6224C373.322 84.0676 373.152 82.3699 373.54 80.7337ZM363.704 93.3793C364.4 94.304 365.181 95.1787 366.041 95.995C366.255 96.1981 366.545 96.3287 366.861 96.3632C367.177 96.3976 367.496 96.3337 367.762 96.183L370.356 94.7362C371.615 95.7046 373.014 96.5288 374.519 97.1885L373.873 99.7879C373.803 100.054 373.846 100.333 373.994 100.574C374.142 100.816 374.385 101.003 374.68 101.104C377.067 101.918 379.595 102.382 382.16 102.477C382.477 102.489 382.789 102.403 383.039 102.235C383.29 102.068 383.463 101.829 383.528 101.562L384.165 98.9623C385.854 98.8819 387.522 98.607 389.126 98.1449L390.856 100.409C391.023 100.631 391.274 100.797 391.566 100.879C391.858 100.961 392.175 100.954 392.462 100.859C393.108 100.613 393.735 100.352 394.362 100.041C394.99 99.7307 395.37 99.5426 395.864 99.2239C396.941 98.6268 397.958 97.9543 398.905 97.213C399.137 97.029 399.286 96.7799 399.324 96.5104C399.362 96.2408 399.288 95.9683 399.114 95.7416L397.423 93.4937C398.556 92.422 399.515 91.2231 400.274 89.9297L403.305 90.4856C403.615 90.543 403.938 90.5038 404.216 90.375C404.495 90.2462 404.711 90.0361 404.826 89.7826C405.772 87.7297 406.315 85.5556 406.432 83.3495C406.442 83.0774 406.341 82.8109 406.147 82.596C405.952 82.3811 405.677 82.2313 405.368 82.1724L402.327 81.6165C402.231 80.1669 401.911 78.7347 401.376 77.3577L403.98 75.9027C404.247 75.7575 404.444 75.5352 404.536 75.2758C404.629 75.0164 404.61 74.7372 404.484 74.4886C403.972 73.4752 403.365 72.4992 402.669 71.5704C401.968 70.647 401.179 69.7749 400.312 68.9628C400.099 68.7617 399.809 68.6329 399.495 68.5999C399.181 68.5669 398.864 68.6319 398.601 68.783L396.035 70.2462C394.778 69.2755 393.379 68.451 391.873 67.7939L392.528 65.1863C392.591 64.9205 392.544 64.6442 392.395 64.4053C392.245 64.1663 392.003 63.9799 391.711 63.8784C389.324 63.0682 386.796 62.6068 384.232 62.5133C383.916 62.5014 383.605 62.5859 383.355 62.7519C383.104 62.918 382.93 63.1549 382.863 63.4207L382.226 66.0282C380.538 66.1097 378.869 66.3846 377.265 66.8457L375.574 64.6059C375.406 64.3736 375.146 64.2015 374.842 64.1218C374.537 64.0421 374.21 64.0602 373.92 64.1727C372.748 64.6138 371.62 65.1359 370.546 65.734C369.472 66.3365 368.455 67.0116 367.505 67.753C367.273 67.9371 367.124 68.1861 367.086 68.4556C367.048 68.7252 367.122 68.9977 367.296 69.2244L368.988 71.4641C367.851 72.5364 366.891 73.7385 366.137 75.0363L363.105 74.4804C362.796 74.4247 362.474 74.4646 362.195 74.5932C361.917 74.7219 361.701 74.9309 361.584 75.1834C360.638 77.2363 360.095 79.4104 359.978 81.6165C359.969 81.8876 360.07 82.153 360.265 82.3665C360.459 82.58 360.734 82.7283 361.043 82.7854L364.074 83.3413C364.174 84.7931 364.494 86.2275 365.025 87.6083L362.345 89.0469C362.079 89.1947 361.883 89.4186 361.79 89.6789C361.698 89.9392 361.716 90.2192 361.841 90.4692C362.367 91.482 362.99 92.4553 363.704 93.3793ZM363.2 90.1096L366.194 88.3848C366.327 88.3152 366.428 88.2074 366.478 88.0804C366.528 87.9534 366.525 87.8152 366.469 87.69C365.828 86.1403 365.481 84.5118 365.443 82.8672C365.437 82.7315 365.379 82.6013 365.278 82.4976C365.176 82.3938 365.037 82.3224 364.882 82.295L361.413 81.6656C361.484 79.632 361.963 77.6242 362.829 75.7311L366.365 76.336C366.517 76.3637 366.676 76.3465 366.815 76.2872C366.955 76.2279 367.067 76.1299 367.134 76.009C367.95 74.5239 369.042 73.1628 370.366 71.9791C370.474 71.8826 370.541 71.7575 370.557 71.624C370.572 71.4905 370.535 71.3565 370.451 71.2434L368.55 68.6767C369.4 67.9612 370.333 67.3229 371.335 66.7721C372.32 66.2247 373.353 65.7437 374.424 65.3334L376.429 67.9247C376.516 68.0384 376.645 68.1236 376.795 68.1666C376.945 68.2097 377.107 68.2079 377.256 68.1617C379.047 67.596 380.936 67.2921 382.844 67.2626C383 67.2585 383.151 67.2096 383.271 67.1237C383.392 67.0379 383.475 66.9199 383.509 66.7884L384.241 63.813C386.607 63.8689 388.945 64.2754 391.15 65.0146L390.437 68.0636C390.405 68.1947 390.425 68.3312 390.494 68.4513C390.563 68.5714 390.677 68.6681 390.818 68.7257C392.543 69.4301 394.128 70.3654 395.512 71.4968C395.616 71.5868 395.751 71.645 395.897 71.6628C396.043 71.6805 396.192 71.6566 396.32 71.5949H396.368L399.342 69.9601C400.182 70.6871 400.928 71.4902 401.566 72.3551C402.206 73.202 402.762 74.0934 403.229 75.0199L400.236 76.7365C400.103 76.8087 400.003 76.9179 399.953 77.0459C399.903 77.174 399.905 77.3129 399.96 77.4395C400.6 78.9839 400.946 80.6068 400.987 82.2459C400.989 82.3819 401.045 82.5131 401.145 82.6184C401.245 82.7237 401.383 82.7969 401.538 82.8263L405.016 83.4557C404.945 85.492 404.466 87.5024 403.6 89.3984L400.065 88.7853C399.934 88.7566 399.796 88.7566 399.666 88.7853C399.502 88.8426 399.37 88.9506 399.295 89.0878C398.475 90.571 397.384 91.9315 396.064 93.1177C395.954 93.2134 395.885 93.3387 395.87 93.4725C395.854 93.6064 395.892 93.7408 395.978 93.8534L397.879 96.4201C397.027 97.1337 396.094 97.7718 395.094 98.3247C394.108 98.8707 393.076 99.3517 392.006 99.7634L390 97.1721C389.916 97.0579 389.789 96.972 389.641 96.9289C389.492 96.8857 389.33 96.8879 389.183 96.9351C387.384 97.4883 385.495 97.7919 383.585 97.8342C383.429 97.835 383.278 97.8816 383.157 97.9664C383.036 98.0511 382.953 98.1689 382.92 98.3002L382.188 101.284C379.82 101.229 377.481 100.817 375.279 100.066L375.992 97.025C376.023 96.893 376.002 96.7557 375.931 96.6355C375.86 96.5153 375.745 96.4192 375.602 96.3629C373.866 95.6496 372.277 94.697 370.898 93.5428C370.785 93.4495 370.639 93.3922 370.484 93.3803C370.328 93.3684 370.172 93.4026 370.043 93.4774L367.02 95.1613C366.226 94.3905 365.499 93.5709 364.844 92.709C364.217 91.87 363.667 90.9899 363.2 90.0769V90.1096Z" fill="#F0F0F0"/>
<path d="M173.231 218.183L136.671 236.346L136.661 163.179L173.231 218.183Z" fill="#FAFAFA"/>
<path d="M136.671 236.346L173.231 218.183L136.661 163.179L136.671 165.214L171.834 217.824L136.671 235.284V236.346Z" fill="#E0E0E0"/>
<path d="M100.101 218.183L136.671 236.346L136.661 163.179L100.101 218.183Z" fill="#E0E0E0"/>
<path opacity="0.1" d="M100.101 218.183L136.671 236.346L136.661 163.179L100.101 218.183Z" fill="#263238"/>
<path d="M18.9297 246.31L49.6266 261.547L105.299 233.935L74.6023 218.698L18.9297 246.31Z" fill="#2DA547"/>
<path opacity="0.5" d="M18.9297 246.31L49.6266 261.547L105.299 233.935L74.6023 218.698L18.9297 246.31Z" fill="white"/>
<path d="M18.9297 246.31L49.6266 261.547V279.489L18.9297 264.244V246.31Z" fill="#2DA547"/>
<path d="M105.299 233.934V251.877L49.626 279.489V261.547L105.299 233.934Z" fill="#2DA547"/>
<path opacity="0.3" d="M105.299 233.934V251.877L49.626 279.489V261.547L105.299 233.934Z" fill="white"/>
<path d="M94.0752 277.332C94.0752 273.326 97.1544 269.329 103.303 266.272C115.592 260.166 135.53 260.166 147.828 266.272C153.977 269.329 157.047 273.326 157.047 277.332V291.432C157.047 295.43 153.977 299.435 147.828 302.484C135.53 308.59 115.592 308.59 103.303 302.484C97.1449 299.435 94.0752 295.43 94.0752 291.432V277.332Z" fill="#263238"/>
<path d="M147.828 266.272C153.977 269.329 157.047 273.326 157.047 277.332C157.047 281.337 153.977 285.334 147.828 288.383C135.53 294.489 115.592 294.489 103.294 288.383C97.1544 285.334 94.0752 281.329 94.0752 277.332C94.0752 273.335 97.1544 269.329 103.303 266.272C115.592 260.166 135.53 260.166 147.828 266.272Z" fill="#455A64"/>
<path d="M388.395 209.527L411.004 220.75L388.395 231.973L365.795 220.75L388.395 209.527Z" fill="#2DA547"/>
<path opacity="0.2" d="M388.395 209.527L411.004 220.75L388.395 231.973L365.795 220.75L388.395 209.527Z" fill="white"/>
<path d="M365.795 220.75V243.197L388.395 254.42V231.974L365.795 220.75Z" fill="#2DA547"/>
<path d="M411.004 220.75V243.197L388.395 254.42V231.974L411.004 220.75Z" fill="#2DA547"/>
<path opacity="0.2" d="M411.004 220.75V243.197L388.395 254.42V231.974L411.004 220.75Z" fill="#263238"/>
<path d="M280.252 276.425V287.215C280.256 287.477 280.374 287.729 280.584 287.919C280.793 288.11 281.079 288.226 281.383 288.245L289.936 288.711V299.125C289.948 299.235 289.992 299.342 290.065 299.434C290.139 299.525 290.238 299.599 290.354 299.648L299.402 304.144C299.757 304.291 300.149 304.358 300.542 304.34C300.836 304.347 301.128 304.3 301.398 304.201L310.569 300.547C311.235 300.321 311.967 300.283 312.66 300.441C314.993 301.06 317.37 301.546 319.778 301.896C320.097 301.953 320.391 302.087 320.624 302.283C320.858 302.478 321.023 302.727 321.099 302.999L322.249 308.198C322.314 308.468 322.489 308.708 322.743 308.877C322.98 309.05 323.278 309.148 323.589 309.154H336.894C337.173 309.143 337.44 309.054 337.654 308.901C337.721 308.901 337.759 308.819 337.825 308.77C337.89 308.728 337.95 308.682 338.006 308.631V308.509C338.082 308.402 338.205 308.321 338.234 308.198L339.374 302.999C339.452 302.726 339.618 302.477 339.854 302.282C340.089 302.087 340.385 301.953 340.705 301.896C343.109 301.547 345.484 301.061 347.814 300.441C348.509 300.283 349.245 300.32 349.914 300.547L359.076 304.201C359.257 304.25 359.446 304.277 359.636 304.283V304.332C359.741 304.34 359.846 304.34 359.95 304.332H360.197C360.498 304.32 360.793 304.253 361.062 304.136L370.1 299.64C370.233 299.579 370.345 299.489 370.423 299.378C370.468 299.317 370.491 299.246 370.49 299.174V294.751V288.776L378.9 288.318H379.062C379.147 288.318 379.195 288.245 379.28 288.228C379.492 288.195 379.689 288.113 379.851 287.991C379.937 287.88 379.999 287.755 380.031 287.624C380.079 287.517 380.183 287.427 380.183 287.297V281.509V277.422V271.643C380.179 271.381 380.061 271.129 379.851 270.938C379.642 270.747 379.357 270.631 379.052 270.613L370.499 270.147V259.766C370.498 259.65 370.458 259.536 370.384 259.439C370.309 259.342 370.204 259.265 370.081 259.218L361.043 254.722C360.736 254.588 360.399 254.511 360.054 254.499C359.71 254.486 359.366 254.537 359.047 254.649L349.99 258.253C349.323 258.476 348.592 258.513 347.899 258.36C345.566 257.741 343.188 257.255 340.781 256.905C340.46 256.846 340.164 256.711 339.929 256.514C339.694 256.317 339.528 256.067 339.45 255.793L338.31 250.602C338.244 250.337 338.076 250.098 337.833 249.924C337.59 249.751 337.286 249.653 336.97 249.646H323.665C323.35 249.656 323.048 249.755 322.805 249.928C322.563 250.101 322.394 250.338 322.325 250.602L321.184 255.793C321.107 256.067 320.941 256.317 320.706 256.514C320.47 256.711 320.175 256.846 319.854 256.905C317.448 257.25 315.073 257.736 312.745 258.36C312.049 258.513 311.315 258.476 310.645 258.253L301.483 254.6C301.162 254.49 300.817 254.44 300.471 254.453C300.126 254.465 299.787 254.54 299.478 254.673L290.44 259.169C290.314 259.218 290.208 259.297 290.134 259.398C290.059 259.498 290.02 259.614 290.022 259.733V270.098L281.468 270.564C281.164 270.582 280.879 270.698 280.669 270.889C280.46 271.08 280.341 271.331 280.337 271.594V276.237C280.304 276.298 280.276 276.361 280.252 276.425ZM314.997 280.095C323.437 275.902 337.113 275.902 345.552 280.095C346.189 280.406 346.778 280.733 347.32 281.06C346.754 281.425 346.164 281.76 345.552 282.065C337.113 286.25 323.437 286.25 314.997 282.065C314.389 281.758 313.799 281.425 313.23 281.068C313.771 280.733 314.361 280.414 314.997 280.095Z" fill="#37474F"/>
<path d="M280.242 276.425V287.215C280.246 287.477 280.365 287.729 280.574 287.919C280.784 288.11 281.069 288.226 281.373 288.245L289.926 288.711V299.125C289.938 299.235 289.982 299.342 290.056 299.434C290.129 299.525 290.228 299.599 290.345 299.648L299.392 304.136C299.743 304.294 300.138 304.364 300.533 304.34C300.826 304.347 301.118 304.3 301.388 304.201L310.559 300.547C310.833 300.454 311.121 300.393 311.414 300.367C311.828 300.323 312.247 300.348 312.65 300.441C314.983 301.06 317.361 301.546 319.768 301.896C319.967 301.931 320.157 301.998 320.329 302.092V302.149C320.696 302.326 320.969 302.619 321.089 302.967L322.239 308.165C322.309 308.434 322.483 308.673 322.733 308.844C322.97 309.016 323.269 309.111 323.579 309.114H336.884H337.131C337.479 309.046 337.787 308.872 337.996 308.623V308.501C338.072 308.394 338.196 308.313 338.224 308.19L339.365 302.991C339.45 302.7 339.639 302.44 339.906 302.247C340.128 302.073 340.401 301.954 340.695 301.904C343.1 301.555 345.475 301.069 347.804 300.449C348.263 300.346 348.742 300.327 349.21 300.392C349.447 300.411 349.68 300.455 349.904 300.522L359.066 304.176C359.247 304.227 359.436 304.254 359.627 304.258V304.307C360.118 304.365 360.618 304.294 361.062 304.103L370.1 299.615C370.171 299.58 370.238 299.539 370.299 299.493C370.355 299.447 370.403 299.394 370.442 299.337C370.489 299.267 370.518 299.189 370.527 299.108V288.719L372.095 288.629L378.948 288.253H379.1C379.4 288.233 379.681 288.119 379.89 287.932C380.099 287.745 380.22 287.498 380.231 287.239V277.365C380.227 277.627 380.108 277.879 379.899 278.07C379.689 278.26 379.404 278.376 379.1 278.395L367.058 279.057C366.722 279.094 366.4 279.196 366.117 279.356C365.833 279.516 365.596 279.73 365.424 279.981C364.721 281.086 363.863 282.113 362.867 283.038C362.765 283.123 362.687 283.226 362.637 283.34C362.588 283.455 362.569 283.577 362.582 283.699C362.595 283.82 362.639 283.938 362.711 284.043C362.784 284.147 362.882 284.237 363 284.305L370.166 288.735C370.281 288.787 370.376 288.866 370.44 288.962C370.504 289.059 370.534 289.17 370.527 289.281C370.52 289.392 370.476 289.499 370.4 289.589C370.324 289.68 370.22 289.749 370.1 289.79L361.062 294.286C360.751 294.416 360.413 294.49 360.068 294.503C359.723 294.516 359.378 294.467 359.056 294.359L349.99 290.705C349.322 290.474 348.584 290.437 347.889 290.599C345.56 291.219 343.185 291.705 340.781 292.054C340.461 292.113 340.167 292.247 339.932 292.442C339.697 292.637 339.53 292.885 339.45 293.158L338.31 298.356C338.239 298.62 338.07 298.857 337.828 299.029C337.586 299.202 337.284 299.302 336.97 299.313H323.665C323.349 299.304 323.046 299.206 322.803 299.033C322.561 298.859 322.392 298.621 322.325 298.356L321.175 293.158C321.099 292.886 320.936 292.638 320.704 292.443C320.472 292.248 320.18 292.113 319.863 292.054C317.451 291.706 315.07 291.217 312.735 290.591C312.042 290.436 311.309 290.476 310.645 290.705L301.473 294.359C301.153 294.467 300.81 294.515 300.467 294.503C300.123 294.49 299.786 294.416 299.478 294.286L290.43 289.79C290.313 289.747 290.212 289.677 290.139 289.587C290.066 289.497 290.024 289.391 290.018 289.282C290.012 289.173 290.042 289.064 290.105 288.969C290.168 288.873 290.261 288.795 290.373 288.743L297.539 284.305C297.657 284.237 297.756 284.147 297.828 284.043C297.901 283.938 297.945 283.82 297.957 283.699C297.97 283.577 297.951 283.455 297.902 283.34C297.852 283.226 297.774 283.123 297.672 283.038C296.68 282.111 295.821 281.085 295.115 279.981C294.944 279.731 294.708 279.518 294.427 279.358C294.145 279.198 293.825 279.095 293.49 279.057L281.44 278.403C281.135 278.382 280.851 278.264 280.644 278.072C280.436 277.88 280.32 277.627 280.318 277.365V276.237C280.285 276.297 280.259 276.36 280.242 276.425Z" fill="#263238"/>
<path d="M289.974 259.733V270.09L293.452 269.902C293.788 269.864 294.109 269.76 294.39 269.598C294.672 269.437 294.907 269.222 295.077 268.97C295.783 267.868 296.641 266.844 297.634 265.921C297.736 265.836 297.814 265.733 297.863 265.618C297.913 265.504 297.932 265.381 297.919 265.26C297.906 265.138 297.862 265.021 297.79 264.916C297.717 264.811 297.618 264.722 297.501 264.654L290.335 260.215C290.238 260.162 290.156 260.092 290.096 260.008C290.035 259.925 289.996 259.831 289.983 259.733H289.974Z" fill="#263238"/>
<path d="M362.915 265.921C363.911 266.843 364.769 267.867 365.472 268.97C365.643 269.223 365.879 269.438 366.163 269.6C366.446 269.762 366.769 269.865 367.106 269.902L370.566 270.09V259.708C370.557 259.812 370.52 259.912 370.457 260C370.394 260.088 370.308 260.162 370.205 260.215L363.039 264.654C362.922 264.722 362.824 264.812 362.752 264.918C362.681 265.023 362.637 265.141 362.625 265.262C362.614 265.384 362.633 265.506 362.684 265.62C362.734 265.734 362.813 265.837 362.915 265.921Z" fill="#263238"/>
<path d="M359.113 254.6L349.99 258.253C349.323 258.476 348.592 258.513 347.899 258.36C345.566 257.741 343.188 257.255 340.781 256.905C340.459 256.846 340.164 256.711 339.929 256.514C339.693 256.317 339.527 256.067 339.45 255.793L338.31 250.602C338.244 250.337 338.075 250.098 337.832 249.924C337.589 249.751 337.285 249.653 336.97 249.646H323.664C323.35 249.656 323.047 249.755 322.805 249.928C322.562 250.101 322.394 250.338 322.324 250.602L321.184 255.793C321.107 256.067 320.941 256.317 320.705 256.514C320.47 256.711 320.175 256.846 319.853 256.905C317.448 257.25 315.073 257.736 312.745 258.36C312.049 258.513 311.315 258.476 310.644 258.253L301.483 254.6C301.161 254.49 300.817 254.44 300.471 254.453C300.126 254.465 299.787 254.54 299.478 254.673L290.44 259.169C290.319 259.208 290.213 259.277 290.137 259.366C290.061 259.456 290.016 259.563 290.009 259.673C290.002 259.784 290.033 259.895 290.097 259.991C290.162 260.087 290.258 260.165 290.373 260.215L297.539 264.654C297.657 264.722 297.756 264.811 297.828 264.916C297.9 265.021 297.945 265.139 297.957 265.26C297.97 265.382 297.951 265.504 297.902 265.618C297.852 265.733 297.774 265.836 297.672 265.921C296.677 266.843 295.818 267.867 295.115 268.97C294.945 269.222 294.71 269.437 294.429 269.598C294.147 269.76 293.826 269.864 293.49 269.902L281.44 270.556C281.135 270.574 280.85 270.69 280.641 270.881C280.431 271.072 280.313 271.323 280.309 271.586V277.365C280.31 277.629 280.428 277.882 280.637 278.075C280.847 278.267 281.134 278.384 281.44 278.403L293.49 279.057C293.826 279.095 294.147 279.199 294.429 279.36C294.71 279.522 294.945 279.737 295.115 279.989C295.818 281.092 296.677 282.116 297.672 283.038C297.774 283.123 297.852 283.226 297.902 283.34C297.951 283.455 297.97 283.577 297.957 283.699C297.945 283.82 297.9 283.938 297.828 284.043C297.756 284.147 297.657 284.237 297.539 284.305L290.373 288.735C290.258 288.787 290.163 288.866 290.099 288.962C290.035 289.059 290.005 289.17 290.012 289.281C290.019 289.392 290.063 289.499 290.139 289.589C290.215 289.679 290.319 289.749 290.44 289.79L299.478 294.277C299.786 294.411 300.125 294.488 300.47 294.502C300.816 294.516 301.161 294.467 301.483 294.359L310.644 290.705C311.312 290.474 312.05 290.437 312.745 290.599C315.074 291.219 317.449 291.705 319.853 292.054C320.173 292.113 320.467 292.247 320.702 292.442C320.937 292.637 321.104 292.885 321.184 293.158L322.324 298.356C322.394 298.62 322.563 298.856 322.806 299.028C323.048 299.199 323.35 299.297 323.664 299.305H336.97C337.284 299.298 337.587 299.201 337.83 299.029C338.073 298.857 338.242 298.62 338.31 298.356L339.45 293.158C339.53 292.885 339.697 292.637 339.932 292.442C340.167 292.247 340.461 292.113 340.781 292.054C343.188 291.704 345.566 291.218 347.899 290.599C348.591 290.437 349.325 290.475 349.99 290.705L359.161 294.359C359.481 294.467 359.825 294.516 360.169 294.502C360.513 294.488 360.849 294.411 361.157 294.277L370.195 289.79C370.315 289.749 370.419 289.679 370.495 289.589C370.571 289.499 370.615 289.392 370.622 289.281C370.629 289.17 370.599 289.059 370.535 288.962C370.471 288.866 370.376 288.787 370.261 288.735L363.095 284.305C362.977 284.237 362.879 284.147 362.806 284.043C362.734 283.938 362.689 283.82 362.677 283.699C362.664 283.577 362.683 283.455 362.732 283.34C362.782 283.226 362.86 283.123 362.962 283.038C363.957 282.116 364.816 281.092 365.519 279.989C365.689 279.737 365.924 279.522 366.205 279.36C366.487 279.199 366.808 279.095 367.144 279.057L379.195 278.403C379.5 278.384 379.787 278.267 379.997 278.075C380.206 277.882 380.324 277.629 380.325 277.365V271.586C380.321 271.323 380.203 271.072 379.993 270.881C379.784 270.69 379.499 270.574 379.195 270.556L367.144 269.902C366.808 269.864 366.487 269.76 366.205 269.598C365.924 269.437 365.689 269.222 365.519 268.97C364.816 267.867 363.957 266.843 362.962 265.921C362.86 265.836 362.782 265.733 362.732 265.618C362.683 265.504 362.664 265.382 362.677 265.26C362.689 265.139 362.734 265.021 362.806 264.916C362.879 264.811 362.977 264.722 363.095 264.654L370.261 260.215C370.376 260.165 370.472 260.087 370.537 259.991C370.601 259.895 370.632 259.784 370.625 259.673C370.618 259.563 370.574 259.456 370.497 259.366C370.421 259.277 370.315 259.208 370.195 259.169L361.157 254.673C360.842 254.535 360.497 254.456 360.144 254.444C359.792 254.431 359.44 254.484 359.113 254.6ZM345.551 266.861C353.981 271.046 353.981 277.839 345.551 282.032C337.122 286.226 323.436 286.218 314.997 282.032C306.558 277.847 306.567 271.046 314.997 266.861C323.427 262.676 337.112 262.7 345.551 266.894V266.861Z" fill="#455A64"/>
<path d="M370.575 289.259C370.568 289.153 370.531 289.05 370.468 288.959C370.406 288.868 370.318 288.792 370.214 288.735L366.603 286.504V279.147C366.763 279.091 366.933 279.058 367.106 279.049L379.147 278.387C379.452 278.368 379.737 278.252 379.946 278.062C380.156 277.871 380.274 277.619 380.278 277.357V287.223C380.268 287.482 380.146 287.729 379.938 287.916C379.729 288.103 379.448 288.217 379.147 288.237H378.995L372.143 288.613L370.575 288.703V289.259Z" fill="#37474F"/>
<path d="M349.258 290.55C349.494 290.573 349.724 290.625 349.942 290.706L359.104 294.359C359.477 294.488 359.884 294.531 360.282 294.482V304.332C360.077 304.352 359.87 304.352 359.664 304.332V304.283C359.474 304.279 359.285 304.252 359.104 304.201L349.99 300.547C349.769 300.48 349.539 300.436 349.305 300.417L349.258 290.55Z" fill="#37474F"/>
<path d="M338.092 298.724C338.168 298.609 338.226 298.485 338.263 298.356L339.403 293.158C339.439 293.019 339.5 292.887 339.584 292.765V302.574C339.498 302.692 339.437 302.822 339.403 302.958L338.263 308.157C338.227 308.248 338.168 308.332 338.092 308.402V298.724Z" fill="#37474F"/>
<path opacity="0.15" d="M320.966 292.765C321.049 292.886 321.107 293.019 321.137 293.158L322.287 298.356C322.32 298.486 322.377 298.611 322.458 298.724V308.533C322.377 308.42 322.32 308.295 322.287 308.165L321.137 302.967C321.106 302.841 321.048 302.722 320.966 302.615V292.765Z" fill="black"/>
<path opacity="0.15" d="M300.267 294.482C300.662 294.531 301.065 294.489 301.436 294.359L310.607 290.706C310.825 290.625 311.055 290.573 311.291 290.55V300.359C311.056 300.386 310.826 300.438 310.607 300.515L301.436 304.169C301.166 304.268 300.874 304.315 300.58 304.308H300.267V294.482Z" fill="black"/>
<path opacity="0.15" d="M281.403 278.403L293.453 279.057C293.623 279.066 293.79 279.099 293.947 279.155V286.512L290.336 288.752C290.233 288.807 290.146 288.882 290.084 288.972C290.021 289.062 289.984 289.163 289.975 289.267V288.719L281.422 288.253C281.117 288.235 280.832 288.119 280.623 287.928C280.413 287.737 280.295 287.486 280.291 287.223V276.433C280.281 276.363 280.281 276.291 280.291 276.221V277.373C280.294 277.633 280.41 277.882 280.616 278.073C280.821 278.263 281.102 278.381 281.403 278.403Z" fill="black"/>
<path d="M351.262 218.822C351.255 218.758 351.232 218.697 351.196 218.642C351.196 215.372 351.196 209.707 351.196 209.348C351.19 209.187 351.123 209.032 351.006 208.906L347.632 204.86C347.474 204.674 347.264 204.525 347.022 204.426C346.779 204.328 346.512 204.283 346.244 204.296L337.425 205.571C336.819 205.585 336.224 205.427 335.733 205.122C335.192 204.795 334.602 204.476 333.985 204.173V198.141C333.985 197.896 333.719 197.667 333.281 197.577L324.329 195.738C324.085 195.677 323.828 195.667 323.578 195.709C323.329 195.75 323.095 195.841 322.894 195.975L318.627 199.849C318.228 200.119 317.727 200.253 317.22 200.225C315.277 200.119 313.328 200.119 311.385 200.225C310.794 200.208 310.233 199.998 309.817 199.637L306.015 196.171C305.829 195.995 305.596 195.86 305.336 195.777C305.077 195.695 304.798 195.667 304.523 195.697L295.219 197.601C295.078 197.626 294.952 197.693 294.864 197.791C294.775 197.888 294.729 198.009 294.734 198.133C294.734 198.468 294.734 201.329 294.734 204.116C294.021 204.463 293.33 204.843 292.663 205.252C292.193 205.473 291.651 205.554 291.123 205.481L282.513 204.304C282.272 204.263 282.024 204.273 281.789 204.332C281.553 204.392 281.339 204.5 281.163 204.647L277.447 209.094C277.399 209.152 277.373 209.22 277.371 209.29C277.371 209.961 277.371 220.734 277.371 220.841C277.375 220.906 277.402 220.968 277.447 221.02C277.447 224.347 277.447 226.742 277.447 226.865C277.451 227.036 277.518 227.202 277.637 227.339L281.011 231.385C281.17 231.571 281.38 231.72 281.622 231.818C281.864 231.917 282.131 231.962 282.399 231.949L291.218 230.666C291.819 230.648 292.411 230.794 292.91 231.083C293.461 231.418 294.041 231.729 294.658 232.039V238.047C294.658 238.293 294.924 238.53 295.362 238.628L304.314 240.467C304.561 240.527 304.821 240.537 305.074 240.496C305.326 240.455 305.564 240.364 305.768 240.23L310.045 236.355C310.442 236.082 310.944 235.947 311.451 235.979C313.395 236.082 315.343 236.082 317.287 235.979C317.876 235.996 318.436 236.203 318.855 236.56L322.656 240.034C322.844 240.209 323.077 240.343 323.336 240.425C323.595 240.508 323.874 240.536 324.148 240.508L333.462 238.595C333.584 238.573 333.694 238.519 333.778 238.439C333.862 238.36 333.914 238.26 333.928 238.154C333.928 238.023 333.928 232.056 333.928 232.056C334.641 231.711 335.332 231.335 335.999 230.928C336.466 230.699 337.01 230.618 337.539 230.699L346.092 231.941C346.333 231.983 346.583 231.973 346.818 231.911C347.054 231.85 347.268 231.74 347.442 231.59L351.158 227.143C351.204 227.085 351.23 227.017 351.234 226.947C351.234 226.734 351.234 219.238 351.234 218.83L351.262 218.822ZM301.434 219.05C301.843 218.805 302.29 218.568 302.765 218.323C309.161 215.151 319.529 215.151 325.925 218.323C326.391 218.56 326.828 218.797 327.218 219.042C326.772 219.339 326.306 219.612 325.821 219.86C321.269 222.083 314.321 222.868 308.059 221.585C306.221 221.221 304.452 220.638 302.803 219.852C302.327 219.599 301.869 219.321 301.434 219.018V219.05Z" fill="#37474F"/>
<path d="M296.767 203.241C296.055 203.527 295.361 203.83 294.705 204.149C294.705 201.361 294.705 198.5 294.705 198.165C294.706 198.274 294.739 198.381 294.8 198.476L297.033 202.277C297.091 202.355 297.129 202.442 297.147 202.533C297.164 202.624 297.16 202.717 297.136 202.807C297.111 202.897 297.066 202.981 297.002 203.056C296.939 203.131 296.859 203.194 296.767 203.241Z" fill="#263238"/>
<path opacity="0.15" d="M286.476 212.748C286.319 213.579 286.319 214.427 286.476 215.258C286.509 215.44 286.468 215.627 286.361 215.788C286.254 215.948 286.087 216.072 285.887 216.141L277.828 218.331C277.718 218.36 277.623 218.418 277.556 218.498C277.489 218.578 277.454 218.674 277.457 218.773V221.021C277.417 220.973 277.394 220.916 277.391 220.857C277.391 216.917 277.391 210.345 277.391 209.773V209.291C277.391 209.495 277.647 209.699 278.037 209.806L285.64 211.882C285.872 211.924 286.081 212.033 286.233 212.19C286.385 212.347 286.471 212.544 286.476 212.748Z" fill="black"/>
<path opacity="0.15" d="M291.513 222.541V230.666C291.406 230.653 291.297 230.653 291.19 230.666L282.371 231.933C282.223 231.96 282.071 231.96 281.924 231.933V223.816C282.077 223.844 282.236 223.844 282.389 223.816L291.209 222.541C291.31 222.528 291.412 222.528 291.513 222.541Z" fill="black"/>
<path d="M294.63 232.031C294.022 231.728 293.432 231.418 292.881 231.083C292.468 230.855 292 230.713 291.513 230.666V222.541C292.006 222.582 292.48 222.728 292.891 222.966C294.028 223.631 295.223 224.221 296.464 224.731C296.987 224.952 297.281 225.344 297.11 225.647L294.687 229.775C294.658 229.829 294.642 229.887 294.639 229.946C294.639 230.183 294.63 232.031 294.63 232.031Z" fill="#263238"/>
<path opacity="0.15" d="M310.549 228.009V236.134C310.348 236.188 310.164 236.277 310.007 236.396L305.721 240.271C305.504 240.433 305.229 240.528 304.941 240.54V232.415C305.235 232.412 305.518 232.32 305.74 232.154L310.035 228.271C310.18 228.15 310.356 228.06 310.549 228.009Z" fill="black"/>
<path d="M317.81 227.919V236.044C317.627 235.998 317.439 235.974 317.249 235.971C315.306 236.069 313.357 236.069 311.414 235.971C311.12 235.961 310.826 236 310.549 236.085V228.009C310.832 227.923 311.132 227.884 311.433 227.895C313.373 228.001 315.318 228.001 317.258 227.895C317.442 227.876 317.629 227.885 317.81 227.919Z" fill="#263238"/>
<path opacity="0.15" d="M323.512 232.342V240.459C323.188 240.38 322.893 240.231 322.657 240.025L318.855 236.551C318.573 236.313 318.227 236.139 317.848 236.045V227.919C318.233 228.017 318.586 228.193 318.874 228.434L322.676 231.9C322.906 232.106 323.194 232.258 323.512 232.342Z" fill="black"/>
<path d="M333.946 230.037V232.047V235.244C333.946 236.682 333.946 238.088 333.946 238.145C333.932 238.253 333.879 238.354 333.793 238.433C333.708 238.513 333.595 238.567 333.471 238.587L324.167 240.5C323.958 240.547 323.739 240.547 323.53 240.5V232.342C323.742 232.399 323.967 232.413 324.186 232.383L333.49 230.462C333.609 230.443 333.718 230.391 333.801 230.314C333.883 230.238 333.934 230.14 333.946 230.037Z" fill="#37474F"/>
<path opacity="0.15" d="M336.95 222.549V230.674C336.615 230.687 336.288 230.771 336 230.919C335.335 231.329 334.643 231.706 333.928 232.047C333.928 232.047 333.928 230.192 333.928 229.938C333.928 229.824 333.896 229.712 333.833 229.611L331.6 225.802C331.542 225.724 331.503 225.636 331.485 225.545C331.468 225.453 331.472 225.359 331.498 225.269C331.523 225.179 331.57 225.094 331.635 225.02C331.7 224.946 331.782 224.884 331.875 224.838C333.322 224.268 334.706 223.587 336.009 222.802C336.293 222.65 336.617 222.563 336.95 222.549Z" fill="black"/>
<path d="M351.262 218.821C351.262 219.222 351.262 226.718 351.262 226.938C351.249 227.011 351.22 227.08 351.176 227.143L347.46 231.581C347.3 231.747 347.079 231.859 346.833 231.9V223.783C347.087 223.742 347.317 223.63 347.489 223.464L351.195 219.017C351.239 218.959 351.263 218.891 351.262 218.821Z" fill="#37474F"/>
<path d="M294.687 198.141C294.693 198.249 294.725 198.355 294.782 198.451L297.015 202.252C297.073 202.331 297.111 202.419 297.128 202.511C297.145 202.603 297.14 202.697 297.113 202.787C297.087 202.878 297.039 202.962 296.973 203.036C296.907 203.11 296.825 203.171 296.73 203.217C296.027 203.503 295.333 203.806 294.677 204.124C293.964 204.472 293.273 204.851 292.606 205.261C292.136 205.482 291.594 205.562 291.066 205.489L282.513 204.304C282.272 204.263 282.024 204.273 281.789 204.332C281.553 204.392 281.339 204.5 281.163 204.647L277.447 209.094C277.399 209.152 277.373 209.22 277.371 209.29C277.371 209.495 277.628 209.699 278.027 209.805L285.63 211.882C285.862 211.923 286.071 212.031 286.221 212.189C286.372 212.347 286.455 212.544 286.457 212.748C286.305 213.58 286.305 214.426 286.457 215.258C286.488 215.441 286.446 215.629 286.337 215.789C286.229 215.95 286.059 216.074 285.858 216.14L277.799 218.331C277.689 218.36 277.594 218.418 277.527 218.498C277.46 218.578 277.425 218.674 277.428 218.773C277.438 218.935 277.504 219.092 277.618 219.222L280.992 223.26C281.15 223.449 281.361 223.599 281.605 223.698C281.85 223.797 282.12 223.84 282.389 223.824L291.199 222.549C291.798 222.523 292.39 222.67 292.881 222.966C294.02 223.635 295.218 224.225 296.464 224.732C296.987 224.952 297.272 225.345 297.101 225.639L294.677 229.775C294.506 230.069 294.801 230.388 295.333 230.503L304.286 232.342C304.531 232.402 304.788 232.413 305.039 232.373C305.29 232.333 305.526 232.244 305.73 232.113L310.016 228.23C310.414 227.959 310.916 227.825 311.423 227.854C313.363 227.956 315.308 227.956 317.249 227.854C317.842 227.865 318.407 228.073 318.826 228.434L322.628 231.909C322.818 232.08 323.052 232.212 323.31 232.294C323.569 232.376 323.846 232.406 324.12 232.383L333.433 230.462C333.528 230.439 333.616 230.397 333.69 230.34C333.763 230.283 333.82 230.212 333.857 230.133C333.894 230.054 333.909 229.969 333.901 229.884C333.894 229.8 333.864 229.718 333.814 229.644L331.58 225.835C331.522 225.757 331.483 225.669 331.466 225.578C331.448 225.486 331.452 225.392 331.478 225.302C331.504 225.212 331.551 225.127 331.615 225.053C331.68 224.979 331.762 224.917 331.856 224.871C333.306 224.304 334.69 223.619 335.99 222.827C336.456 222.607 336.995 222.526 337.52 222.598L346.073 223.832C346.314 223.876 346.564 223.868 346.801 223.81C347.038 223.752 347.255 223.644 347.432 223.497L351.129 219.05C351.183 218.996 351.214 218.926 351.215 218.854C351.207 218.791 351.184 218.73 351.148 218.674C351.009 218.504 350.803 218.383 350.569 218.331L342.966 216.255C342.733 216.213 342.524 216.104 342.372 215.947C342.22 215.789 342.135 215.593 342.129 215.388C342.286 214.56 342.286 213.715 342.129 212.887C342.098 212.703 342.14 212.516 342.248 212.355C342.357 212.195 342.526 212.071 342.728 212.004L350.787 209.805C350.894 209.779 350.988 209.723 351.055 209.646C351.122 209.57 351.158 209.476 351.158 209.38C351.152 209.219 351.085 209.065 350.968 208.939L347.594 204.893C347.436 204.707 347.226 204.557 346.983 204.459C346.741 204.36 346.474 204.316 346.206 204.329L337.387 205.604C336.789 205.601 336.209 205.432 335.733 205.122C335.192 204.795 334.602 204.476 333.985 204.173C333.367 203.871 332.797 203.618 332.169 203.356C331.542 203.094 331.343 202.743 331.523 202.449L333.947 198.312C333.976 198.261 333.992 198.206 333.994 198.149C333.994 197.904 333.728 197.675 333.291 197.585L324.329 195.738C324.085 195.677 323.828 195.667 323.578 195.709C323.329 195.75 323.095 195.841 322.894 195.975L318.627 199.849C318.228 200.119 317.727 200.253 317.22 200.225C315.277 200.119 313.328 200.119 311.385 200.225C310.794 200.208 310.233 199.998 309.817 199.637L306.015 196.163C305.827 195.989 305.594 195.857 305.334 195.776C305.075 195.695 304.797 195.668 304.523 195.697L295.219 197.601C295.068 197.618 294.929 197.682 294.831 197.782C294.732 197.882 294.681 198.01 294.687 198.141ZM328.539 210.026L328.767 210.222L328.929 210.378C329.047 210.487 329.158 210.601 329.261 210.721C329.382 210.857 329.496 210.996 329.603 211.138C329.679 211.228 329.736 211.318 329.803 211.408L329.889 211.538C330.482 212.402 330.757 213.401 330.677 214.402C330.598 215.403 330.167 216.36 329.442 217.146C328.81 217.87 328.046 218.502 327.18 219.018C326.734 219.315 326.268 219.588 325.783 219.835C321.231 222.059 314.283 222.843 308.021 221.56C306.183 221.197 304.414 220.613 302.765 219.827C302.291 219.596 301.834 219.339 301.396 219.059C300.241 218.365 299.285 217.454 298.602 216.394C298.567 216.344 298.535 216.292 298.507 216.239C298.422 216.067 298.422 216.067 298.336 215.895C297.964 215.086 297.846 214.208 297.993 213.347C298.14 212.486 298.546 211.674 299.173 210.991C302.632 206.846 312.202 204.876 320.556 206.593C323.534 207.082 326.297 208.27 328.539 210.026Z" fill="#455A64"/>
<path d="M291.391 30.0212C290.886 29.5722 290.31 29.1869 289.68 28.8768C287.608 27.855 278.703 23.4164 278.104 23.1548C272.963 20.6371 265.75 24.3646 260.684 32.5143L191.06 144.804C182.117 159.215 181.433 177.501 189.549 184.572C190.244 185.186 191.03 185.72 191.887 186.157C193.921 187.195 202.693 191.536 203.538 191.953C211.731 196.04 223.496 188.969 230.624 175.032L291.714 55.2224C296.656 45.5195 296.523 34.5006 291.391 30.0212Z" fill="#2DA547"/>
<path opacity="0.3" d="M291.391 30.0212C290.886 29.5722 290.31 29.1869 289.68 28.8768C287.608 27.855 278.703 23.4164 278.104 23.1548C272.963 20.6371 265.75 24.3646 260.684 32.5143L191.06 144.804C182.117 159.215 181.433 177.501 189.549 184.572C190.244 185.186 191.03 185.72 191.887 186.157C193.921 187.195 202.693 191.536 203.538 191.953C211.731 196.04 223.496 188.969 230.624 175.032L291.714 55.2224C296.656 45.5195 296.523 34.5006 291.391 30.0212Z" fill="white"/>
<path opacity="0.6" d="M291.714 55.2222L230.625 175.032C222.784 190.408 209.241 197.429 201.163 190.326C193.047 183.223 193.731 164.986 202.665 150.558L272.26 38.2279C277.906 29.1218 286.269 25.5333 291.391 30.0537C296.523 34.5005 296.656 45.5194 291.714 55.2222Z" fill="#2DA547"/>
<path d="M211.949 180.329C214.021 181.146 216.701 180.77 219.457 179.086C224.988 175.719 228.828 168.296 228.01 162.509C227.621 159.615 226.11 157.67 224.076 156.877C222.812 156.395 220.911 155.692 219.657 155.242C217.585 154.425 214.905 154.801 212.158 156.485C206.627 159.852 202.778 167.275 203.605 173.062C203.995 175.956 205.506 177.893 207.549 178.686L211.949 180.329Z" fill="#263238"/>
<path d="M228.039 162.509C227.649 159.616 226.138 157.67 224.105 156.877C222.071 156.084 219.353 156.436 216.597 158.12C211.065 161.487 207.226 168.918 208.043 174.705C208.442 177.599 209.944 179.536 211.987 180.329C214.031 181.122 216.739 180.77 219.495 179.087C224.988 175.694 228.828 168.337 228.039 162.509Z" fill="#455A64"/>
<path d="M280.423 52.9093C281.564 53.3507 283.027 53.1545 284.548 52.2308C286.136 51.1539 287.397 49.7626 288.225 48.1755C289.052 46.5884 289.421 44.8527 289.3 43.1165C289.081 41.4817 288.273 40.4517 287.133 40.0185L284.7 39.0948C283.559 38.6616 282.096 38.8578 280.575 39.7814C278.987 40.8583 277.726 42.2496 276.898 43.8367C276.071 45.4238 275.702 47.1595 275.823 48.8957C275.839 49.5298 276.048 50.1492 276.428 50.6927C276.808 51.2361 277.346 51.6846 277.99 51.9938L280.423 52.9093Z" fill="#263238"/>
<path d="M289.271 43.1161C289.053 41.4812 288.235 40.4513 287.104 40.018C285.973 39.5848 284.5 39.7728 282.98 40.7047C281.389 41.7797 280.126 43.1707 279.298 44.7582C278.47 46.3458 278.103 48.0824 278.228 49.819C278.446 51.4129 279.254 52.4756 280.395 52.9088C281.535 53.3421 282.999 53.154 284.519 52.2304C286.107 51.1535 287.369 49.7621 288.196 48.1751C289.024 46.588 289.393 44.8523 289.271 43.1161Z" fill="#455A64"/>
<path d="M290.327 29.0976C288.126 28.0717 285.555 27.8029 283.133 28.3455L175.551 48.0291C169.544 49.1245 163.034 55.3205 160.735 62.1215C159.014 67.2222 160.117 71.3175 163.205 72.8788C164.232 73.402 169.658 76.0913 171.018 76.7534C172.13 77.2642 173.394 77.4777 174.648 77.3665L278.029 70.1323C287.248 69.4865 298.072 59.8164 301.788 48.9365C304.383 41.2608 302.672 35.1956 298.072 32.9068C296.77 32.2692 291.629 29.7515 290.327 29.0976Z" fill="#2DA547"/>
<path opacity="0.5" d="M290.327 29.0976C288.126 28.0717 285.555 27.8029 283.133 28.3455L175.551 48.0291C169.544 49.1245 163.034 55.3205 160.735 62.1215C159.014 67.2222 160.117 71.3175 163.205 72.8788C164.232 73.402 169.658 76.0913 171.018 76.7534C172.13 77.2642 173.394 77.4777 174.648 77.3665L278.029 70.1323C287.248 69.4865 298.072 59.8164 301.788 48.9365C304.383 41.2608 302.672 35.1956 298.072 32.9068C296.77 32.2692 291.629 29.7515 290.327 29.0976Z" fill="white"/>
<path opacity="0.3" d="M174.647 77.3663L278.029 70.1321C287.247 69.4864 298.072 59.8162 301.788 48.9363C305.466 38.0646 300.495 30.4135 290.906 32.1709L183.267 51.8545C177.27 52.9499 170.751 59.1459 168.461 65.9469C166.161 72.7479 168.879 77.7669 174.647 77.3663Z" fill="white"/>
<path d="M263.791 253.979V242.723H254.003C252.995 242.135 251.902 241.555 250.733 240.974C233.266 232.293 204.945 232.293 187.467 240.974C186.308 241.555 185.215 242.135 184.208 242.723H174.343V253.996C174.172 258.557 178.524 263.126 187.429 267.549C204.897 276.222 233.228 276.222 250.695 267.549C259.61 263.102 263.963 258.541 263.791 253.979Z" fill="#263238"/>
<path d="M187.477 258.409C170.009 249.737 170.009 235.669 187.477 226.996C204.945 218.323 233.275 218.323 250.743 226.996C268.211 235.669 268.211 249.737 250.743 258.409C233.275 267.082 204.907 267.091 187.477 258.409Z" fill="#37474F"/>
<path d="M249.916 241.767V180.599C249.986 177.264 249.283 173.95 247.847 170.851C246.412 167.752 244.273 164.93 241.555 162.55C238.838 160.171 235.596 158.28 232.02 156.99C228.443 155.699 224.604 155.035 220.726 155.035C216.847 155.035 213.008 155.699 209.431 156.99C205.855 158.28 202.614 160.171 199.896 162.55C197.178 164.93 195.039 167.752 193.604 170.851C192.168 173.95 191.465 177.264 191.535 180.599V241.906C191.535 245.601 194.386 249.263 200.088 252.091C211.493 257.69 230.015 257.666 241.372 252.026C247.008 249.23 249.84 245.568 249.926 241.906L249.916 241.767Z" fill="#455A64"/>
<path d="M231.26 215.102C231.333 213.941 231.725 212.811 232.404 211.805C233.083 210.799 234.03 209.945 235.166 209.315C235.573 209.056 236.056 208.901 236.56 208.868C237.065 208.835 237.57 208.925 238.017 209.127L239.747 210.026L239.034 211.105C239.034 211.146 239.034 211.187 239.034 211.228C238.961 212.387 238.57 213.515 237.893 214.52C237.216 215.524 236.271 216.377 235.138 217.007L234.33 218.233L232.429 217.244H232.363C231.978 217 231.675 216.675 231.481 216.299C231.288 215.923 231.212 215.511 231.26 215.102Z" fill="#2DA547"/>
<path opacity="0.3" d="M231.26 215.102C231.333 213.941 231.725 212.811 232.404 211.805C233.083 210.799 234.03 209.945 235.166 209.315C235.573 209.056 236.056 208.901 236.56 208.868C237.065 208.835 237.57 208.925 238.017 209.127L239.747 210.026L239.034 211.105C239.034 211.146 239.034 211.187 239.034 211.228C238.961 212.387 238.57 213.515 237.893 214.52C237.216 215.524 236.271 216.377 235.138 217.007L234.33 218.233L232.429 217.244H232.363C231.978 217 231.675 216.675 231.481 216.299C231.288 215.923 231.212 215.511 231.26 215.102Z" fill="black"/>
<path d="M240.973 212.2C240.897 213.36 240.505 214.488 239.828 215.494C239.151 216.499 238.209 217.353 237.077 217.988C234.92 219.058 233.171 218.2 233.171 216.075C233.244 214.915 233.635 213.787 234.313 212.783C234.99 211.778 235.934 210.926 237.067 210.296C239.225 209.208 240.973 210.083 240.973 212.2Z" fill="#2DA547"/>
<path d="M231.26 229.456C231.335 228.296 231.727 227.168 232.406 226.163C233.085 225.159 234.031 224.307 235.166 223.677C235.571 223.415 236.054 223.258 236.559 223.223C237.064 223.188 237.57 223.278 238.018 223.481L239.785 224.388L239.072 225.476C239.072 225.516 239.072 225.549 239.072 225.59C239.001 226.751 238.61 227.881 237.933 228.887C237.256 229.892 236.311 230.746 235.176 231.377L234.368 232.603L232.467 231.623H232.401C232.005 231.38 231.691 231.052 231.491 230.672C231.29 230.291 231.211 229.872 231.26 229.456Z" fill="#E0E0E0"/>
<path d="M240.973 226.563C240.9 227.722 240.509 228.85 239.832 229.855C239.155 230.859 238.211 231.712 237.077 232.342C234.92 233.413 233.171 232.555 233.171 230.437C233.247 229.277 233.64 228.149 234.316 227.144C234.993 226.139 235.936 225.284 237.067 224.65C239.225 223.579 240.973 224.438 240.973 226.563Z" fill="#F5F5F5"/>
<path d="M311.101 39.6256C310.594 39.1735 310.014 38.7854 309.381 38.473C307.318 37.4594 298.413 33.0126 297.805 32.7511C292.664 30.2334 285.45 33.9608 280.385 42.1024L210.761 154.441C201.827 168.852 201.134 187.138 209.25 194.201C209.945 194.818 210.731 195.354 211.588 195.795C213.621 196.824 222.393 201.165 223.239 201.59C231.431 205.677 243.197 198.598 250.325 184.669L311.414 64.8595C316.356 55.124 316.223 44.0887 311.101 39.6256Z" fill="#2DA547"/>
<path opacity="0.3" d="M311.101 39.6256C310.594 39.1735 310.014 38.7854 309.381 38.473C307.318 37.4594 298.413 33.0126 297.805 32.7511C292.664 30.2334 285.45 33.9608 280.385 42.1024L210.761 154.441C201.827 168.852 201.134 187.138 209.25 194.201C209.945 194.818 210.731 195.354 211.588 195.795C213.621 196.824 222.393 201.165 223.239 201.59C231.431 205.677 243.197 198.598 250.325 184.669L311.414 64.8595C316.356 55.124 316.223 44.0887 311.101 39.6256Z" fill="white"/>
<path opacity="0.3" d="M311.415 64.8273L250.325 184.637C242.484 200.013 228.942 207.035 220.863 199.931C212.747 192.828 213.432 174.591 222.374 160.164L291.961 47.8249C297.606 38.727 305.969 35.1385 311.101 39.6507C316.223 44.0893 316.357 55.1245 311.415 64.8273Z" fill="white"/>
<path d="M231.66 189.934C233.722 190.751 236.411 190.375 239.158 188.691C244.689 185.324 248.538 177.901 247.711 172.106C247.312 169.212 245.811 167.275 243.767 166.482L239.348 164.847C237.276 164.03 234.596 164.406 231.85 166.09C226.319 169.457 222.47 176.88 223.296 182.675C223.686 185.569 225.197 187.506 227.24 188.299L231.66 189.934Z" fill="#263238"/>
<path d="M247.75 172.106C247.351 169.212 245.849 167.275 243.806 166.482C241.762 165.689 239.054 166.041 236.298 167.725C230.767 171.092 226.927 178.515 227.744 184.31C228.134 187.204 229.645 189.141 231.679 189.934C233.713 190.727 236.431 190.375 239.187 188.692C244.69 185.324 248.539 177.902 247.75 172.106Z" fill="#455A64"/>
<path d="M300.125 62.5141C300.821 62.7223 301.569 62.7691 302.293 62.65C303.017 62.5309 303.692 62.2501 304.249 61.8357C305.84 60.7589 307.103 59.3664 307.931 57.7776C308.759 56.1887 309.126 54.451 309.001 52.7132C308.783 51.0784 307.975 50.0566 306.834 49.6234L304.373 48.6997C303.242 48.2664 301.769 48.4544 300.248 49.3863C298.66 50.4627 297.398 51.854 296.57 53.4412C295.743 55.0284 295.374 56.7643 295.497 58.5006C295.715 60.1354 296.532 61.1572 297.673 61.5905C298.386 61.8602 299.431 62.2526 300.125 62.5141Z" fill="#263238"/>
<path d="M308.972 52.7127C308.754 51.0779 307.946 50.0561 306.805 49.6228C305.665 49.1896 304.201 49.3776 302.681 50.3013C301.09 51.378 299.827 52.7705 298.999 54.3594C298.172 55.9482 297.804 57.686 297.929 59.4238C298.148 61.0096 298.955 62.0804 300.096 62.5136C300.792 62.7217 301.54 62.7686 302.264 62.6495C302.988 62.5304 303.663 62.2496 304.22 61.8352C305.811 60.7584 307.074 59.3659 307.902 57.7771C308.73 56.1882 309.097 54.4504 308.972 52.7127Z" fill="#455A64"/>
<path d="M163.879 43.2144C167.595 40.8112 171.178 40.2962 173.953 41.3916L190.917 49.8764L190.452 50.8165C191.649 52.3712 192.377 54.1579 192.571 56.0153C193.654 63.8054 188.627 73.9251 181.328 78.6253C179.647 79.7717 177.668 80.5488 175.559 80.8895L175.122 81.8541L158.206 73.3856C155.355 72.4537 153.226 69.8543 152.665 65.8326C151.544 58.0343 156.581 47.9146 163.879 43.2144Z" fill="#2DA547"/>
<path opacity="0.15" d="M163.879 43.2144C167.595 40.8112 171.178 40.2962 173.953 41.3916L190.917 49.8764L190.452 50.8165C191.649 52.3712 192.377 54.1579 192.571 56.0153C193.654 63.8054 188.627 73.9251 181.328 78.6253C179.647 79.7717 177.668 80.5488 175.559 80.8895L175.122 81.8541L158.206 73.3856C155.355 72.4537 153.226 69.8543 152.665 65.8326C151.544 58.0343 156.581 47.9146 163.879 43.2144Z" fill="black"/>
<path d="M181.196 51.8219C173.897 56.5303 168.841 66.65 169.953 74.4319C171.065 82.2138 177.832 84.7151 185.159 80.0149C192.486 75.3147 197.514 65.195 196.411 57.4049C195.309 49.6149 188.495 47.1217 181.196 51.8219Z" fill="#2DA547"/>
<path d="M176.833 69.9853C176.923 70.7971 177.222 71.5816 177.707 72.2823C178.99 74.0888 181.508 74.334 184.103 72.6583C185.921 71.3456 187.354 69.6834 188.287 67.8061C189.22 65.9289 189.626 63.8892 189.473 61.8519C189.13 59.3997 187.667 58.0918 185.719 58.0591C184.436 58.0742 183.199 58.4731 182.221 59.1871C180.4 60.4961 178.962 62.156 178.026 64.0321C177.09 65.9083 176.681 67.9478 176.833 69.9853Z" fill="#2DA547"/>
<path opacity="0.3" d="M176.833 69.9853C176.923 70.7971 177.222 71.5816 177.707 72.2823C178.99 74.0888 181.508 74.334 184.103 72.6583C185.921 71.3456 187.354 69.6834 188.287 67.8061C189.22 65.9289 189.626 63.8892 189.473 61.8519C189.13 59.3997 187.667 58.0918 185.719 58.0591C184.436 58.0742 183.199 58.4731 182.221 59.1871C180.4 60.4961 178.962 62.156 178.026 64.0321C177.09 65.9083 176.681 67.9478 176.833 69.9853Z" fill="black"/>
<path d="M176.833 69.9853C176.923 70.7971 177.222 71.5816 177.707 72.2823C178.992 72.2734 180.233 71.8771 181.214 71.1624C183.031 69.8514 184.465 68.1907 185.398 66.3147C186.33 64.4388 186.737 62.4003 186.583 60.3642C186.499 59.55 186.203 58.7623 185.719 58.0591C184.436 58.0742 183.199 58.4731 182.221 59.1871C180.4 60.4961 178.962 62.156 178.026 64.0321C177.09 65.9083 176.681 67.9478 176.833 69.9853Z" fill="#263238"/>
<path d="M122.406 71.8815C121.18 72.4619 120.41 73.7371 120.362 75.5681C120.445 77.5617 121.074 79.5104 122.197 81.256C123.319 83.0015 124.905 84.4947 126.825 85.6143C128.64 86.5625 130.313 86.6687 131.529 86.0965L166.759 69.3475C167.976 68.7671 168.755 67.492 168.793 65.6691C168.71 63.6763 168.083 61.7283 166.962 59.9829C165.841 58.2376 164.257 56.7439 162.34 55.623C160.515 54.6747 158.852 54.5603 157.588 55.1407L122.406 71.8815Z" fill="#263238"/>
<path d="M126.825 85.5731C128.64 86.5213 130.313 86.6276 131.529 86.0472C132.746 85.4668 133.525 84.1998 133.563 82.3688C133.484 80.3753 132.858 78.4261 131.737 76.6802C130.615 74.9344 129.03 73.4412 127.11 72.3227C125.285 71.3744 123.622 71.26 122.406 71.8404C121.189 72.4207 120.41 73.6959 120.362 75.527C120.445 77.5206 121.074 79.4693 122.197 81.2148C123.319 82.9604 124.905 84.4535 126.825 85.5731Z" fill="#455A64"/>
<path d="M146.545 56.2114C143.447 54.7319 140.595 54.3395 138.296 54.8872C135.086 55.6198 131.801 56.0852 128.488 56.2768C124.088 56.522 120.172 56.2768 115.753 56.4321C112.819 56.565 109.905 56.9262 107.047 57.5111C104.453 58.0424 102.562 60.7808 101.127 62.5464C99.9577 63.9851 98.0949 67.6226 98.5606 68.4891C99.0263 69.3556 103.255 69.9523 101.203 71.4645C99.1499 72.9768 91.87 75.0775 87.5173 77.6524C83.1646 80.2273 92.7824 97.9491 100.347 106.524C105.574 112.458 107.77 115.516 119.44 111.183C126.482 108.551 133.012 106.164 139.179 102.192C144.768 98.6194 152.428 89.3743 157.94 84.2082C159.935 82.7613 161.104 80.2437 161.028 76.8514C160.867 69.2166 154.385 59.947 146.545 56.2114Z" fill="#455A64"/>
<path d="M86.3865 59.6202C82.6515 59.0644 77.6906 62.2442 73.1478 62.0153C69.4984 61.8273 69.2038 65.4893 74.1932 67.0424C77.453 68.0642 85.113 67.8599 84.8754 66.5111C84.4477 64.2387 85.2745 62.2033 86.3865 59.6202ZM89.7318 58.9009C87.831 59.2769 85.2175 65.3586 86.434 66.7155C87.6504 68.0724 93.9324 68.9062 96.9736 67.7536C97.981 61.9826 103.541 57.7156 103.541 57.7156C99.5206 57.0453 91.5945 58.5576 89.7318 58.9254V58.9009Z" fill="#2DA547"/>
<g opacity="0.2">
<path d="M84.7707 64.8845C82.0417 64.9567 79.3102 64.9021 76.588 64.721C75.2756 64.6954 73.9826 64.4425 72.7865 63.9771C72.0644 63.658 71.4641 63.1671 71.0569 62.563C69.7264 63.6011 70.5152 65.9144 74.2216 67.067C77.4814 68.0888 85.1413 67.8844 84.9038 66.5357C84.7939 65.9906 84.7493 65.4373 84.7707 64.8845Z" fill="#263238"/>
<path d="M97.7716 65.1377C95.6998 64.0996 93.1243 64.3775 90.7389 64.59C89.2468 64.729 87.7452 64.8107 86.2436 64.8679C86.0558 65.5061 86.1366 66.1807 86.4717 66.7725C87.6977 68.1295 93.9701 68.9632 97.0113 67.8107C97.1602 66.9 97.4149 66.0046 97.7716 65.1377Z" fill="#263238"/>
</g>
<path d="M107.104 83.0962C120.144 89.1942 135.739 84.6493 135.739 84.6493C131.428 87.8549 125.832 89.4857 120.144 89.1942C110.25 88.8427 107.104 83.0962 107.104 83.0962Z" fill="#37474F"/>
<path d="M85.0562 85.279C85.9116 88.4506 86.957 91.1317 82.3287 91.6631C77.7004 92.1944 71.3519 93.02 68.7384 94.1153C66.1249 95.2107 63.0362 95.3333 62.4469 92.129C61.8577 88.9247 61.6201 87.2653 65.5261 86.3334C69.4322 85.4016 76.1323 83.4316 78.6792 82.2463C81.2262 81.0611 83.8873 80.9875 85.0562 85.279Z" fill="#2DA547"/>
<path opacity="0.2" d="M82.3276 91.6633C86.9179 91.132 85.9105 88.4509 85.0552 85.2793C85.0552 85.0994 84.9602 84.9359 84.9031 84.7725C84.8606 84.9528 84.8035 85.1303 84.7321 85.3038C84.2637 86.445 83.3634 87.418 82.1756 88.0667C79.7236 89.3582 76.5589 89.0885 73.8598 89.9468C72.0922 90.5026 70.5716 91.5244 68.8229 92.1211C66.8045 92.7999 64.5805 92.8805 62.5029 92.35C63.1872 95.3663 66.1904 95.26 68.7469 94.1565C71.3033 93.053 77.7278 92.1947 82.3276 91.6633Z" fill="#263238"/>
<path d="M61.2302 92.6196C59.8902 90.527 59.396 88.933 56.5544 90.6006C53.7128 92.2681 50.6906 93.7885 47.4023 95.6768C44.114 97.565 43.9905 99.2898 44.7888 100.54C45.5871 101.791 47.6399 102.069 51.0707 101.023C54.5016 99.9764 57.9704 98.1372 60.4604 97.2626C62.9504 96.3879 62.9789 95.3334 61.2302 92.6196Z" fill="#2DA547"/>
<g opacity="0.2">
<path d="M61.2301 92.6194C61.154 92.5132 61.0875 92.4069 61.021 92.2925C60.9224 92.3261 60.8351 92.3803 60.7671 92.4502C60.699 92.5202 60.6524 92.6036 60.6313 92.693C60.6159 92.8981 60.6482 93.1037 60.7264 93.2979C60.7701 93.6019 60.7252 93.9105 60.5958 94.1959C60.4664 94.4813 60.2565 94.7345 59.9851 94.9328C59.4594 95.3123 58.8656 95.6159 58.2269 95.8319L49.6166 99.1915C48.5597 99.6695 47.3966 99.9481 46.2047 100.009C45.5896 100.011 44.9853 99.87 44.4561 99.6003C44.5162 99.9192 44.6417 100.226 44.8267 100.508C45.625 101.75 47.6778 102.036 51.1086 100.99C54.5395 99.9436 58.0083 98.1044 60.4983 97.2297C62.9883 96.3551 62.9788 95.3333 61.2301 92.6194Z" fill="#263238"/>
</g>
<path d="M64.6326 91.6222C65.1268 92.9137 65.5069 93.7884 64.9937 94.0745C64.4805 94.3606 60.7646 95.2516 59.9473 92.9873C59.1299 90.723 62.2662 89.3906 63.0265 89.3906C63.7868 89.3906 64.2524 90.6249 64.6326 91.6222Z" fill="#E0E0E0"/>
<path d="M95.2918 104.235C97.1355 107.08 98.9697 109.418 94.7691 111.077C90.5684 112.737 85.2084 114.862 82.6614 116.08C79.4111 117.633 76.7596 118.418 75.1439 115.475C73.5283 112.532 73.6139 112.042 77.0447 110.162C80.4755 108.282 86.2062 104.718 88.2495 102.952C90.2928 101.186 92.7543 100.393 95.2918 104.235Z" fill="#2DA547"/>
<path d="M73.4901 115.818C71.7224 113.979 70.8956 112.475 68.4817 114.592C66.0677 116.709 64.4236 117.861 61.62 120.265C58.8164 122.668 59.073 124.393 60.1279 125.496C61.1828 126.6 63.2166 126.542 66.3623 124.949C69.508 123.355 71.5038 121.793 73.7467 120.534C75.9896 119.276 75.7805 118.213 73.4901 115.818Z" fill="#2DA547"/>
<path opacity="0.2" d="M71.2374 118.933C69.8498 119.881 68.1962 120.567 66.8942 121.597C65.9438 122.341 65.25 123.232 64.3472 124.05C63.8255 124.628 63.0986 125.044 62.2769 125.234C61.4552 125.425 60.5837 125.379 59.7949 125.104C59.8914 125.251 60.0027 125.391 60.1275 125.521C61.1825 126.616 63.2162 126.567 66.362 124.973C69.5077 123.379 71.5035 121.818 73.7463 120.559C75.9892 119.3 75.7801 118.262 73.5468 115.908C73.2309 117.125 72.4097 118.2 71.2374 118.933ZM95.2437 104.219C95.1582 104.088 95.0726 103.974 94.9871 103.851C95.2051 104.527 95.2441 105.237 95.1011 105.927C94.8846 106.577 94.5146 107.18 94.0141 107.701C93.5137 108.221 92.8937 108.647 92.193 108.952C90.7853 109.552 89.3383 110.082 87.8593 110.538C86.2199 111.143 84.6875 111.944 83.3071 112.916C82.3118 113.717 81.2298 114.434 80.0758 115.058C78.5618 115.739 76.8079 115.914 75.1529 115.548C76.7685 118.377 79.401 117.6 82.6133 116.063C85.1603 114.845 90.5109 112.72 94.721 111.061C98.9311 109.401 97.0874 107.08 95.2912 104.235L95.2437 104.219Z" fill="#263238"/>
<path d="M76.4262 114.682C77.1295 115.9 77.6522 116.717 77.2055 117.085C76.7589 117.453 73.2425 118.801 72.045 116.668C70.8476 114.535 73.7082 112.793 74.459 112.695C75.2098 112.597 75.875 113.75 76.4262 114.682Z" fill="#E0E0E0"/>
<path d="M102.448 112.949C104.643 115.401 105.09 117.036 102.391 118.369C97.506 120.715 95.4912 122.014 92.9917 123.118C88.6865 125.022 87.8312 124.941 86.1015 122.186C84.3719 119.431 85.0181 118.81 88.2494 116.717C90.8914 115.001 93.7425 113.251 96.6316 111.559C98.922 110.219 100.585 110.824 102.448 112.949Z" fill="#2DA547"/>
<path d="M84.6948 123.248C82.8891 121.556 82.5089 120.632 79.8289 122.308C78.3559 123.162 77.0202 124.179 75.8564 125.333C73.4519 127.867 73.6895 129.42 74.7634 130.45C75.8373 131.48 77.7951 131.267 80.7032 129.632C83.6114 127.997 82.604 128.529 84.6473 127.18C86.6906 125.831 87.0422 125.447 84.6948 123.248Z" fill="#2DA547"/>
<path opacity="0.2" d="M83.7628 125.218C83.0899 125.68 82.3675 126.085 81.6054 126.428C80.4131 127.051 79.3095 127.792 78.3171 128.635C77.7301 129.228 77.0449 129.743 76.2834 130.164C75.8278 130.37 75.3145 130.464 74.8008 130.434C75.8842 131.439 77.8325 131.251 80.7406 129.616C83.6487 127.981 82.6413 128.513 84.6846 127.164C86.7279 125.815 87.051 125.455 84.9317 123.428C84.8277 124.133 84.4084 124.775 83.7628 125.218ZM102.447 112.957C102.156 112.612 101.838 112.285 101.497 111.976C101.627 112.417 101.645 112.876 101.55 113.323C101.454 113.771 101.248 114.195 100.945 114.567C99.9951 115.671 98.3604 116.112 97.0394 116.872C94.692 118.238 93.3425 120.657 90.8715 121.851C89.5124 122.508 87.9281 122.733 86.3953 122.488H86.3098C87.9254 124.94 88.8757 124.94 93.0194 123.134C95.5188 122.03 97.5336 120.731 102.419 118.385C105.089 117.077 104.642 115.442 102.447 112.949V112.957Z" fill="#263238"/>
<path d="M87.1749 121.556C87.9827 122.66 88.572 123.403 88.1823 123.788C87.7927 124.172 84.5614 125.741 83.1834 123.788C81.8054 121.834 84.3618 119.954 85.0841 119.799C85.8064 119.643 86.5477 120.698 87.1749 121.556Z" fill="#E0E0E0"/>
<path d="M89.2473 94.7038C90.8154 97.671 92.431 100.123 88.0688 101.464C83.7066 102.804 74.3075 106.025 72.0266 107.595C69.7457 109.164 66.7615 109.818 65.374 106.777C63.9864 103.736 63.4733 102.142 67.0276 100.524C70.582 98.9053 80.0667 94.5158 82.2335 92.9136C84.4004 91.3115 87.1184 90.6821 89.2473 94.7038Z" fill="#2DA547"/>
<path d="M64.4146 106.491C62.7705 104.57 62.0482 103.041 59.4632 105.003C56.8782 106.965 54.0841 108.78 51.0904 111.003C48.0968 113.226 48.2393 114.943 49.1897 116.087C50.1401 117.232 52.2309 117.297 55.5192 115.883C58.8074 114.469 61.9722 112.286 64.3196 111.158C66.667 110.03 66.5529 108.984 64.4146 106.491Z" fill="#2DA547"/>
<path opacity="0.2" d="M63.701 108.265C62.9054 108.837 62.0229 109.313 61.0779 109.679C59.5754 110.368 58.1611 111.189 56.8583 112.132C55.6827 113.11 54.4108 113.999 53.0568 114.788C51.8066 115.471 50.2968 115.708 48.8467 115.45C48.9558 115.679 49.0961 115.896 49.2648 116.096C50.2152 117.241 52.306 117.306 55.5943 115.892C58.8826 114.478 62.0473 112.295 64.3947 111.167C66.7421 110.039 66.6186 109.083 64.7369 106.81C64.5646 107.372 64.2044 107.878 63.701 108.265ZM89.3609 94.9331C89.5 95.5225 89.4474 96.1334 89.2089 96.6987C88.9546 97.1904 88.5745 97.6263 88.0969 97.9739C84.8657 100.492 80.0188 100.639 76.1698 102.404C74.2691 103.271 72.6629 104.521 70.7717 105.38C69.9248 105.821 68.9796 106.104 67.9973 106.211C67.015 106.318 66.0175 106.247 65.0695 106.001C65.174 106.246 65.2881 106.5 65.4021 106.778C66.7421 109.818 69.7263 109.173 72.0547 107.595C74.3831 106.017 83.7442 102.813 88.0969 101.464C92.4496 100.116 90.9005 97.7941 89.3704 94.9331H89.3609Z" fill="#263238"/>
<path d="M67.5316 105.396C68.1874 106.63 68.6721 107.464 68.2159 107.848C67.7597 108.232 64.1768 109.483 63.0744 107.276C61.972 105.069 64.8991 103.45 65.6499 103.377C66.4007 103.303 67.028 104.406 67.5316 105.396Z" fill="#E0E0E0"/>
<path d="M53.7691 51.2656L39.0859 58.5734L44.9212 69.8539C45.0308 70.0815 45.229 70.2693 45.4819 70.3852L52.9708 74.0963C53.1484 74.1837 53.3467 74.2355 53.5508 74.2478C53.7549 74.2602 53.9596 74.2327 54.1496 74.1675C54.3397 74.1022 54.5101 74.001 54.6483 73.8711C54.7865 73.7413 54.8888 73.5864 54.9476 73.4178L61.2771 54.9767L53.7691 51.2656Z" fill="#2DA547"/>
<path d="M66.9988 0.250044L21.5236 22.8355C21.1751 23.0305 20.885 23.2935 20.6769 23.6032C20.4688 23.9128 20.3487 24.2603 20.3262 24.6175L20.3737 67.1235C20.3976 67.4792 20.5185 67.8251 20.7265 68.1333C20.9345 68.4414 21.2239 68.7031 21.5712 68.8973L28.3093 72.167C28.6807 72.328 29.0908 72.4119 29.5067 72.4119C29.9227 72.4119 30.3328 72.328 30.7042 72.167L76.1794 49.5898C76.5269 49.3938 76.8162 49.1305 77.0241 48.8211C77.2321 48.5116 77.3529 48.1646 77.3768 47.8078L77.3293 5.30173C77.3054 4.94602 77.1845 4.60013 76.9765 4.29201C76.7685 3.98388 76.4792 3.72214 76.1319 3.52792L69.3937 0.25822C69.0231 0.0959708 68.6133 0.0107149 68.1974 0.00929537C67.7815 0.00787579 67.371 0.0903302 66.9988 0.250044Z" fill="#2DA547"/>
<path opacity="0.15" d="M77.3101 5.08926C77.2245 4.57428 76.7303 4.38628 76.1316 4.68055L30.6659 27.2578C30.3155 27.4509 30.0251 27.7147 29.8201 28.0262L20.7061 23.5549C20.9016 23.2562 21.183 23.0057 21.5234 22.8274L66.9986 0.241934C67.3706 0.0828098 67.7805 0 68.196 0C68.6115 0 69.0214 0.0828098 69.3935 0.241934L76.1316 3.51163C76.4485 3.68613 76.7178 3.91743 76.9212 4.18971C77.1246 4.46199 77.2572 4.76883 77.3101 5.08926Z" fill="black"/>
<path d="M52.429 73.565L47.392 63.8376L30.6655 72.1345C30.0097 72.4614 29.4775 72.1999 29.4775 71.5459V29.0398C29.4982 28.6833 29.6166 28.336 29.8231 28.0263C30.0295 27.7166 30.3182 27.4533 30.6655 27.2579L76.1312 4.6806C76.7964 4.35363 77.3286 4.62338 77.3286 5.27732L77.3762 47.7834C77.3522 48.1402 77.2314 48.4872 77.0234 48.7967C76.8155 49.1061 76.5262 49.3694 76.1787 49.5654L60.4596 57.3636L54.9474 73.426C54.8713 73.6544 54.7149 73.8571 54.4996 74.0061C54.2844 74.1551 54.0209 74.2433 53.7451 74.2585C53.4694 74.2737 53.1949 74.2153 52.9593 74.0911C52.7237 73.9669 52.5384 73.7832 52.429 73.565Z" fill="#2DA547"/>
<path opacity="0.35" d="M52.429 73.565L47.392 63.8376L30.6655 72.1345C30.0097 72.4614 29.4775 72.1999 29.4775 71.5459V29.0398C29.4982 28.6833 29.6166 28.336 29.8231 28.0263C30.0295 27.7166 30.3182 27.4533 30.6655 27.2579L76.1312 4.6806C76.7964 4.35363 77.3286 4.62338 77.3286 5.27732L77.3762 47.7834C77.3522 48.1402 77.2314 48.4872 77.0234 48.7967C76.8155 49.1061 76.5262 49.3694 76.1787 49.5654L60.4596 57.3636L54.9474 73.426C54.8713 73.6544 54.7149 73.8571 54.4996 74.0061C54.2844 74.1551 54.0209 74.2433 53.7451 74.2585C53.4694 74.2737 53.1949 74.2153 52.9593 74.0911C52.7237 73.9669 52.5384 73.7832 52.429 73.565Z" fill="white"/>
<path d="M65.3727 18.8137C64.9621 18.6662 64.5218 18.5898 64.0769 18.5889C63.6319 18.588 63.1912 18.6625 62.7798 18.8083C62.3684 18.9541 61.9945 19.1682 61.6795 19.4384C61.3645 19.7087 61.1145 20.0297 60.9439 20.3831L48.171 46.5407L45.1298 43.9985C44.8115 43.7328 44.4356 43.5237 44.0233 43.383C43.6111 43.2423 43.1707 43.1728 42.7272 43.1785C41.8316 43.19 40.978 43.507 40.3542 44.0598C39.7304 44.6127 39.3874 45.356 39.4008 46.1263C39.4141 46.8966 39.7827 47.6308 40.4255 48.1674L47.021 53.6768C47.6476 54.2049 48.4913 54.4987 49.3684 54.4943C49.5951 54.4955 49.8212 54.4763 50.0432 54.437C50.5947 54.3431 51.1102 54.1325 51.5433 53.8243C51.9764 53.516 52.3133 53.1198 52.5237 52.6714L67.1689 22.6147C67.5165 21.9058 67.5226 21.1071 67.1857 20.3943C66.8489 19.6815 66.1968 19.113 65.3727 18.8137Z" fill="#FAFAFA"/>
</svg>
