<svg width="495" height="420" viewBox="0 0 495 420" fill="none" xmlns="http://www.w3.org/2000/svg">
<g style="mix-blend-mode:overlay">
<path d="M429.736 42.0425C412.448 25.2186 391.982 25.0162 368.625 31.6901C340.018 39.8671 329.901 46.6585 306.975 37.3547C276.259 24.8653 257.311 0.308922 221.086 0.87302C155.939 1.90314 128.96 62.4585 105.583 89.5333C81.6353 117.284 56.367 102.213 28.3496 106.593C-0.826619 111.157 -9.64591 147.291 16.1453 171.169C44.436 197.393 73.6882 205.763 65.7269 246.758C63.5656 257.897 51.2425 257.263 46.3526 276.59C38.9001 306.033 62.3035 362.545 100.186 352.618C118.568 347.798 139.28 333.235 163.208 353.815C198.217 383.965 219.359 421.46 251.692 410.798C281.263 401.048 297.605 380.766 339.91 391.339C353.23 394.672 362.17 399.192 396.215 412.561C468.35 440.883 514.228 372.38 485.988 301.015C474.916 273.025 468.737 265.301 460.439 249.969C427.332 188.853 445.703 184.527 455.15 132.168C461.69 95.7735 448.268 60.069 429.736 42.0425Z" fill="#050505" fill-opacity="0.38"/>
</g>
</svg>
