<svg width="262" height="290" viewBox="0 0 262 290" fill="none" xmlns="http://www.w3.org/2000/svg">
<path d="M155.626 9.28154C144.786 -1.91846 128.536 -3.87846 112.796 8.37154C99.2265 18.9315 91.6865 31.2215 69.9665 31.3715C-13.0335 32.0115 -7.42354 86.6215 12.4465 118.802C40.9665 165.002 30.7065 180.802 29.8665 212.102C29.2865 233.972 30.8165 251.772 46.6165 269.652C70.2865 296.432 105.186 293.852 128.326 274.552C139.676 265.072 150.666 252.942 157.836 246.032C177.096 227.502 186.756 223.952 217.196 208.512C275.966 177.452 273.496 122.192 224.336 102.202C182.236 85.0815 179.186 84.3515 171.776 50.3715C168.656 36.1115 168.036 22.0915 155.626 9.28154Z" fill="url(#paint0_linear_454_38832)"/>
<defs>
<linearGradient id="paint0_linear_454_38832" x1="0.00645826" y1="144.702" x2="261.256" y2="144.702" gradientUnits="userSpaceOnUse">
<stop stop-color="#FF8A00"/>
<stop offset="1" stop-color="#FFBC00"/>
</linearGradient>
</defs>
</svg>
