<svg width="69" height="154" viewBox="0 0 69 154" fill="none" xmlns="http://www.w3.org/2000/svg">
<path d="M19 103H21.5L25.5 150.5L24.5 151.5L21.5 142.5L19 103Z" fill="#C6C4A9" fill-opacity="0.87"/>
<path d="M44.4445 103.354L48.3385 103.354L45.5759 150.942L44.4445 151.791L42.9999 151.791L44.4445 103.354Z" fill="#CDCAA3"/>
<path d="M40.3285 32.9773C40.8343 32.9965 42.2109 33.4577 44.2278 37.2685C46.7888 42.1362 50.5632 56.8352 50.5632 56.8352L39.3329 61.0175L37.8891 57.9496L35.5137 34.3287C35.5137 34.3287 40.178 32.9709 40.3285 32.9773Z" fill="#DD513A"/>
<path d="M25.4707 30.8574C28.672 30.8574 36.6273 31.7989 40.3153 32.9774C40.3153 32.9774 43.0268 56.2685 37.8759 73.9682C36.7266 77.9295 38.8363 90.3901 38.8363 90.3901L5.56152 89.9513C5.56152 89.9513 9.50556 59.8263 8.02013 54.9587C6.53471 50.091 6.49949 33.1343 6.49949 33.1343C6.49949 33.1343 6.72682 33.0991 13.9747 31.8534C17.7756 31.2278 21.6188 30.8948 25.4707 30.8574Z" fill="#F47458"/>
<path d="M21.5936 133.622C21.5936 133.622 22.3299 142.121 23.6841 144.475C25.0382 146.829 23.6136 150.829 23.5432 151.38C23.4728 151.93 20.694 152.712 16.2762 152.241C11.8583 151.77 11.9288 150.752 12.2873 149.103C12.6459 147.453 14.9924 145.337 15.1365 143.768C15.2806 142.198 13.7823 136.553 13.7823 136.553L21.5936 133.622Z" fill="#F7A491"/>
<path d="M35.075 83.3766C35.075 83.3766 58.0446 82.0957 63.1763 85.2084C68.3081 88.3211 59.5364 103.565 59.5364 103.565C59.5364 103.565 43.5553 102.828 12.2494 104.637C4.83509 105.063 4.1948 85.3013 5.58098 83.6648C6.96716 82.0284 35.075 83.3766 35.075 83.3766Z" fill="#E0973F"/>
<path d="M15.7256 152.901C11.1765 152.417 11.7399 150.182 12.1049 148.485C12.3354 147.422 13.6415 146.169 14.4194 144.988C14.826 145.308 15.4855 145.881 17.4607 146.467C19.5128 147.073 22.3236 145.872 24.1163 145.122C24.5811 147.042 24.7847 149.015 24.7214 150.989C24.6413 151.556 20.2715 153.388 15.7256 152.901Z" fill="#DD513A"/>
<path d="M18.2389 99.8243C19.1577 106.77 23.7004 141.353 23.7004 141.353L13.1584 142.66C13.1584 142.66 0.192903 97.5057 0.858782 90.6174C1.52466 83.729 6.37469 83.1334 6.37469 83.1334C6.37469 83.1334 15.8059 81.4265 18.2389 99.8243Z" fill="#F7CC7F"/>
<path d="M6.13153 35.7218C9.24004 34.5561 10.7638 62.5963 11.1832 74.1506C16.6927 74.6822 26.2968 74.1506 28.685 73.9745C29.8118 73.8912 32.4049 72.9401 33.5222 72.796C34.4299 72.6387 35.3536 72.5946 36.2721 72.6647C36.477 72.6999 42.2202 75.0505 42.71 75.5661C43.3215 76.2066 44.951 77.8078 44.6885 78.5123C44.426 79.2168 41.5223 76.5716 41.5223 76.5716L40.1105 75.7774C41.8681 77.4971 45.2327 79.758 44.7397 80.581C44.2467 81.4041 41.2438 79.0887 39.0861 77.5259C40.9365 79.1944 43.2479 82.1854 42.7037 82.6498C42.2267 83.0693 39.6144 79.6075 36.8228 78.6116C35.7888 78.2433 34.7547 79.252 33.9416 79.3897C33.3429 79.4794 32.4209 79.6716 31.8319 79.505L28.8098 78.65C27.779 78.7429 27.7534 79.3513 26.7129 79.5723C25.506 79.8285 23.5116 80.1007 21.9877 80.4754C13.1296 82.6402 10.178 83.6457 7.46647 83.6457C-0.744974 83.6265 -1.22195 38.4823 6.13153 35.7218Z" fill="#F7A491"/>
<path d="M0.224883 62.0359C-0.357761 50.2127 -0.271317 35.6417 6.35546 33.1567C8.96776 32.1735 13.5777 38.0724 12.7581 62.2761C9.21106 62.5803 4.01847 62.8173 0.224883 62.0359Z" fill="#DD513A"/>
<path d="M52.4262 140.892C52.4262 140.892 51.5042 143.841 53.1529 145.795C54.8016 147.748 61.6429 149.66 62.5424 150.717C63.442 151.774 63.378 152.664 63.378 152.664L44.1699 152.135L44.3812 146.33L45.2648 142.166L52.4262 140.892Z" fill="#F7A491"/>
<path d="M54.347 146.768C54.347 146.768 49.4106 148.763 47.0256 147.582C44.6406 146.4 44.7142 146.07 44.0227 146.512C43.3312 146.954 43.0879 152.395 43.0879 152.395L64.6873 153.035C66.192 153 66.9507 151.892 65.731 150.944C64.9835 150.416 64.1957 149.949 63.3748 149.545C61.6845 148.568 54.347 146.768 54.347 146.768Z" fill="#DD513A"/>
<path d="M51.6959 88.824C53.1813 85.6985 56.5587 81.6282 62.5004 84.0781C68.1668 86.4158 69.6874 92.1609 67.901 98.0437C66.1147 103.927 54.3402 138.512 53.9304 143.268L44.5312 143.329C44.5312 143.329 46.2408 115.945 46.6602 109.326C47.0507 102.956 49.1252 94.2329 51.6959 88.824Z" fill="#F7CC7F"/>
<path d="M66.9541 56.9697H35.5265C35.1192 56.971 34.7215 57.0935 34.384 57.3216C34.0465 57.5497 33.7845 57.8731 33.6313 58.2507L23.9601 81.9325H6.63764C6.52245 81.9329 6.40845 81.956 6.30218 82.0005C6.19592 82.045 6.09947 82.1099 6.01832 82.1917C5.93716 82.2735 5.87291 82.3705 5.82921 82.4771C5.78552 82.5837 5.76326 82.6979 5.76368 82.8131C5.76368 83.0453 5.85564 83.268 6.01945 83.4324C6.18326 83.5969 6.40555 83.6897 6.63764 83.6906H55.9383C56.6024 83.6903 57.2522 83.4975 57.809 83.1354C58.3658 82.7734 58.8058 82.2576 59.0756 81.6506L68.8173 59.8743C68.9589 59.5618 69.02 59.2189 68.9952 58.8767C68.9703 58.5346 68.8603 58.2041 68.6751 57.9153C68.4899 57.6266 68.2354 57.3888 67.9348 57.2237C67.6342 57.0585 67.2971 56.9712 66.9541 56.9697Z" fill="black"/>
<path d="M50.0377 70.7592C49.8264 71.8224 48.9012 72.5334 47.9728 72.3604C47.0444 72.1875 46.465 71.1595 46.6763 70.0963C46.8876 69.0331 47.816 68.3222 48.7444 68.4951C49.6728 68.6681 50.2522 69.696 50.0377 70.7592Z" fill="white"/>
<path d="M32.9395 2.4104C31.9909 2.09724 31.0628 1.72504 30.1607 1.29597C29.1427 0.806 27.8237 0.229569 26.9914 0.101473C25.237 -0.170731 22.2246 0.0118028 20.5599 1.81475C18.4886 4.05644 14.7974 2.22146 15.5498 13.9999C16.3885 27.3315 23.7996 25.868 23.9789 25.6406C24.1582 25.4133 30.5865 17.1126 30.5865 17.1126C30.5865 17.1126 32.8274 22.0315 32.8274 21.8522C32.8274 21.6728 44.3106 6.24047 32.9395 2.4104Z" fill="#0E2E35"/>
<path d="M27.3117 26.627L27.952 31.389C27.952 31.389 29.3862 38.2517 27.5423 39.5743C25.6983 40.8969 19.7021 31.1936 19.7021 31.1936L20.3424 19.1238L27.3117 26.627Z" fill="#F7A491"/>
<path d="M20.1309 23.0371C21.6547 27.1522 25.2818 29.6917 27.8429 30.6524L27.2987 26.6142L20.3357 19.1238L20.1309 23.0371Z" fill="#F47458"/>
<path d="M26.9334 5.99395C27.8487 5.85315 28.7837 5.91437 29.6729 6.17332C30.562 6.43227 31.3838 6.88267 32.0805 7.49295C32.7772 8.10322 33.332 8.85859 33.7059 9.70605C34.0799 10.5535 34.264 11.4726 34.2453 12.3988C34.1983 14.4448 34.0197 16.4858 33.7107 18.5089C32.8623 24.0075 29.1103 28.8495 26.6325 28.4172C24.1547 27.9848 17.9121 23.2421 19.0101 15.4186C19.6888 10.599 22.8357 6.65044 26.9334 5.99395Z" fill="#F7A491"/>
<path d="M20.7324 16.3632C20.5243 17.5737 19.5543 18.4127 18.5683 18.243C17.5823 18.0733 16.9676 16.962 17.1661 15.7419C17.3646 14.5218 18.341 13.6924 19.327 13.8621C20.313 14.0318 20.9405 15.1559 20.7324 16.3632Z" fill="#F7A491"/>
<path d="M19.3275 13.8622C19.3275 13.8622 22.3272 14.6083 23.438 12.6805C24.5489 10.7526 28.5313 6.59592 33.5863 8.31241C38.6412 10.0289 29.1364 4.11726 28.7331 4.11726L23.4732 4.08203C23.4732 4.08203 19.7309 7.16274 19.5964 7.5022C19.462 7.84165 18.3799 11.5276 18.3799 11.5276L19.3275 13.8622Z" fill="#0E2E35"/>
<path d="M24.8147 21.9131L30.257 22.9539C30.257 22.9539 29.7352 25.0098 27.3246 24.6223C24.3953 24.1484 24.8147 21.9131 24.8147 21.9131Z" fill="white"/>
</svg>
